Lora-Regular.ufo
<glyph name="numbersign" format="2">
  <advance width="830"/>
  <unicode hex="0023"/>
  <outline>
    <contour>
      <point x="154" y="-16" type="line"/>
      <point x="226" y="-16" type="line"/>
      <point x="270" y="178" type="line"/>
      <point x="479" y="178" type="line"/>
      <point x="434" y="-16" type="line"/>
      <point x="506" y="-16" type="line"/>
      <point x="550" y="178" type="line"/>
      <point x="714" y="178" type="line"/>
      <point x="730" y="238" type="line"/>
      <point x="563" y="238" type="line"/>
      <point x="615" y="469" type="line"/>
      <point x="781" y="469" type="line"/>
      <point x="796" y="528" type="line"/>
      <point x="796" y="529" type="line"/>
      <point x="629" y="529" type="line"/>
      <point x="672" y="716" type="line"/>
      <point x="606" y="716" type="line"/>
      <point x="562" y="529" type="line"/>
      <point x="349" y="529" type="line"/>
      <point x="392" y="716" type="line"/>
      <point x="326" y="716" type="line"/>
      <point x="282" y="529" type="line"/>
      <point x="115" y="529" type="line"/>
      <point x="99" y="469" type="line"/>
      <point x="268" y="469" type="line"/>
      <point x="213" y="238" type="line"/>
      <point x="49" y="238" type="line"/>
      <point x="33" y="178" type="line"/>
      <point x="199" y="178" type="line"/>
    </contour>
    <contour>
      <point x="283" y="238" type="line"/>
      <point x="335" y="469" type="line"/>
      <point x="547" y="469" type="line"/>
      <point x="493" y="238" type="line"/>
    </contour>
  </outline>
</glyph>
<glyph name="quotesingle" format="2">
  <advance width="208"/>
  <unicode hex="0027"/>
  <outline>
    <contour>
      <point x="71" y="491" type="line"/>
      <point x="137" y="491" type="line"/>
      <point x="146" y="716" type="line"/>
      <point x="62" y="716" type="line"/>
    </contour>
  </outline>
</glyph>
<glyph name="parenright" format="2">
  <advance width="305"/>
  <unicode hex="0029"/>
  <outline>
    <contour>
      <point x="43" y="-271" type="line"/>
      <point x="142" y="-180"/>
      <point x="270" y="28"/>
      <point x="270" y="250" type="curve" smooth="yes"/>
      <point x="270" y="472"/>
      <point x="142" y="669"/>
      <point x="43" y="760" type="curve"/>
      <point x="18" y="737" type="line"/>
      <point x="121" y="600"/>
      <point x="169" y="438"/>
      <point x="169" y="250" type="curve" smooth="yes"/>
      <point x="169" y="62"/>
      <point x="121" y="-111"/>
      <point x="18" y="-248" type="curve"/>
    </contour>
  </outline>
</glyph>
<glyph name="comma" format="2">
  <advance width="253"/>
  <unicode hex="002C"/>
  <outline>
    <contour>
      <point x="118" y="-179" type="line"/>
      <point x="162" y="-134"/>
      <point x="192" y="-41"/>
      <point x="192" y="10" type="curve" smooth="yes"/>
      <point x="192" y="61"/>
      <point x="167" y="101"/>
      <point x="121" y="101" type="curve" smooth="yes"/>
      <point x="91" y="101"/>
      <point x="66" y="80"/>
      <point x="66" y="43" type="curve" smooth="yes"/>
      <point x="66" y="15"/>
      <point x="86" y="-6"/>
      <point x="112" y="-6" type="curve" smooth="yes"/>
      <point x="120" y="-6"/>
      <point x="128" y="-4"/>
      <point x="137" y="0" type="curve" smooth="yes"/>
      <point x="144" y="-61"/>
      <point x="113" y="-131"/>
      <point x="91" y="-159" type="curve"/>
    </contour>
  </outline>
</glyph>
<glyph name="hyphen" format="2">
  <advance width="489"/>
  <unicode hex="002D"/>
  <outline>
    <contour>
      <point x="67" y="285" type="line"/>
      <point x="422" y="289" type="line"/>
      <point x="422" y="355" type="line"/>
      <point x="67" y="355" type="line"/>
    </contour>
  </outline>
</glyph>
<glyph name="period" format="2">
  <advance width="246"/>
  <unicode hex="002E"/>
  <outline>
    <contour>
      <point x="122" y="-16" type="curve" smooth="yes"/>
      <point x="153" y="-16"/>
      <point x="181" y="12"/>
      <point x="181" y="48" type="curve" smooth="yes"/>
      <point x="181" y="84"/>
      <point x="156" y="113"/>
      <point x="123" y="113" type="curve" smooth="yes"/>
      <point x="92" y="113"/>
      <point x="64" y="84"/>
      <point x="64" y="48" type="curve" smooth="yes"/>
      <point x="64" y="12"/>
      <point x="91" y="-16"/>
    </contour>
  </outline>
</glyph>
<glyph name="one" format="2">
  <advance width="364"/>
  <unicode hex="0031"/>
  <outline>
    <contour>
      <point x="74" y="0" type="line"/>
      <point x="329" y="0" type="line"/>
      <point x="329" y="44" type="line"/>
      <point x="301" y="43"/>
      <point x="273" y="41"/>
      <point x="245" y="40" type="curve"/>
      <point x="248" y="59"/>
      <point x="248" y="83"/>
      <point x="248" y="109" type="curve" smooth="yes"/>
      <point x="247" y="716" type="line"/>
      <point x="213" y="716" type="line"/>
      <point x="18" y="571" type="line"/>
      <point x="38" y="542" type="line"/>
      <point x="158" y="619" type="line"/>
      <point x="161" y="147" type="line" smooth="yes"/>
      <point x="161" y="78"/>
      <point x="143" y="36"/>
      <point x="74" y="33" type="curve"/>
    </contour>
  </outline>
</glyph>
<glyph name="less" format="2">
  <advance width="530"/>
  <unicode hex="003C"/>
  <outline>
    <contour>
      <point x="479" y="85" type="line"/>
      <point x="479" y="149" type="line"/>
      <point x="102" y="316" type="line"/>
      <point x="479" y="482" type="line"/>
      <point x="479" y="544" type="line"/>
      <point x="34" y="346" type="line"/>
      <point x="34" y="279" type="line"/>
    </contour>
  </outline>
</glyph>
<glyph name="question" format="2">
  <advance width="474"/>
  <unicode hex="003F"/>
  <outline>
    <contour>
      <point x="226" y="188" type="curve" smooth="yes"/>
      <point x="250" y="188"/>
      <point x="283" y="194"/>
      <point x="304" y="206" type="curve"/>
      <point x="292" y="241" type="line"/>
      <point x="280" y="236"/>
      <point x="265" y="234"/>
      <point x="255" y="234" type="curve" smooth="yes"/>
      <point x="224" y="234"/>
      <point x="213" y="251"/>
      <point x="213" y="267" type="curve" smooth="yes"/>
      <point x="213" y="334"/>
      <point x="428" y="406"/>
      <point x="437" y="542" type="curve" smooth="yes"/>
      <point x="441" y="625"/>
      <point x="390" y="716"/>
      <point x="235" y="716" type="curve" smooth="yes"/>
      <point x="109" y="716"/>
      <point x="33" y="635"/>
      <point x="33" y="577" type="curve" smooth="yes"/>
      <point x="33" y="548"/>
      <point x="47" y="526"/>
      <point x="76" y="524" type="curve" smooth="yes"/>
      <point x="108" y="523"/>
      <point x="122" y="550"/>
      <point x="122" y="567" type="curve" smooth="yes"/>
      <point x="122" y="582"/>
      <point x="117" y="595"/>
      <point x="110" y="606" type="curve"/>
      <point x="115" y="638"/>
      <point x="163" y="677"/>
      <point x="220" y="677" type="curve" smooth="yes"/>
      <point x="314" y="677"/>
      <point x="344" y="617"/>
      <point x="342" y="544" type="curve" smooth="yes"/>
      <point x="339" y="466"/>
      <point x="288" y="416"/>
      <point x="238" y="373" type="curve" smooth="yes"/>
      <point x="191" y="332"/>
      <point x="146" y="299"/>
      <point x="146" y="255" type="curve" smooth="yes"/>
      <point x="146" y="206"/>
      <point x="187" y="188"/>
    </contour>
    <contour>
      <point x="232" y="-16" type="curve" smooth="yes"/>
      <point x="263" y="-16"/>
      <point x="286" y="10"/>
      <point x="286" y="43" type="curve" smooth="yes"/>
      <point x="286" y="75"/>
      <point x="262" y="102"/>
      <point x="232" y="102" type="curve" smooth="yes"/>
      <point x="205" y="102"/>
      <point x="178" y="75"/>
      <point x="178" y="43" type="curve" smooth="yes"/>
      <point x="178" y="6"/>
      <point x="205" y="-16"/>
    </contour>
  </outline>
</glyph>
<glyph name="E" format="2">
  <advance width="622"/>
  <unicode hex="0045"/>
  <anchor x="372" y="0" name="bottom"/>
  <anchor x="560" y="5" name="ogonek"/>
  <anchor x="327" y="700" name="top"/>
  <anchor x="20" y="700" name="topleft"/>
  <outline>
    <contour>
      <point x="403" y="259" type="curve"/>
      <point x="436" y="259" type="line"/>
      <point x="436" y="469" type="line"/>
      <point x="392" y="469" type="line"/>
      <point x="399" y="383" type="line"/>
      <point x="211" y="384" type="line"/>
      <point x="211" y="544" type="line" smooth="yes"/>
      <point x="211" y="625"/>
      <point x="212" y="661"/>
      <point x="287" y="663" type="curve" smooth="yes"/>
      <point x="373" y="665" type="line" smooth="yes"/>
      <point x="448" y="667"/>
      <point x="508" y="643"/>
      <point x="508" y="525" type="curve"/>
      <point x="541" y="525" type="line"/>
      <point x="536" y="700" type="line"/>
      <point x="55" y="700" type="line"/>
      <point x="55" y="656" type="line"/>
      <point x="79" y="657"/>
      <point x="103" y="659"/>
      <point x="127" y="660" type="curve"/>
      <point x="125" y="640"/>
      <point x="124" y="615"/>
      <point x="124" y="588" type="curve" smooth="yes"/>
      <point x="124" y="156" type="line" smooth="yes"/>
      <point x="124" y="85"/>
      <point x="130" y="36"/>
      <point x="55" y="33" type="curve"/>
      <point x="55" y="0" type="line"/>
      <point x="571" y="0" type="line"/>
      <point x="577" y="195" type="line"/>
      <point x="543" y="195" type="line"/>
      <point x="543" y="76"/>
      <point x="486" y="41"/>
      <point x="399" y="40" type="curve" smooth="yes"/>
      <point x="208" y="37" type="line"/>
      <point x="210" y="54"/>
      <point x="211" y="79"/>
      <point x="211" y="115" type="curve" smooth="yes"/>
      <point x="211" y="344" type="line"/>
      <point x="284" y="347" type="line" smooth="yes"/>
      <point x="369" y="350"/>
      <point x="403" y="347"/>
    </contour>
  </outline>
</glyph>
<glyph name="L" format="2">
  <advance width="578"/>
  <unicode hex="004C"/>
  <anchor x="319" y="0" name="bottom"/>
  <anchor x="181" y="700" name="top"/>
  <outline>
    <contour>
      <point x="55" y="0" type="line"/>
      <point x="551" y="0" type="line"/>
      <point x="557" y="207" type="line"/>
      <point x="523" y="207" type="line"/>
      <point x="523" y="89"/>
      <point x="479" y="41"/>
      <point x="395" y="40" type="curve" smooth="yes"/>
      <point x="208" y="37" type="line"/>
      <point x="210" y="54"/>
      <point x="211" y="79"/>
      <point x="211" y="115" type="curve" smooth="yes"/>
      <point x="211" y="544" type="line" smooth="yes"/>
      <point x="211" y="615"/>
      <point x="205" y="664"/>
      <point x="280" y="667" type="curve"/>
      <point x="280" y="700" type="line"/>
      <point x="55" y="700" type="line"/>
      <point x="55" y="656" type="line"/>
      <point x="79" y="657"/>
      <point x="103" y="659"/>
      <point x="127" y="660" type="curve"/>
      <point x="125" y="640"/>
      <point x="124" y="615"/>
      <point x="124" y="588" type="curve" smooth="yes"/>
      <point x="124" y="156" type="line" smooth="yes"/>
      <point x="124" y="85"/>
      <point x="130" y="36"/>
      <point x="55" y="33" type="curve"/>
    </contour>
  </outline>
</glyph>
<glyph name="M" format="2">
  <advance width="918"/>
  <unicode hex="004D"/>
  <anchor x="459" y="0" name="bottom"/>
  <anchor x="459" y="700" name="top"/>
  <outline>
    <contour>
      <point x="432" y="-10" type="curve"/>
      <point x="462" y="-10" type="line"/>
      <point x="687" y="546" type="line" smooth="yes"/>
      <point x="691" y="558"/>
      <point x="696" y="568"/>
      <point x="700" y="578" type="curve"/>
      <point x="702" y="546"/>
      <point x="704" y="514"/>
      <point x="706" y="482" type="curve"/>
      <point x="726" y="152" type="line" smooth="yes"/>
      <point x="730" y="76"/>
      <point x="722" y="35"/>
      <point x="660" y="33" type="curve"/>
      <point x="660" y="0" type="line"/>
      <point x="884" y="0" type="line"/>
      <point x="884" y="44" type="line"/>
      <point x="860" y="43"/>
      <point x="835" y="42"/>
      <point x="811" y="41" type="curve"/>
      <point x="811" y="58"/>
      <point x="811" y="80"/>
      <point x="809" y="103" type="curve" smooth="yes"/>
      <point x="783" y="558" type="line" smooth="yes"/>
      <point x="778" y="640"/>
      <point x="802" y="668"/>
      <point x="852" y="667" type="curve"/>
      <point x="852" y="700" type="line"/>
      <point x="704" y="700" type="line"/>
      <point x="642" y="543"/>
      <point x="577" y="397"/>
      <point x="519" y="251" type="curve" smooth="yes"/>
      <point x="505" y="215"/>
      <point x="483" y="158"/>
      <point x="468" y="122" type="curve"/>
      <point x="466" y="122" type="line"/>
      <point x="439" y="184"/>
      <point x="413" y="243"/>
      <point x="388" y="303" type="curve"/>
      <point x="216" y="700" type="line"/>
      <point x="63" y="700" type="line"/>
      <point x="63" y="657" type="line"/>
      <point x="87" y="658"/>
      <point x="111" y="659"/>
      <point x="135" y="660" type="curve"/>
      <point x="134" y="634"/>
      <point x="133" y="607"/>
      <point x="132" y="581" type="curve"/>
      <point x="113" y="125" type="line" smooth="yes"/>
      <point x="111" y="76"/>
      <point x="106" y="34"/>
      <point x="44" y="33" type="curve"/>
      <point x="44" y="0" type="line"/>
      <point x="235" y="0" type="line"/>
      <point x="235" y="44" type="line"/>
      <point x="210" y="43"/>
      <point x="185" y="41"/>
      <point x="160" y="40" type="curve"/>
      <point x="163" y="65"/>
      <point x="163" y="95"/>
      <point x="164" y="125" type="curve" smooth="yes"/>
      <point x="166" y="260"/>
      <point x="172" y="447"/>
      <point x="175" y="543" type="curve" smooth="yes"/>
      <point x="175" y="558"/>
      <point x="176" y="572"/>
      <point x="176" y="587" type="curve"/>
      <point x="201" y="520"/>
      <point x="227" y="455"/>
      <point x="255" y="391" type="curve" smooth="yes"/>
      <point x="312" y="255"/>
      <point x="373" y="123"/>
    </contour>
  </outline>
</glyph>
<glyph name="O" format="2">
  <advance width="794"/>
  <unicode hex="004F"/>
  <anchor x="397" y="0" name="bottom"/>
  <anchor x="397" y="350" name="center"/>
  <anchor x="715" y="10" name="ogonek"/>
  <anchor x="389" y="700" name="top"/>
  <anchor x="20" y="700" name="topleft"/>
  <anchor x="574" y="700" name="topright"/>
  <outline>
    <contour>
      <point x="402" y="-16" type="curve" smooth="yes"/>
      <point x="638" y="-16"/>
      <point x="750" y="184"/>
      <point x="750" y="350" type="curve" smooth="yes"/>
      <point x="750" y="517"/>
      <point x="638" y="716"/>
      <point x="394" y="716" type="curve" smooth="yes"/>
      <point x="158" y="716"/>
      <point x="46" y="518"/>
      <point x="46" y="350" type="curve" smooth="yes"/>
      <point x="46" y="176"/>
      <point x="148" y="-16"/>
    </contour>
    <contour>
      <point x="404" y="25" type="curve" smooth="yes"/>
      <point x="225" y="25"/>
      <point x="144" y="220"/>
      <point x="144" y="368" type="curve" smooth="yes"/>
      <point x="144" y="516"/>
      <point x="226" y="676"/>
      <point x="391" y="676" type="curve" smooth="yes"/>
      <point x="557" y="676"/>
      <point x="650" y="495"/>
      <point x="650" y="331" type="curve" smooth="yes"/>
      <point x="650" y="184"/>
      <point x="568" y="25"/>
    </contour>
  </outline>
</glyph>
<glyph name="R" format="2">
  <advance width="628"/>
  <unicode hex="0052"/>
  <anchor x="334" y="0" name="bottom"/>
  <anchor x="314" y="700" name="top"/>
  <outline>
    <contour>
      <point x="55" y="0" type="line"/>
      <point x="280" y="0" type="line"/>
      <point x="280" y="44" type="line"/>
      <point x="256" y="43"/>
      <point x="232" y="41"/>
      <point x="208" y="40" type="curve"/>
      <point x="210" y="57"/>
      <point x="211" y="83"/>
      <point x="211" y="119" type="curve" smooth="yes"/>
      <point x="211" y="313" type="line"/>
      <point x="234" y="312"/>
      <point x="257" y="311"/>
      <point x="279" y="313" type="curve" smooth="yes"/>
      <point x="307" y="287"/>
      <point x="328" y="246"/>
      <point x="346" y="218" type="curve" smooth="yes"/>
      <point x="413" y="111" type="line" smooth="yes"/>
      <point x="441" y="67"/>
      <point x="463" y="34"/>
      <point x="502" y="0" type="curve"/>
      <point x="628" y="0" type="line"/>
      <point x="628" y="33" type="line"/>
      <point x="565" y="33"/>
      <point x="540" y="74"/>
      <point x="506" y="128" type="curve" smooth="yes"/>
      <point x="438" y="235" type="line" smooth="yes"/>
      <point x="413" y="274"/>
      <point x="395" y="303"/>
      <point x="369" y="322" type="curve"/>
      <point x="521" y="353"/>
      <point x="557" y="444"/>
      <point x="556" y="522" type="curve" smooth="yes"/>
      <point x="556" y="633"/>
      <point x="477" y="698"/>
      <point x="284" y="701" type="curve" smooth="yes"/>
      <point x="207" y="703"/>
      <point x="130" y="701"/>
      <point x="55" y="700" type="curve"/>
      <point x="55" y="656" type="line"/>
      <point x="79" y="657"/>
      <point x="103" y="659"/>
      <point x="127" y="660" type="curve"/>
      <point x="125" y="640"/>
      <point x="124" y="615"/>
      <point x="124" y="588" type="curve" smooth="yes"/>
      <point x="124" y="156" type="line" smooth="yes"/>
      <point x="124" y="85"/>
      <point x="130" y="36"/>
      <point x="55" y="33" type="curve"/>
    </contour>
    <contour>
      <point x="273" y="350" type="curve" smooth="yes"/>
      <point x="250" y="349"/>
      <point x="232" y="350"/>
      <point x="211" y="352" type="curve"/>
      <point x="211" y="544" type="line" smooth="yes"/>
      <point x="211" y="615"/>
      <point x="205" y="663"/>
      <point x="280" y="663" type="curve" smooth="yes"/>
      <point x="403" y="663"/>
      <point x="459" y="612"/>
      <point x="459" y="511" type="curve" smooth="yes"/>
      <point x="459" y="396"/>
      <point x="382" y="354"/>
    </contour>
  </outline>
</glyph>
<glyph name="S" format="2">
  <advance width="567"/>
  <unicode hex="0053"/>
  <anchor x="304" y="0" name="bottom"/>
  <anchor x="272" y="700" name="top"/>
  <outline>
    <contour>
      <point x="448" y="488" type="curve"/>
      <point x="484" y="488" type="line"/>
      <point x="484" y="708" type="line"/>
      <point x="433" y="708" type="line"/>
      <point x="437" y="665" type="line"/>
      <point x="382" y="705"/>
      <point x="314" y="716"/>
      <point x="263" y="716" type="curve" smooth="yes"/>
      <point x="101" y="716"/>
      <point x="60" y="608"/>
      <point x="60" y="540" type="curve" smooth="yes"/>
      <point x="60" y="413"/>
      <point x="169" y="366"/>
      <point x="270" y="320" type="curve" smooth="yes"/>
      <point x="356" y="280"/>
      <point x="437" y="241"/>
      <point x="437" y="151" type="curve" smooth="yes"/>
      <point x="437" y="70"/>
      <point x="371" y="26"/>
      <point x="293" y="26" type="curve" smooth="yes"/>
      <point x="187" y="26"/>
      <point x="104" y="87"/>
      <point x="97" y="205" type="curve"/>
      <point x="58" y="205" type="line"/>
      <point x="64" y="-8" type="line"/>
      <point x="116" y="-8" type="line"/>
      <point x="111" y="35" type="line"/>
      <point x="160" y="1"/>
      <point x="229" y="-16"/>
      <point x="289" y="-16" type="curve" smooth="yes"/>
      <point x="438" y="-16"/>
      <point x="523" y="63"/>
      <point x="523" y="174" type="curve" smooth="yes"/>
      <point x="523" y="302"/>
      <point x="412" y="351"/>
      <point x="310" y="397" type="curve" smooth="yes"/>
      <point x="223" y="437"/>
      <point x="142" y="475"/>
      <point x="142" y="559" type="curve" smooth="yes"/>
      <point x="142" y="622"/>
      <point x="187" y="676"/>
      <point x="270" y="676" type="curve" smooth="yes"/>
      <point x="387" y="676"/>
      <point x="442" y="584"/>
    </contour>
  </outline>
</glyph>
<glyph name="W" format="2">
  <advance width="995"/>
  <unicode hex="0057"/>
  <anchor x="513" y="700" name="top"/>
  <outline>
    <contour>
      <point x="284" y="-10" type="line"/>
      <point x="313" y="-10" type="line"/>
      <point x="456" y="425" type="line"/>
      <point x="467" y="458"/>
      <point x="478" y="492"/>
      <point x="489" y="525" type="curve"/>
      <point x="501" y="491"/>
      <point x="512" y="458"/>
      <point x="524" y="424" type="curve"/>
      <point x="676" y="-10" type="line"/>
      <point x="706" y="-10" type="line"/>
      <point x="769" y="163"/>
      <point x="825" y="338"/>
      <point x="886" y="519" type="curve" smooth="yes"/>
      <point x="928" y="642"/>
      <point x="942" y="659"/>
      <point x="1010" y="667" type="curve"/>
      <point x="1010" y="700" type="line"/>
      <point x="807" y="700" type="line"/>
      <point x="807" y="656" type="line"/>
      <point x="834" y="657"/>
      <point x="860" y="658"/>
      <point x="887" y="659" type="curve"/>
      <point x="874" y="636"/>
      <point x="864" y="608"/>
      <point x="856" y="586" type="curve" smooth="yes"/>
      <point x="835" y="524"/>
      <point x="822" y="472"/>
      <point x="753" y="274" type="curve" smooth="yes"/>
      <point x="738" y="229"/>
      <point x="724" y="184"/>
      <point x="712" y="145" type="curve"/>
      <point x="709" y="145" type="line"/>
      <point x="691" y="208"/>
      <point x="669" y="265"/>
      <point x="651" y="325" type="curve" smooth="yes"/>
      <point x="625" y="406"/>
      <point x="552" y="614"/>
      <point x="527" y="702" type="curve"/>
      <point x="495" y="702" type="line"/>
      <point x="478" y="642"/>
      <point x="418" y="467"/>
      <point x="362" y="289" type="curve" smooth="yes"/>
      <point x="353" y="262"/>
      <point x="334" y="202"/>
      <point x="321" y="157" type="curve"/>
      <point x="319" y="157" type="line"/>
      <point x="299" y="220"/>
      <point x="280" y="265"/>
      <point x="261" y="325" type="curve" smooth="yes"/>
      <point x="235" y="406"/>
      <point x="208" y="470"/>
      <point x="185" y="558" type="curve" smooth="yes"/>
      <point x="163" y="638"/>
      <point x="172" y="663"/>
      <point x="250" y="667" type="curve"/>
      <point x="250" y="700" type="line"/>
      <point x="7" y="700" type="line"/>
      <point x="7" y="656" type="line"/>
      <point x="26" y="657"/>
      <point x="44" y="657"/>
      <point x="63" y="658" type="curve"/>
      <point x="69" y="628"/>
      <point x="82" y="592"/>
      <point x="105" y="522" type="curve" smooth="yes"/>
    </contour>
  </outline>
</glyph>
<glyph name="bracketleft" format="2">
  <advance width="359"/>
  <unicode hex="005B"/>
  <outline>
    <contour>
      <point x="79" y="-255" type="line"/>
      <point x="347" y="-255" type="line"/>
      <point x="347" y="-195" type="line"/>
      <point x="150" y="-192" type="line"/>
      <point x="155" y="692" type="line"/>
      <point x="345" y="695" type="line"/>
      <point x="345" y="755" type="line"/>
      <point x="80" y="755" type="line"/>
    </contour>
  </outline>
</glyph>
<glyph name="c" format="2">
  <advance width="532"/>
  <unicode hex="0063"/>
  <anchor x="342" y="0" name="bottom"/>
  <anchor x="292" y="500" name="top"/>
  <outline>
    <contour>
      <point x="288" y="-16" type="curve" smooth="yes"/>
      <point x="356" y="-16"/>
      <point x="445" y="19"/>
      <point x="498" y="102" type="curve"/>
      <point x="472" y="122" type="line"/>
      <point x="440" y="74"/>
      <point x="377" y="36"/>
      <point x="315" y="36" type="curve" smooth="yes"/>
      <point x="212" y="36"/>
      <point x="143" y="132"/>
      <point x="143" y="266" type="curve" smooth="yes"/>
      <point x="143" y="404"/>
      <point x="213" y="479"/>
      <point x="304" y="479" type="curve" smooth="yes"/>
      <point x="332" y="479"/>
      <point x="392" y="472"/>
      <point x="409" y="425" type="curve"/>
      <point x="397" y="413"/>
      <point x="394" y="398"/>
      <point x="394" y="385" type="curve" smooth="yes"/>
      <point x="394" y="368"/>
      <point x="406" y="339"/>
      <point x="440" y="340" type="curve" smooth="yes"/>
      <point x="470" y="340"/>
      <point x="487" y="364"/>
      <point x="487" y="393" type="curve" smooth="yes"/>
      <point x="487" y="458"/>
      <point x="413" y="516"/>
      <point x="302" y="516" type="curve" smooth="yes"/>
      <point x="147" y="516"/>
      <point x="41" y="379"/>
      <point x="41" y="241" type="curve" smooth="yes"/>
      <point x="41" y="79"/>
      <point x="153" y="-16"/>
    </contour>
  </outline>
</glyph>
<glyph name="e" format="2">
  <advance width="542"/>
  <unicode hex="0065"/>
  <anchor x="325" y="0" name="bottom"/>
  <anchor x="389" y="5" name="ogonek"/>
  <anchor x="280" y="500" name="top"/>
  <outline>
    <contour>
      <point x="286" y="-16" type="curve" smooth="yes"/>
      <point x="354" y="-16"/>
      <point x="448" y="15"/>
      <point x="503" y="98" type="curve"/>
      <point x="479" y="118" type="line"/>
      <point x="445" y="71"/>
      <point x="372" y="35"/>
      <point x="310" y="35" type="curve" smooth="yes"/>
      <point x="193" y="35"/>
      <point x="144" y="136"/>
      <point x="145" y="289" type="curve"/>
      <point x="497" y="295" type="line"/>
      <point x="497" y="444"/>
      <point x="405" y="516"/>
      <point x="294" y="516" type="curve" smooth="yes"/>
      <point x="143" y="516"/>
      <point x="42" y="389"/>
      <point x="42" y="249" type="curve" smooth="yes"/>
      <point x="42" y="87"/>
      <point x="148" y="-16"/>
    </contour>
    <contour>
      <point x="148" y="331" type="line"/>
      <point x="164" y="434"/>
      <point x="217" y="477"/>
      <point x="295" y="477" type="curve" smooth="yes"/>
      <point x="373" y="477"/>
      <point x="403" y="402"/>
      <point x="403" y="331" type="curve"/>
    </contour>
  </outline>
</glyph>
<glyph name="f" format="2">
  <advance width="338"/>
  <unicode hex="0066"/>
  <outline>
    <contour>
      <point x="107" y="521" type="curve" smooth="yes"/>
      <point x="107" y="500" type="line"/>
      <point x="25" y="500" type="line"/>
      <point x="25" y="455" type="line"/>
      <point x="107" y="457" type="line"/>
      <point x="108" y="152" type="line" smooth="yes"/>
      <point x="108" y="80"/>
      <point x="110" y="30"/>
      <point x="49" y="30" type="curve"/>
      <point x="49" y="0" type="line"/>
      <point x="253" y="0" type="line"/>
      <point x="253" y="41" type="line"/>
      <point x="232" y="40"/>
      <point x="211" y="39"/>
      <point x="190" y="38" type="curve"/>
      <point x="194" y="61"/>
      <point x="194" y="79"/>
      <point x="194" y="106" type="curve" smooth="yes"/>
      <point x="193" y="458" type="line"/>
      <point x="328" y="461" type="line"/>
      <point x="328" y="500" type="line"/>
      <point x="193" y="500" type="line"/>
      <point x="193" y="605" type="line" smooth="yes"/>
      <point x="193" y="662"/>
      <point x="210" y="724"/>
      <point x="272" y="724" type="curve" smooth="yes"/>
      <point x="286" y="724"/>
      <point x="305" y="719"/>
      <point x="315" y="707" type="curve"/>
      <point x="311" y="698"/>
      <point x="310" y="690"/>
      <point x="310" y="682" type="curve" smooth="yes"/>
      <point x="310" y="667"/>
      <point x="321" y="640"/>
      <point x="353" y="641" type="curve" smooth="yes"/>
      <point x="379" y="641"/>
      <point x="394" y="661"/>
      <point x="394" y="686" type="curve" smooth="yes"/>
      <point x="394" y="738"/>
      <point x="330" y="760"/>
      <point x="287" y="760" type="curve" smooth="yes"/>
      <point x="155" y="760"/>
      <point x="107" y="669"/>
    </contour>
  </outline>
</glyph>
<glyph name="l" format="2">
  <advance width="272"/>
  <unicode hex="006C"/>
  <anchor x="136" y="0" name="bottom"/>
  <anchor x="136" y="702" name="top"/>
  <anchor x="262" y="500" name="topright"/>
  <outline>
    <contour>
      <point x="34" y="30" type="curve"/>
      <point x="34" y="0" type="line"/>
      <point x="238" y="0" type="line"/>
      <point x="238" y="41" type="line"/>
      <point x="217" y="40"/>
      <point x="196" y="39"/>
      <point x="175" y="38" type="curve"/>
      <point x="179" y="61"/>
      <point x="180" y="79"/>
      <point x="180" y="106" type="curve" smooth="yes"/>
      <point x="179" y="755" type="line"/>
      <point x="150" y="755" type="line"/>
      <point x="135" y="741"/>
      <point x="113" y="728"/>
      <point x="25" y="728" type="curve"/>
      <point x="25" y="686" type="line"/>
      <point x="49" y="687"/>
      <point x="72" y="689"/>
      <point x="96" y="690" type="curve"/>
      <point x="93" y="663"/>
      <point x="93" y="646"/>
      <point x="93" y="625" type="curve" smooth="yes"/>
      <point x="93" y="152" type="line" smooth="yes"/>
      <point x="93" y="80"/>
      <point x="95" y="30"/>
    </contour>
  </outline>
</glyph>
<glyph name="t" format="2">
  <advance width="387"/>
  <unicode hex="0074"/>
  <anchor x="253" y="0" name="bottom"/>
  <anchor x="174" y="250" name="center"/>
  <outline>
    <contour>
      <point x="232" y="-16" type="curve" smooth="yes"/>
      <point x="265" y="-16"/>
      <point x="324" y="-9"/>
      <point x="383" y="79" type="curve"/>
      <point x="356" y="101" type="line"/>
      <point x="330" y="63"/>
      <point x="297" y="41"/>
      <point x="260" y="41" type="curve" smooth="yes"/>
      <point x="205" y="41"/>
      <point x="184" y="90"/>
      <point x="184" y="181" type="curve"/>
      <point x="186" y="459" type="line"/>
      <point x="354" y="461" type="line"/>
      <point x="354" y="500" type="line"/>
      <point x="186" y="500" type="line"/>
      <point x="186" y="640" type="line"/>
      <point x="152" y="640" type="line"/>
      <point x="135" y="563"/>
      <point x="72" y="501"/>
      <point x="21" y="500" type="curve"/>
      <point x="21" y="457" type="line"/>
      <point x="98" y="458" type="line"/>
      <point x="96" y="168" type="line" smooth="yes"/>
      <point x="95" y="8"/>
      <point x="171" y="-16"/>
    </contour>
  </outline>
</glyph>
<glyph name="v" format="2">
  <advance width="505"/>
  <unicode hex="0076"/>
  <outline>
    <contour>
      <point x="234" y="-3" type="line"/>
      <point x="274" y="-3" type="line"/>
      <point x="405" y="335" type="line" smooth="yes"/>
      <point x="440" y="425"/>
      <point x="458" y="470"/>
      <point x="502" y="470" type="curve"/>
      <point x="502" y="500" type="line"/>
      <point x="344" y="500" type="line"/>
      <point x="344" y="459" type="line"/>
      <point x="408" y="462" type="line"/>
      <point x="402" y="450"/>
      <point x="389" y="425"/>
      <point x="378" y="393" type="curve" smooth="yes"/>
      <point x="298" y="174" type="line" smooth="yes"/>
      <point x="291" y="152"/>
      <point x="282" y="129"/>
      <point x="275" y="109" type="curve"/>
      <point x="274" y="109" type="line"/>
      <point x="264" y="135"/>
      <point x="254" y="160"/>
      <point x="244" y="183" type="curve" smooth="yes"/>
      <point x="167" y="359" type="line" smooth="yes"/>
      <point x="142" y="417"/>
      <point x="129" y="470"/>
      <point x="190" y="470" type="curve"/>
      <point x="190" y="500" type="line"/>
      <point x="6" y="500" type="line"/>
      <point x="6" y="459" type="line"/>
      <point x="49" y="462" type="line"/>
      <point x="50" y="439"/>
      <point x="58" y="399"/>
      <point x="91" y="323" type="curve" smooth="yes"/>
    </contour>
  </outline>
</glyph>
<glyph name="w" format="2">
  <advance width="801"/>
  <unicode hex="0077"/>
  <anchor x="400" y="500" name="top"/>
  <outline>
    <contour>
      <point x="216" y="-3" type="line"/>
      <point x="254" y="-3" type="line"/>
      <point x="348" y="270" type="line"/>
      <point x="360" y="305"/>
      <point x="372" y="340"/>
      <point x="384" y="375" type="curve"/>
      <point x="396" y="340"/>
      <point x="408" y="305"/>
      <point x="420" y="270" type="curve"/>
      <point x="515" y="-3" type="line"/>
      <point x="555" y="-3" type="line"/>
      <point x="699" y="391" type="line" smooth="yes"/>
      <point x="716" y="438"/>
      <point x="731" y="466"/>
      <point x="800" y="470" type="curve"/>
      <point x="800" y="500" type="line"/>
      <point x="626" y="500" type="line"/>
      <point x="626" y="459" type="line"/>
      <point x="684" y="462" type="line"/>
      <point x="672" y="447"/>
      <point x="663" y="422"/>
      <point x="654" y="395" type="curve" smooth="yes"/>
      <point x="588" y="205" type="line"/>
      <point x="578" y="176"/>
      <point x="568" y="147"/>
      <point x="558" y="118" type="curve"/>
      <point x="547" y="148"/>
      <point x="537" y="179"/>
      <point x="526" y="209" type="curve"/>
      <point x="425" y="500" type="line"/>
      <point x="384" y="500" type="line"/>
      <point x="295" y="235" type="line"/>
      <point x="283" y="198"/>
      <point x="270" y="161"/>
      <point x="258" y="125" type="curve"/>
      <point x="247" y="157"/>
      <point x="237" y="190"/>
      <point x="226" y="222" type="curve"/>
      <point x="180" y="362" type="line" smooth="yes"/>
      <point x="158" y="426"/>
      <point x="158" y="468"/>
      <point x="218" y="470" type="curve"/>
      <point x="218" y="500" type="line"/>
      <point x="6" y="500" type="line"/>
      <point x="6" y="459" type="line"/>
      <point x="59" y="462" type="line"/>
      <point x="63" y="446"/>
      <point x="70" y="423"/>
      <point x="85" y="381" type="curve" smooth="yes"/>
    </contour>
  </outline>
</glyph>
<glyph name="bar" format="2">
  <advance width="231"/>
  <unicode hex="007C"/>
  <outline>
    <contour>
      <point x="82" y="-271" type="line"/>
      <point x="150" y="-271" type="line"/>
      <point x="154" y="760" type="line"/>
      <point x="79" y="760" type="line"/>
    </contour>
  </outline>
</glyph>
<glyph name="currency" format="2">
  <advance width="535"/>
  <unicode hex="00A4"/>
  <outline>
    <contour>
      <point x="102" y="40" type="line"/>
      <point x="153" y="104" type="line"/>
      <point x="182" y="81"/>
      <point x="221" y="67"/>
      <point x="268" y="67" type="curve" smooth="yes"/>
      <point x="315" y="67"/>
      <point x="354" y="81"/>
      <point x="384" y="105" type="curve"/>
      <point x="435" y="40" type="line"/>
      <point x="475" y="72" type="line"/>
      <point x="416" y="139" type="line"/>
      <point x="440" y="172"/>
      <point x="452" y="212"/>
      <point x="452" y="254" type="curve" smooth="yes"/>
      <point x="452" y="296"/>
      <point x="439" y="339"/>
      <point x="413" y="374" type="curve"/>
      <point x="475" y="444" type="line"/>
      <point x="435" y="477" type="line"/>
      <point x="381" y="409" type="line"/>
      <point x="351" y="433"/>
      <point x="314" y="448"/>
      <point x="268" y="448" type="curve" smooth="yes"/>
      <point x="223" y="448"/>
      <point x="185" y="433"/>
      <point x="156" y="409" type="curve"/>
      <point x="102" y="477" type="line"/>
      <point x="61" y="444" type="line"/>
      <point x="123" y="374" type="line"/>
      <point x="97" y="339"/>
      <point x="84" y="296"/>
      <point x="84" y="254" type="curve" smooth="yes"/>
      <point x="84" y="212"/>
      <point x="96" y="172"/>
      <point x="120" y="139" type="curve"/>
      <point x="61" y="72" type="line"/>
    </contour>
    <contour>
      <point x="268" y="106" type="curve" smooth="yes"/>
      <point x="189" y="106"/>
      <point x="170" y="207"/>
      <point x="170" y="271" type="curve" smooth="yes"/>
      <point x="170" y="321"/>
      <point x="193" y="413"/>
      <point x="268" y="413" type="curve" smooth="yes"/>
      <point x="343" y="413"/>
      <point x="366" y="321"/>
      <point x="366" y="271" type="curve" smooth="yes"/>
      <point x="366" y="207"/>
      <point x="347" y="106"/>
    </contour>
  </outline>
</glyph>
<glyph name="section" format="2">
  <advance width="533"/>
  <unicode hex="00A7"/>
  <outline>
    <contour>
      <point x="261" y="-228" type="curve" smooth="yes"/>
      <point x="403" y="-228"/>
      <point x="449" y="-117"/>
      <point x="449" y="-53" type="curve" smooth="yes"/>
      <point x="449" y="-6"/>
      <point x="433" y="29"/>
      <point x="408" y="58" type="curve"/>
      <point x="463" y="104"/>
      <point x="496" y="168"/>
      <point x="496" y="225" type="curve" smooth="yes"/>
      <point x="496" y="323"/>
      <point x="428" y="381"/>
      <point x="353" y="428" type="curve" smooth="yes"/>
      <point x="259" y="487"/>
      <point x="153" y="529"/>
      <point x="153" y="613" type="curve" smooth="yes"/>
      <point x="153" y="657"/>
      <point x="184" y="722"/>
      <point x="276" y="722" type="curve" smooth="yes"/>
      <point x="327" y="722"/>
      <point x="367" y="697"/>
      <point x="380" y="664" type="curve"/>
      <point x="371" y="656"/>
      <point x="368" y="638"/>
      <point x="368" y="630" type="curve" smooth="yes"/>
      <point x="368" y="615"/>
      <point x="378" y="588"/>
      <point x="410" y="589" type="curve" smooth="yes"/>
      <point x="436" y="590"/>
      <point x="451" y="611"/>
      <point x="451" y="636" type="curve" smooth="yes"/>
      <point x="451" y="696"/>
      <point x="379" y="760"/>
      <point x="272" y="760" type="curve" smooth="yes"/>
      <point x="130" y="760"/>
      <point x="82" y="651"/>
      <point x="84" y="582" type="curve" smooth="yes"/>
      <point x="86" y="535"/>
      <point x="101" y="499"/>
      <point x="126" y="470" type="curve"/>
      <point x="71" y="423"/>
      <point x="38" y="360"/>
      <point x="38" y="304" type="curve" smooth="yes"/>
      <point x="38" y="203"/>
      <point x="110" y="145"/>
      <point x="187" y="97" type="curve" smooth="yes"/>
      <point x="279" y="40"/>
      <point x="380" y="-2"/>
      <point x="380" y="-84" type="curve" smooth="yes"/>
      <point x="380" y="-128"/>
      <point x="349" y="-189"/>
      <point x="257" y="-189" type="curve" smooth="yes"/>
      <point x="205" y="-189"/>
      <point x="160" y="-158"/>
      <point x="157" y="-125" type="curve"/>
      <point x="164" y="-116"/>
      <point x="168" y="-101"/>
      <point x="168" y="-94" type="curve" smooth="yes"/>
      <point x="168" y="-72"/>
      <point x="157" y="-48"/>
      <point x="125" y="-49" type="curve" smooth="yes"/>
      <point x="99" y="-49"/>
      <point x="83" y="-75"/>
      <point x="83" y="-100" type="curve" smooth="yes"/>
      <point x="83" y="-160"/>
      <point x="144" y="-228"/>
    </contour>
    <contour>
      <point x="386" y="81" type="curve"/>
      <point x="289" y="166"/>
      <point x="115" y="197"/>
      <point x="115" y="341" type="curve" smooth="yes"/>
      <point x="115" y="377"/>
      <point x="126" y="417"/>
      <point x="149" y="447" type="curve"/>
      <point x="247" y="362"/>
      <point x="420" y="331"/>
      <point x="420" y="188" type="curve" smooth="yes"/>
      <point x="420" y="151"/>
      <point x="409" y="110"/>
    </contour>
  </outline>
</glyph>
<glyph name="ordfeminine" format="2">
  <advance width="409"/>
  <unicode hex="00AA"/>
  <outline>
    <contour>
      <point x="152" y="380" type="curve" smooth="yes"/>
      <point x="194" y="380"/>
      <point x="226" y="398"/>
      <point x="250" y="425" type="curve"/>
      <point x="255" y="404"/>
      <point x="269" y="382"/>
      <point x="304" y="382" type="curve" smooth="yes"/>
      <point x="328" y="382"/>
      <point x="357" y="399"/>
      <point x="368" y="415" type="curve"/>
      <point x="357" y="434" type="line"/>
      <point x="350" y="428"/>
      <point x="344" y="425"/>
      <point x="339" y="425" type="curve" smooth="yes"/>
      <point x="321" y="425"/>
      <point x="311" y="441"/>
      <point x="311" y="485" type="curve" smooth="yes"/>
      <point x="311" y="522"/>
      <point x="312" y="560"/>
      <point x="312" y="597" type="curve" smooth="yes"/>
      <point x="313" y="680"/>
      <point x="272" y="716"/>
      <point x="200" y="716" type="curve" smooth="yes"/>
      <point x="125" y="716"/>
      <point x="70" y="670"/>
      <point x="70" y="624" type="curve" smooth="yes"/>
      <point x="70" y="605"/>
      <point x="82" y="589"/>
      <point x="102" y="589" type="curve" smooth="yes"/>
      <point x="126" y="588"/>
      <point x="135" y="608"/>
      <point x="135" y="620" type="curve" smooth="yes"/>
      <point x="135" y="630"/>
      <point x="132" y="638"/>
      <point x="126" y="645" type="curve"/>
      <point x="135" y="668"/>
      <point x="164" y="684"/>
      <point x="190" y="683" type="curve" smooth="yes"/>
      <point x="246" y="681"/>
      <point x="250" y="644"/>
      <point x="250" y="604" type="curve" smooth="yes"/>
      <point x="250" y="569" type="line"/>
      <point x="163" y="570"/>
      <point x="54" y="535"/>
      <point x="54" y="455" type="curve" smooth="yes"/>
      <point x="54" y="412"/>
      <point x="87" y="380"/>
    </contour>
    <contour>
      <point x="160" y="423" type="curve" smooth="yes"/>
      <point x="149" y="425"/>
      <point x="127" y="435"/>
      <point x="125" y="461" type="curve" smooth="yes"/>
      <point x="121" y="514"/>
      <point x="188" y="538"/>
      <point x="250" y="538" type="curve"/>
      <point x="249" y="506"/>
      <point x="248" y="475"/>
      <point x="248" y="459" type="curve"/>
      <point x="222" y="434"/>
      <point x="191" y="419"/>
    </contour>
  </outline>
</glyph>
<glyph name="macron" format="2">
  <advance width="355"/>
  <unicode hex="00AF"/>
  <anchor x="178" y="500" name="_top"/>
  <outline>
    <contour>
      <point x="45" y="640" type="line"/>
      <point x="310" y="644" type="line"/>
      <point x="310" y="700" type="line"/>
      <point x="45" y="700" type="line"/>
    </contour>
  </outline>
</glyph>
<glyph name="threesuperior" format="2">
  <advance width="370"/>
  <unicode hex="00B3"/>
  <outline>
    <contour>
      <point x="172" y="305" type="curve" smooth="yes"/>
      <point x="263" y="303"/>
      <point x="317" y="356"/>
      <point x="317" y="423" type="curve" smooth="yes"/>
      <point x="317" y="477"/>
      <point x="282" y="523"/>
      <point x="213" y="530" type="curve"/>
      <point x="269" y="544"/>
      <point x="297" y="586"/>
      <point x="297" y="619" type="curve" smooth="yes"/>
      <point x="297" y="678"/>
      <point x="251" y="716"/>
      <point x="183" y="716" type="curve" smooth="yes"/>
      <point x="104" y="716"/>
      <point x="64" y="661"/>
      <point x="64" y="625" type="curve" smooth="yes"/>
      <point x="64" y="607"/>
      <point x="74" y="592"/>
      <point x="92" y="592" type="curve" smooth="yes"/>
      <point x="114" y="591"/>
      <point x="122" y="610"/>
      <point x="122" y="621" type="curve" smooth="yes"/>
      <point x="122" y="629"/>
      <point x="119" y="638"/>
      <point x="113" y="643" type="curve"/>
      <point x="117" y="663"/>
      <point x="137" y="682"/>
      <point x="169" y="683" type="curve" smooth="yes"/>
      <point x="219" y="685"/>
      <point x="234" y="646"/>
      <point x="234" y="613" type="curve" smooth="yes"/>
      <point x="234" y="592"/>
      <point x="229" y="541"/>
      <point x="151" y="541" type="curve" smooth="yes"/>
      <point x="147" y="541"/>
      <point x="144" y="541"/>
      <point x="140" y="541" type="curve"/>
      <point x="140" y="509" type="line"/>
      <point x="152" y="510"/>
      <point x="162" y="510"/>
      <point x="167" y="510" type="curve" smooth="yes"/>
      <point x="237" y="509"/>
      <point x="250" y="456"/>
      <point x="250" y="423" type="curve" smooth="yes"/>
      <point x="250" y="382"/>
      <point x="224" y="339"/>
      <point x="172" y="339" type="curve" smooth="yes"/>
      <point x="143" y="339"/>
      <point x="112" y="351"/>
      <point x="108" y="377" type="curve"/>
      <point x="113" y="383"/>
      <point x="116" y="392"/>
      <point x="116" y="399" type="curve" smooth="yes"/>
      <point x="116" y="414"/>
      <point x="108" y="432"/>
      <point x="84" y="431" type="curve" smooth="yes"/>
      <point x="65" y="431"/>
      <point x="54" y="413"/>
      <point x="54" y="395" type="curve" smooth="yes"/>
      <point x="54" y="353"/>
      <point x="95" y="307"/>
    </contour>
  </outline>
</glyph>
<glyph name="acute" format="2">
  <advance width="252"/>
  <unicode hex="00B4"/>
  <anchor x="125" y="500" name="_top"/>
  <outline>
    <contour>
      <point x="73" y="580" type="line"/>
      <point x="185" y="686" type="line" smooth="yes"/>
      <point x="221" y="724"/>
      <point x="202" y="750"/>
      <point x="194" y="757" type="curve" smooth="yes"/>
      <point x="189" y="761"/>
      <point x="159" y="781"/>
      <point x="129" y="738" type="curve" smooth="yes"/>
      <point x="45" y="603" type="line"/>
    </contour>
  </outline>
</glyph>
<glyph name="paragraph" format="2">
  <advance width="501"/>
  <unicode hex="00B6"/>
  <outline>
    <contour>
      <point x="172" y="-255" type="line"/>
      <point x="242" y="-255" type="line"/>
      <point x="245" y="656" type="line"/>
      <point x="332" y="659" type="line"/>
      <point x="330" y="-255" type="line"/>
      <point x="400" y="-255" type="line"/>
      <point x="402" y="700" type="line"/>
      <point x="175" y="700" type="line" smooth="yes"/>
      <point x="104" y="700"/>
      <point x="33" y="650"/>
      <point x="33" y="555" type="curve" smooth="yes"/>
      <point x="33" y="452"/>
      <point x="108" y="414"/>
      <point x="174" y="409" type="curve"/>
    </contour>
  </outline>
</glyph>
<glyph name="Eth" format="2">
  <advance width="746"/>
  <unicode hex="00D0"/>
  <outline>
    <contour>
      <point x="19" y="335" type="line"/>
      <point x="393" y="335" type="line"/>
      <point x="393" y="377" type="line"/>
      <point x="19" y="377" type="line"/>
    </contour>
    <component base="D" xOffset="1"/>
  </outline>
</glyph>
<glyph name="multiply" format="2">
  <advance width="530"/>
  <unicode hex="00D7"/>
  <outline>
    <contour>
      <point x="129" y="539" type="line"/>
      <point x="93" y="504" type="line"/>
      <point x="409" y="188" type="line"/>
      <point x="444" y="224" type="line"/>
    </contour>
    <contour>
      <point x="440" y="501" type="line"/>
      <point x="406" y="535" type="line"/>
      <point x="90" y="219" type="line"/>
      <point x="124" y="185" type="line"/>
    </contour>
  </outline>
</glyph>
<glyph name="germandbls" format="2">
  <advance width="681"/>
  <unicode hex="00DF"/>
  <outline>
    <contour>
      <point x="483" y="-16" type="curve" smooth="yes"/>
      <point x="584" y="-16"/>
      <point x="653" y="31"/>
      <point x="653" y="132" type="curve" smooth="yes"/>
      <point x="653" y="215"/>
      <point x="576" y="252"/>
      <point x="506" y="288" type="curve" smooth="yes"/>
      <point x="446" y="318"/>
      <point x="390" y="348"/>
      <point x="390" y="403" type="curve" smooth="yes"/>
      <point x="390" y="493"/>
      <point x="516" y="482"/>
      <point x="576" y="478" type="curve"/>
      <point x="579" y="496"/>
      <point x="581" y="514"/>
      <point x="581" y="532" type="curve" smooth="yes"/>
      <point x="581" y="665"/>
      <point x="491" y="760"/>
      <point x="348" y="760" type="curve" smooth="yes"/>
      <point x="188" y="760"/>
      <point x="107" y="649"/>
      <point x="107" y="500" type="curve"/>
      <point x="25" y="500" type="line"/>
      <point x="25" y="455" type="line"/>
      <point x="107" y="457" type="line"/>
      <point x="108" y="152" type="line" smooth="yes"/>
      <point x="108" y="80"/>
      <point x="110" y="30"/>
      <point x="49" y="30" type="curve"/>
      <point x="49" y="0" type="line"/>
      <point x="253" y="0" type="line"/>
      <point x="253" y="41" type="line"/>
      <point x="232" y="40"/>
      <point x="211" y="39"/>
      <point x="190" y="38" type="curve"/>
      <point x="194" y="61"/>
      <point x="194" y="79"/>
      <point x="194" y="106" type="curve" smooth="yes"/>
      <point x="193" y="458" type="line" smooth="yes"/>
      <point x="193" y="600"/>
      <point x="217" y="715"/>
      <point x="344" y="717" type="curve" smooth="yes"/>
      <point x="396" y="718"/>
      <point x="496" y="709"/>
      <point x="493" y="516" type="curve"/>
      <point x="375" y="519"/>
      <point x="311" y="461"/>
      <point x="311" y="371" type="curve" smooth="yes"/>
      <point x="311" y="280"/>
      <point x="391" y="244"/>
      <point x="462" y="210" type="curve" smooth="yes"/>
      <point x="518" y="183"/>
      <point x="569" y="156"/>
      <point x="569" y="104" type="curve" smooth="yes"/>
      <point x="569" y="51"/>
      <point x="526" y="23"/>
      <point x="481" y="23" type="curve" smooth="yes"/>
      <point x="404" y="23"/>
      <point x="359" y="81"/>
      <point x="354" y="164" type="curve"/>
      <point x="323" y="164" type="line"/>
      <point x="329" y="-8" type="line"/>
      <point x="371" y="-8" type="line"/>
      <point x="368" y="16" type="line"/>
      <point x="403" y="-5"/>
      <point x="454" y="-16"/>
    </contour>
  </outline>
</glyph>
<glyph name="thorn" format="2">
  <advance width="577"/>
  <unicode hex="00FE"/>
  <outline>
    <contour>
      <point x="15" y="-255" type="line"/>
      <point x="219" y="-255" type="line"/>
      <point x="219" y="-214" type="line"/>
      <point x="198" y="-215"/>
      <point x="177" y="-216"/>
      <point x="156" y="-217" type="curve"/>
      <point x="160" y="-194"/>
      <point x="160" y="-176"/>
      <point x="160" y="-149" type="curve" smooth="yes"/>
      <point x="160" y="15" type="line"/>
      <point x="193" y="-6"/>
      <point x="232" y="-16"/>
      <point x="279" y="-16" type="curve" smooth="yes"/>
      <point x="418" y="-16"/>
      <point x="534" y="94"/>
      <point x="534" y="264" type="curve" smooth="yes"/>
      <point x="534" y="419"/>
      <point x="432" y="516"/>
      <point x="311" y="516" type="curve" smooth="yes"/>
      <point x="255" y="516"/>
      <point x="201" y="495"/>
      <point x="160" y="462" type="curve"/>
      <point x="161" y="755" type="line"/>
      <point x="132" y="755" type="line"/>
      <point x="117" y="741"/>
      <point x="97" y="728"/>
      <point x="9" y="728" type="curve"/>
      <point x="9" y="686" type="line"/>
      <point x="33" y="687"/>
      <point x="56" y="689"/>
      <point x="80" y="690" type="curve"/>
      <point x="76" y="667"/>
      <point x="76" y="646"/>
      <point x="76" y="625" type="curve" smooth="yes"/>
      <point x="74" y="-103" type="line" smooth="yes"/>
      <point x="73" y="-175"/>
      <point x="76" y="-225"/>
      <point x="15" y="-225" type="curve"/>
    </contour>
    <contour>
      <point x="277" y="24" type="curve" smooth="yes"/>
      <point x="233" y="24"/>
      <point x="193" y="37"/>
      <point x="160" y="62" type="curve"/>
      <point x="160" y="416" type="line"/>
      <point x="189" y="446"/>
      <point x="231" y="467"/>
      <point x="277" y="467" type="curve" smooth="yes"/>
      <point x="386" y="467"/>
      <point x="431" y="357"/>
      <point x="431" y="249" type="curve" smooth="yes"/>
      <point x="431" y="117"/>
      <point x="372" y="24"/>
    </contour>
  </outline>
</glyph>
<glyph name="dcaron" format="2">
  <advance width="663"/>
  <unicode hex="010F"/>
  <outline>
    <contour>
      <point x="258" y="-16" type="curve" smooth="yes"/>
      <point x="324" y="-16"/>
      <point x="380" y="11"/>
      <point x="418" y="52" type="curve"/>
      <point x="419" y="36"/>
      <point x="421" y="20"/>
      <point x="425" y="0" type="curve"/>
      <point x="568" y="0" type="line"/>
      <point x="568" y="42" type="line"/>
      <point x="544" y="41"/>
      <point x="521" y="39"/>
      <point x="497" y="38" type="curve"/>
      <point x="500" y="65"/>
      <point x="501" y="85"/>
      <point x="501" y="106" type="curve" smooth="yes"/>
      <point x="501" y="755" type="line"/>
      <point x="472" y="755" type="line"/>
      <point x="457" y="741"/>
      <point x="436" y="728"/>
      <point x="348" y="728" type="curve"/>
      <point x="348" y="686" type="line"/>
      <point x="372" y="687"/>
      <point x="395" y="689"/>
      <point x="419" y="690" type="curve"/>
      <point x="416" y="663"/>
      <point x="416" y="646"/>
      <point x="416" y="625" type="curve" smooth="yes"/>
      <point x="416" y="488" type="line"/>
      <point x="390" y="502"/>
      <point x="343" y="516"/>
      <point x="299" y="516" type="curve" smooth="yes"/>
      <point x="150" y="516"/>
      <point x="42" y="399"/>
      <point x="42" y="236" type="curve" smooth="yes"/>
      <point x="42" y="81"/>
      <point x="135" y="-16"/>
    </contour>
    <contour>
      <point x="294" y="33" type="curve" smooth="yes"/>
      <point x="200" y="33"/>
      <point x="149" y="122"/>
      <point x="145" y="245" type="curve" smooth="yes"/>
      <point x="140" y="384"/>
      <point x="205" y="477"/>
      <point x="305" y="477" type="curve" smooth="yes"/>
      <point x="345" y="477"/>
      <point x="384" y="466"/>
      <point x="416" y="442" type="curve"/>
      <point x="415" y="154" type="line" smooth="yes"/>
      <point x="415" y="133"/>
      <point x="415" y="115"/>
      <point x="416" y="99" type="curve"/>
      <point x="386" y="61"/>
      <point x="338" y="33"/>
    </contour>
    <contour>
      <point x="590" y="554" type="line"/>
      <point x="632" y="596"/>
      <point x="667" y="649"/>
      <point x="672" y="702" type="curve" smooth="yes"/>
      <point x="675" y="726"/>
      <point x="672" y="739"/>
      <point x="661" y="762" type="curve"/>
      <point x="592" y="775" type="line"/>
      <point x="607" y="716"/>
      <point x="608" y="658"/>
      <point x="564" y="574" type="curve"/>
    </contour>
  </outline>
</glyph>
<glyph name="Hbar" format="2">
  <advance width="780"/>
  <unicode hex="0126"/>
  <outline>
    <contour>
      <point x="37" y="515" type="line"/>
      <point x="742" y="519" type="line"/>
      <point x="742" y="558" type="line"/>
      <point x="37" y="558" type="line"/>
    </contour>
    <component base="H"/>
  </outline>
</glyph>
<glyph name="lcaron" format="2">
  <advance width="341"/>
  <unicode hex="013E"/>
  <outline>
    <contour>
      <point x="34" y="30" type="curve"/>
      <point x="34" y="0" type="line"/>
      <point x="238" y="0" type="line"/>
      <point x="238" y="41" type="line"/>
      <point x="175" y="38" type="line"/>
      <point x="179" y="61"/>
      <point x="180" y="79"/>
      <point x="180" y="106" type="curve" smooth="yes"/>
      <point x="179" y="755" type="line"/>
      <point x="150" y="755" type="line"/>
      <point x="135" y="741"/>
      <point x="113" y="728"/>
      <point x="25" y="728" type="curve"/>
      <point x="25" y="686" type="line"/>
      <point x="96" y="690" type="line"/>
      <point x="93" y="663"/>
      <point x="93" y="646"/>
      <point x="93" y="625" type="curve" smooth="yes"/>
      <point x="93" y="152" type="line" smooth="yes"/>
      <point x="93" y="80"/>
      <point x="95" y="30"/>
    </contour>
    <contour>
      <point x="267" y="554" type="line"/>
      <point x="310" y="597"/>
      <point x="350" y="656"/>
      <point x="350" y="718" type="curve" smooth="yes"/>
      <point x="350" y="733"/>
      <point x="346" y="745"/>
      <point x="338" y="762" type="curve"/>
      <point x="269" y="775" type="line"/>
      <point x="284" y="716"/>
      <point x="285" y="658"/>
      <point x="241" y="574" type="curve"/>
    </contour>
  </outline>
</glyph>
<glyph name="lslash" format="2">
  <advance width="302"/>
  <unicode hex="0142"/>
  <outline>
    <contour>
      <point x="23" y="230" type="line"/>
      <point x="302" y="432" type="line"/>
      <point x="302" y="489" type="line"/>
      <point x="23" y="289" type="line"/>
    </contour>
    <component base="l" xOffset="20"/>
  </outline>
</glyph>
<glyph name="Eng" format="2">
  <advance width="762"/>
  <unicode hex="014A"/>
  <guideline x="603" y="305" angle="90"/>
  <guideline x="651" y="305" angle="90"/>
  <outline>
    <contour>
      <point x="518" y="-271" type="curve" smooth="yes"/>
      <point x="599" y="-271"/>
      <point x="650" y="-208"/>
      <point x="650" y="-83" type="curve" smooth="yes"/>
      <point x="650" y="97" type="line"/>
      <point x="603" y="97" type="line"/>
      <point x="602" y="-86" type="line" smooth="yes"/>
      <point x="602" y="-142"/>
      <point x="595" y="-186"/>
      <point x="573" y="-208" type="curve" smooth="yes"/>
      <point x="564" y="-218"/>
      <point x="554" y="-225"/>
      <point x="540" y="-225" type="curve" smooth="yes"/>
      <point x="533" y="-225"/>
      <point x="526" y="-223"/>
      <point x="517" y="-219" type="curve"/>
      <point x="518" y="-216"/>
      <point x="518" y="-213"/>
      <point x="518" y="-210" type="curve" smooth="yes"/>
      <point x="518" y="-194"/>
      <point x="507" y="-167"/>
      <point x="474" y="-168" type="curve" smooth="yes"/>
      <point x="447" y="-169"/>
      <point x="431" y="-191"/>
      <point x="431" y="-215" type="curve" smooth="yes"/>
      <point x="431" y="-244"/>
      <point x="465" y="-271"/>
    </contour>
    <component base="N"/>
  </outline>
</glyph>
<glyph name="Tbar" format="2">
  <advance width="640"/>
  <unicode hex="0166"/>
  <outline>
    <contour>
      <point x="152" y="318" type="line"/>
      <point x="508" y="322" type="line"/>
      <point x="508" y="361" type="line"/>
      <point x="152" y="361" type="line"/>
    </contour>
    <component base="T"/>
  </outline>
</glyph>
<glyph name="gstroke" format="2">
  <advance width="575"/>
  <unicode hex="01E5"/>
  <outline>
    <contour>
      <point x="277" y="-95" type="line"/>
      <point x="562" y="-91" type="line"/>
      <point x="562" y="-52" type="line"/>
      <point x="277" y="-52" type="line"/>
    </contour>
    <component base="de-cy.loclBGR"/>
  </outline>
</glyph>
<glyph name="jdotless" format="2">
  <advance width="212"/>
  <unicode hex="0237"/>
  <anchor x="209" y="-255" name="bottom"/>
  <anchor x="133" y="500" name="top"/>
  <outline>
    <contour>
      <point x="-9" y="-271" type="curve" smooth="yes"/>
      <point x="99" y="-271"/>
      <point x="181" y="-190"/>
      <point x="181" y="-3" type="curve" smooth="yes"/>
      <point x="181" y="510" type="line"/>
      <point x="152" y="510" type="line"/>
      <point x="137" y="496"/>
      <point x="115" y="483"/>
      <point x="27" y="483" type="curve"/>
      <point x="27" y="441" type="line"/>
      <point x="51" y="442"/>
      <point x="74" y="444"/>
      <point x="98" y="445" type="curve"/>
      <point x="95" y="418"/>
      <point x="95" y="401"/>
      <point x="95" y="380" type="curve" smooth="yes"/>
      <point x="93" y="-86" type="line" smooth="yes"/>
      <point x="93" y="-153"/>
      <point x="82" y="-225"/>
      <point x="24" y="-225" type="curve" smooth="yes"/>
      <point x="15" y="-225"/>
      <point x="7" y="-223"/>
      <point x="-2" y="-219" type="curve"/>
      <point x="-1" y="-216"/>
      <point x="-1" y="-213"/>
      <point x="-1" y="-210" type="curve" smooth="yes"/>
      <point x="-1" y="-194"/>
      <point x="-12" y="-167"/>
      <point x="-45" y="-168" type="curve" smooth="yes"/>
      <point x="-72" y="-168"/>
      <point x="-88" y="-191"/>
      <point x="-88" y="-215" type="curve" smooth="yes"/>
      <point x="-88" y="-244"/>
      <point x="-64" y="-271"/>
    </contour>
  </outline>
</glyph>
<glyph name="schwa" format="2">
  <advance width="542"/>
  <unicode hex="0259"/>
  <outline>
    <contour>
      <point x="251" y="-16" type="curve" smooth="yes"/>
      <point x="399" y="-16"/>
      <point x="500" y="108"/>
      <point x="500" y="259" type="curve" smooth="yes"/>
      <point x="500" y="410"/>
      <point x="395" y="516"/>
      <point x="268" y="516" type="curve" smooth="yes"/>
      <point x="200" y="516"/>
      <point x="114" y="485"/>
      <point x="59" y="402" type="curve"/>
      <point x="83" y="382" type="line"/>
      <point x="117" y="429"/>
      <point x="182" y="465"/>
      <point x="244" y="465" type="curve" smooth="yes"/>
      <point x="347" y="465"/>
      <point x="398" y="364"/>
      <point x="397" y="211" type="curve"/>
      <point x="45" y="205" type="line"/>
      <point x="45" y="56"/>
      <point x="137" y="-16"/>
    </contour>
    <contour>
      <point x="257" y="23" type="curve" smooth="yes"/>
      <point x="169" y="23"/>
      <point x="139" y="98"/>
      <point x="139" y="169" type="curve"/>
      <point x="394" y="169" type="line"/>
      <point x="378" y="66"/>
      <point x="325" y="23"/>
    </contour>
  </outline>
</glyph>
<glyph name="circumflex" format="2">
  <advance width="400"/>
  <unicode hex="02C6"/>
  <anchor x="200" y="500" name="_top"/>
  <outline>
    <contour>
      <point x="328" y="583" type="line"/>
      <point x="355" y="615" type="line"/>
      <point x="206" y="778" type="line"/>
      <point x="204" y="778" type="line"/>
      <point x="45" y="619" type="line"/>
      <point x="70" y="590" type="line"/>
      <point x="199" y="692" type="line"/>
      <point x="201" y="692" type="line"/>
    </contour>
  </outline>
</glyph>
<glyph name="ogonek" format="2">
  <advance width="315"/>
  <unicode hex="02DB"/>
  <anchor x="257" y="0" name="_ogonek"/>
  <outline>
    <contour>
      <point x="151" y="-259" type="curve" smooth="yes"/>
      <point x="199" y="-259"/>
      <point x="244" y="-228"/>
      <point x="270" y="-196" type="curve"/>
      <point x="253" y="-178" type="line"/>
      <point x="234" y="-194"/>
      <point x="212" y="-206"/>
      <point x="188" y="-206" type="curve" smooth="yes"/>
      <point x="155" y="-206"/>
      <point x="126" y="-179"/>
      <point x="126" y="-137" type="curve" smooth="yes"/>
      <point x="126" y="-71"/>
      <point x="187" y="-25"/>
      <point x="258" y="0" type="curve"/>
      <point x="258" y="26" type="line"/>
      <point x="156" y="-3"/>
      <point x="45" y="-71"/>
      <point x="45" y="-157" type="curve" smooth="yes"/>
      <point x="45" y="-217"/>
      <point x="87" y="-259"/>
    </contour>
  </outline>
</glyph>
<glyph name="tilde" format="2">
  <advance width="406"/>
  <unicode hex="02DC"/>
  <anchor x="203" y="500" name="_top"/>
  <outline>
    <contour>
      <point x="371" y="707" type="curve"/>
      <point x="342" y="722" type="line"/>
      <point x="326" y="693"/>
      <point x="298" y="674"/>
      <point x="269" y="674" type="curve" smooth="yes"/>
      <point x="225" y="674"/>
      <point x="200" y="729"/>
      <point x="137" y="727" type="curve" smooth="yes"/>
      <point x="100" y="726"/>
      <point x="52" y="688"/>
      <point x="35" y="641" type="curve"/>
      <point x="65" y="624" type="line"/>
      <point x="84" y="654"/>
      <point x="114" y="666"/>
      <point x="138" y="666" type="curve" smooth="yes"/>
      <point x="175" y="666"/>
      <point x="207" y="612"/>
      <point x="269" y="612" type="curve" smooth="yes"/>
      <point x="304" y="612"/>
      <point x="349" y="641"/>
    </contour>
  </outline>
</glyph>
<glyph name="hookabovecomb" format="2">
  <unicode hex="0309"/>
  <anchor x="234" y="500" name="_top"/>
  <anchor x="226" y="770" name="top"/>
  <outline>
    <contour>
      <point x="218" y="566" type="curve"/>
      <point x="259" y="566" type="line"/>
      <point x="259" y="577"/>
      <point x="273" y="586"/>
      <point x="289" y="598" type="curve" smooth="yes"/>
      <point x="313" y="617"/>
      <point x="330" y="633"/>
      <point x="330" y="667" type="curve" smooth="yes"/>
      <point x="330" y="707"/>
      <point x="291" y="748"/>
      <point x="221" y="748" type="curve" smooth="yes"/>
      <point x="154" y="748"/>
      <point x="117" y="712"/>
      <point x="117" y="678" type="curve" smooth="yes"/>
      <point x="117" y="651"/>
      <point x="134" y="640"/>
      <point x="150" y="640" type="curve" smooth="yes"/>
      <point x="166" y="640"/>
      <point x="181" y="650"/>
      <point x="181" y="666" type="curve" smooth="yes"/>
      <point x="181" y="672"/>
      <point x="178" y="678"/>
      <point x="175" y="682" type="curve"/>
      <point x="177" y="696"/>
      <point x="198" y="712"/>
      <point x="222" y="712" type="curve" smooth="yes"/>
      <point x="255" y="712"/>
      <point x="275" y="687"/>
      <point x="275" y="660" type="curve" smooth="yes"/>
      <point x="275" y="646"/>
      <point x="269" y="630"/>
      <point x="256" y="619" type="curve" smooth="yes"/>
      <point x="239" y="604"/>
      <point x="218" y="590"/>
    </contour>
  </outline>
</glyph>
<glyph name="commaaccentcomb" format="2">
  <unicode hex="0326"/>
  <anchor x="157" y="0" name="_bottom"/>
  <outline>
    <contour>
      <point x="120" y="-259" type="line"/>
      <point x="170" y="-209"/>
      <point x="201" y="-155"/>
      <point x="201" y="-104" type="curve" smooth="yes"/>
      <point x="201" y="-82"/>
      <point x="196" y="-61"/>
      <point x="185" y="-40" type="curve"/>
      <point x="116" y="-60" type="line"/>
      <point x="134" y="-116"/>
      <point x="137" y="-160"/>
      <point x="94" y="-240" type="curve"/>
    </contour>
  </outline>
</glyph>
<glyph name="mu" format="2">
  <advance width="614"/>
  <unicode hex="03BC"/>
  <outline>
    <contour>
      <point x="146" y="-260" type="curve" smooth="yes"/>
      <point x="176" y="-260"/>
      <point x="191" y="-231"/>
      <point x="191" y="-206" type="curve" smooth="yes"/>
      <point x="191" y="-159"/>
      <point x="161" y="-149"/>
      <point x="141" y="64" type="curve"/>
      <point x="143" y="65" type="line"/>
      <point x="169" y="15"/>
      <point x="207" y="-16"/>
      <point x="256" y="-16" type="curve" smooth="yes"/>
      <point x="313" y="-16"/>
      <point x="373" y="17"/>
      <point x="411" y="56" type="curve"/>
      <point x="418" y="24"/>
      <point x="438" y="-6"/>
      <point x="487" y="-6" type="curve" smooth="yes"/>
      <point x="533" y="-6"/>
      <point x="571" y="26"/>
      <point x="588" y="50" type="curve"/>
      <point x="577" y="65" type="line"/>
      <point x="559" y="52"/>
      <point x="547" y="48"/>
      <point x="535" y="48" type="curve" smooth="yes"/>
      <point x="507" y="48"/>
      <point x="490" y="72"/>
      <point x="490" y="141" type="curve" smooth="yes"/>
      <point x="491" y="500" type="line"/>
      <point x="406" y="500" type="line"/>
      <point x="406" y="106" type="line"/>
      <point x="380" y="67"/>
      <point x="335" y="35"/>
      <point x="286" y="35" type="curve" smooth="yes"/>
      <point x="199" y="35"/>
      <point x="179" y="122"/>
      <point x="179" y="236" type="curve" smooth="yes"/>
      <point x="179" y="500" type="line"/>
      <point x="95" y="500" type="line"/>
      <point x="94" y="-173" type="line" smooth="yes"/>
      <point x="94" y="-227"/>
      <point x="108" y="-260"/>
    </contour>
  </outline>
</glyph>
<glyph name="Dje-cy" format="2">
  <advance width="767"/>
  <unicode hex="0402"/>
  <outline>
    <contour>
      <point x="569" y="-16" type="curve" smooth="yes"/>
      <point x="653" y="-16"/>
      <point x="725" y="51"/>
      <point x="725" y="220" type="curve" smooth="yes"/>
      <point x="725" y="346"/>
      <point x="661" y="427"/>
      <point x="519" y="427" type="curve" smooth="yes"/>
      <point x="467" y="427"/>
      <point x="406" y="416"/>
      <point x="364" y="399" type="curve"/>
      <point x="364" y="664" type="line"/>
      <point x="449" y="664" type="line" smooth="yes"/>
      <point x="552" y="665"/>
      <point x="577" y="607"/>
      <point x="579" y="489" type="curve"/>
      <point x="617" y="489" type="line"/>
      <point x="611" y="700" type="line"/>
      <point x="28" y="700" type="line"/>
      <point x="22" y="489" type="line"/>
      <point x="59" y="489" type="line"/>
      <point x="59" y="607"/>
      <point x="90" y="662"/>
      <point x="174" y="662" type="curve" smooth="yes"/>
      <point x="277" y="663" type="line"/>
      <point x="276" y="156" type="line" smooth="yes"/>
      <point x="276" y="88"/>
      <point x="283" y="36"/>
      <point x="208" y="33" type="curve"/>
      <point x="208" y="0" type="line"/>
      <point x="418" y="0" type="line"/>
      <point x="418" y="44" type="line"/>
      <point x="360" y="40" type="line"/>
      <point x="362" y="57"/>
      <point x="363" y="83"/>
      <point x="363" y="119" type="curve" smooth="yes"/>
      <point x="363" y="354" type="line"/>
      <point x="398" y="369"/>
      <point x="446" y="379"/>
      <point x="489" y="379" type="curve" smooth="yes"/>
      <point x="589" y="379"/>
      <point x="645" y="331"/>
      <point x="642" y="217" type="curve" smooth="yes"/>
      <point x="638" y="71"/>
      <point x="597" y="21"/>
      <point x="541" y="21" type="curve" smooth="yes"/>
      <point x="527" y="21"/>
      <point x="505" y="25"/>
      <point x="484" y="31" type="curve"/>
      <point x="474" y="0" type="line"/>
      <point x="507" y="-11"/>
      <point x="539" y="-16"/>
    </contour>
  </outline>
</glyph>
<glyph name="E-cy" format="2">
  <advance width="699"/>
  <unicode hex="0404"/>
  <outline>
    <contour>
      <point x="386" y="-16" type="curve" smooth="yes"/>
      <point x="468" y="-16"/>
      <point x="583" y="11"/>
      <point x="669" y="130" type="curve"/>
      <point x="643" y="151" type="line"/>
      <point x="589" y="76"/>
      <point x="499" y="36"/>
      <point x="412" y="36" type="curve" smooth="yes"/>
      <point x="264" y="36"/>
      <point x="144" y="165"/>
      <point x="144" y="354" type="curve" smooth="yes"/>
      <point x="144" y="550"/>
      <point x="258" y="676"/>
      <point x="400" y="676" type="curve" smooth="yes"/>
      <point x="516" y="676"/>
      <point x="594" y="602"/>
      <point x="608" y="477" type="curve"/>
      <point x="644" y="477" type="line"/>
      <point x="644" y="709" type="line"/>
      <point x="590" y="709" type="line"/>
      <point x="595" y="655" type="line"/>
      <point x="533" y="696"/>
      <point x="468" y="716"/>
      <point x="393" y="716" type="curve" smooth="yes"/>
      <point x="160" y="716"/>
      <point x="46" y="527"/>
      <point x="46" y="339" type="curve" smooth="yes"/>
      <point x="46" y="140"/>
      <point x="185" y="-16"/>
    </contour>
    <contour>
      <point x="485" y="259" type="curve"/>
      <point x="518" y="259" type="line"/>
      <point x="518" y="469" type="line"/>
      <point x="474" y="469" type="line"/>
      <point x="476" y="440"/>
      <point x="479" y="412"/>
      <point x="481" y="383" type="curve"/>
      <point x="116" y="384" type="line"/>
      <point x="116" y="344" type="line"/>
      <point x="366" y="347" type="line" smooth="yes"/>
      <point x="451" y="348"/>
      <point x="485" y="347"/>
    </contour>
  </outline>
</glyph>
<glyph name="Lje-cy" format="2">
  <advance width="950"/>
  <unicode hex="0409"/>
  <outline>
    <contour>
      <point x="94" y="-16" type="curve" smooth="yes"/>
      <point x="249" y="-16"/>
      <point x="287" y="290"/>
      <point x="287" y="582" type="curve" smooth="yes"/>
      <point x="289" y="632"/>
      <point x="296" y="660"/>
      <point x="339" y="660" type="curve" smooth="yes"/>
      <point x="484" y="660" type="line"/>
      <point x="484" y="156" type="line" smooth="yes"/>
      <point x="484" y="83"/>
      <point x="488" y="35"/>
      <point x="415" y="33" type="curve"/>
      <point x="415" y="0" type="line"/>
      <point x="683" y="0" type="line" smooth="yes"/>
      <point x="818" y="0"/>
      <point x="918" y="73"/>
      <point x="918" y="213" type="curve" smooth="yes"/>
      <point x="918" y="331"/>
      <point x="847" y="419"/>
      <point x="627" y="410" type="curve" smooth="yes"/>
      <point x="571" y="407" type="line"/>
      <point x="571" y="544" type="line" smooth="yes"/>
      <point x="571" y="615"/>
      <point x="566" y="664"/>
      <point x="640" y="667" type="curve"/>
      <point x="640" y="700" type="line"/>
      <point x="145" y="700" type="line"/>
      <point x="145" y="656" type="line"/>
      <point x="218" y="660" type="line"/>
      <point x="239" y="660" type="line"/>
      <point x="239" y="531" type="line" smooth="yes"/>
      <point x="239" y="217"/>
      <point x="162" y="25"/>
      <point x="107" y="25" type="curve" smooth="yes"/>
      <point x="100" y="25"/>
      <point x="96" y="27"/>
      <point x="90" y="33" type="curve"/>
      <point x="98" y="41"/>
      <point x="99" y="47"/>
      <point x="99" y="60" type="curve" smooth="yes"/>
      <point x="99" y="80"/>
      <point x="84" y="106"/>
      <point x="51" y="104" type="curve" smooth="yes"/>
      <point x="22" y="103"/>
      <point x="7" y="79"/>
      <point x="7" y="52" type="curve" smooth="yes"/>
      <point x="7" y="8"/>
      <point x="46" y="-16"/>
    </contour>
    <contour>
      <point x="568" y="40" type="curve" smooth="yes"/>
      <point x="570" y="57"/>
      <point x="571" y="82"/>
      <point x="571" y="118" type="curve" smooth="yes"/>
      <point x="571" y="369" type="line"/>
      <point x="603" y="371"/>
      <point x="610" y="372"/>
      <point x="649" y="372" type="curve" smooth="yes"/>
      <point x="741" y="372"/>
      <point x="822" y="336"/>
      <point x="822" y="209" type="curve" smooth="yes"/>
      <point x="822" y="90"/>
      <point x="752" y="38"/>
      <point x="649" y="38" type="curve" smooth="yes"/>
      <point x="637" y="38"/>
      <point x="599" y="37"/>
    </contour>
  </outline>
</glyph>
<glyph name="Tshe-cy" format="2">
  <advance width="790"/>
  <unicode hex="040B"/>
  <outline>
    <contour>
      <point x="178" y="0" type="line"/>
      <point x="413" y="0" type="line"/>
      <point x="413" y="44" type="line"/>
      <point x="385" y="43"/>
      <point x="358" y="41"/>
      <point x="330" y="40" type="curve"/>
      <point x="332" y="57"/>
      <point x="333" y="83"/>
      <point x="333" y="119" type="curve" smooth="yes"/>
      <point x="333" y="351" type="line"/>
      <point x="364" y="366"/>
      <point x="402" y="375"/>
      <point x="446" y="376" type="curve" smooth="yes"/>
      <point x="556" y="377"/>
      <point x="601" y="317"/>
      <point x="602" y="250" type="curve" smooth="yes"/>
      <point x="601" y="90"/>
      <point x="612" y="36"/>
      <point x="533" y="33" type="curve"/>
      <point x="533" y="0" type="line"/>
      <point x="758" y="0" type="line"/>
      <point x="758" y="44" type="line"/>
      <point x="734" y="43"/>
      <point x="710" y="41"/>
      <point x="686" y="40" type="curve"/>
      <point x="689" y="62"/>
      <point x="689" y="90"/>
      <point x="689" y="227" type="curve" smooth="yes"/>
      <point x="689" y="355"/>
      <point x="627" y="427"/>
      <point x="483" y="427" type="curve" smooth="yes"/>
      <point x="427" y="427"/>
      <point x="374" y="416"/>
      <point x="334" y="399" type="curve"/>
      <point x="334" y="664" type="line"/>
      <point x="449" y="664" type="line" smooth="yes"/>
      <point x="552" y="664"/>
      <point x="577" y="607"/>
      <point x="579" y="489" type="curve"/>
      <point x="617" y="489" type="line"/>
      <point x="611" y="700" type="line"/>
      <point x="28" y="700" type="line"/>
      <point x="22" y="489" type="line"/>
      <point x="59" y="489" type="line"/>
      <point x="59" y="607"/>
      <point x="90" y="661"/>
      <point x="174" y="662" type="curve" smooth="yes"/>
      <point x="247" y="663" type="line"/>
      <point x="246" y="156" type="line" smooth="yes"/>
      <point x="246" y="88"/>
      <point x="253" y="36"/>
      <point x="178" y="33" type="curve"/>
    </contour>
  </outline>
</glyph>
<glyph name="Ze-cy" format="2">
  <advance width="613"/>
  <unicode hex="0417"/>
  <anchor x="314" y="0" name="bottom"/>
  <anchor x="306" y="700" name="top"/>
  <outline>
    <contour>
      <point x="313" y="-16" type="curve" smooth="yes"/>
      <point x="445" y="-16"/>
      <point x="574" y="57"/>
      <point x="574" y="201" type="curve" smooth="yes"/>
      <point x="574" y="294"/>
      <point x="506" y="367"/>
      <point x="372" y="374" type="curve"/>
      <point x="372" y="377" type="line"/>
      <point x="481" y="397"/>
      <point x="536" y="466"/>
      <point x="537" y="545" type="curve" smooth="yes"/>
      <point x="539" y="650"/>
      <point x="453" y="716"/>
      <point x="324" y="716" type="curve" smooth="yes"/>
      <point x="247" y="716"/>
      <point x="196" y="697"/>
      <point x="138" y="655" type="curve"/>
      <point x="143" y="709" type="line"/>
      <point x="89" y="709" type="line"/>
      <point x="89" y="487" type="line"/>
      <point x="125" y="487" type="line"/>
      <point x="155" y="613"/>
      <point x="210" y="675"/>
      <point x="321" y="675" type="curve" smooth="yes"/>
      <point x="390" y="675"/>
      <point x="445" y="637"/>
      <point x="445" y="539" type="curve" smooth="yes"/>
      <point x="445" y="462"/>
      <point x="409" y="391"/>
      <point x="296" y="389" type="curve" smooth="yes"/>
      <point x="211" y="389" type="line"/>
      <point x="211" y="347" type="line"/>
      <point x="289" y="348" type="line"/>
      <point x="415" y="345"/>
      <point x="475" y="298"/>
      <point x="475" y="202" type="curve" smooth="yes"/>
      <point x="475" y="89"/>
      <point x="390" y="32"/>
      <point x="291" y="32" type="curve" smooth="yes"/>
      <point x="205" y="32"/>
      <point x="120" y="76"/>
      <point x="66" y="151" type="curve"/>
      <point x="40" y="130" type="line"/>
      <point x="111" y="31"/>
      <point x="206" y="-16"/>
    </contour>
  </outline>
</glyph>
<glyph name="Pe-cy" format="2">
  <advance width="761"/>
  <unicode hex="041F"/>
  <anchor x="638" y="2" name="bottomright"/>
  <outline>
    <contour>
      <point x="55" y="0" type="line"/>
      <point x="280" y="0" type="line"/>
      <point x="280" y="44" type="line"/>
      <point x="256" y="43"/>
      <point x="232" y="41"/>
      <point x="208" y="40" type="curve"/>
      <point x="210" y="57"/>
      <point x="211" y="83"/>
      <point x="211" y="119" type="curve" smooth="yes"/>
      <point x="211" y="575" type="line" smooth="yes"/>
      <point x="212" y="623"/>
      <point x="221" y="655"/>
      <point x="280" y="657" type="curve" smooth="yes"/>
      <point x="550" y="661" type="line"/>
      <point x="550" y="156" type="line" smooth="yes"/>
      <point x="550" y="85"/>
      <point x="556" y="36"/>
      <point x="480" y="33" type="curve"/>
      <point x="480" y="0" type="line"/>
      <point x="706" y="0" type="line"/>
      <point x="706" y="44" type="line"/>
      <point x="682" y="43"/>
      <point x="658" y="41"/>
      <point x="634" y="40" type="curve"/>
      <point x="636" y="57"/>
      <point x="637" y="83"/>
      <point x="637" y="119" type="curve" smooth="yes"/>
      <point x="637" y="544" type="line" smooth="yes"/>
      <point x="637" y="615"/>
      <point x="631" y="664"/>
      <point x="706" y="667" type="curve"/>
      <point x="706" y="700" type="line"/>
      <point x="55" y="700" type="line"/>
      <point x="55" y="656" type="line"/>
      <point x="79" y="657"/>
      <point x="103" y="659"/>
      <point x="127" y="660" type="curve"/>
      <point x="125" y="640"/>
      <point x="124" y="615"/>
      <point x="124" y="588" type="curve" smooth="yes"/>
      <point x="124" y="156" type="line" smooth="yes"/>
      <point x="124" y="85"/>
      <point x="130" y="36"/>
      <point x="55" y="33" type="curve"/>
    </contour>
  </outline>
</glyph>
<glyph name="Ef-cy" format="2">
  <advance width="819"/>
  <unicode hex="0424"/>
  <outline>
    <contour>
      <point x="294" y="-49" type="line"/>
      <point x="519" y="-49" type="line"/>
      <point x="519" y="-5" type="line"/>
      <point x="446" y="-9" type="line"/>
      <point x="449" y="6"/>
      <point x="450" y="40"/>
      <point x="450" y="73" type="curve"/>
      <point x="674" y="83"/>
      <point x="775" y="191"/>
      <point x="775" y="350" type="curve" smooth="yes"/>
      <point x="775" y="522"/>
      <point x="660" y="633"/>
      <point x="450" y="647" type="curve"/>
      <point x="451" y="693"/>
      <point x="460" y="724"/>
      <point x="519" y="726" type="curve"/>
      <point x="519" y="759" type="line"/>
      <point x="294" y="759" type="line"/>
      <point x="294" y="715" type="line"/>
      <point x="367" y="719" type="line"/>
      <point x="364" y="699"/>
      <point x="363" y="674"/>
      <point x="363" y="647" type="curve"/>
      <point x="145" y="633"/>
      <point x="46" y="509"/>
      <point x="46" y="335" type="curve" smooth="yes"/>
      <point x="46" y="181"/>
      <point x="158" y="87"/>
      <point x="363" y="74" type="curve"/>
      <point x="362" y="24"/>
      <point x="352" y="-14"/>
      <point x="294" y="-16" type="curve"/>
    </contour>
    <contour>
      <point x="363" y="115" type="line"/>
      <point x="220" y="129"/>
      <point x="144" y="201"/>
      <point x="144" y="354" type="curve" smooth="yes"/>
      <point x="144" y="506"/>
      <point x="221" y="592"/>
      <point x="363" y="606" type="curve"/>
    </contour>
    <contour>
      <point x="450" y="113" type="curve"/>
      <point x="450" y="605" type="line"/>
      <point x="598" y="591"/>
      <point x="677" y="504"/>
      <point x="677" y="332" type="curve" smooth="yes"/>
      <point x="677" y="193"/>
      <point x="597" y="122"/>
    </contour>
  </outline>
</glyph>
<glyph name="Tse-cy" format="2">
  <advance width="750"/>
  <unicode hex="0426"/>
  <outline>
    <contour>
      <point x="675" y="-178" type="curve"/>
      <point x="716" y="-178" type="line"/>
      <point x="716" y="45" type="line"/>
      <point x="624" y="40" type="line"/>
      <point x="626" y="60"/>
      <point x="627" y="85"/>
      <point x="627" y="112" type="curve" smooth="yes"/>
      <point x="627" y="544" type="line" smooth="yes"/>
      <point x="627" y="615"/>
      <point x="621" y="664"/>
      <point x="696" y="667" type="curve"/>
      <point x="696" y="700" type="line"/>
      <point x="471" y="700" type="line"/>
      <point x="471" y="656" type="line"/>
      <point x="495" y="657"/>
      <point x="519" y="659"/>
      <point x="543" y="660" type="curve"/>
      <point x="541" y="643"/>
      <point x="540" y="617"/>
      <point x="540" y="581" type="curve" smooth="yes"/>
      <point x="540" y="123" type="line" smooth="yes"/>
      <point x="539" y="76"/>
      <point x="530" y="45"/>
      <point x="475" y="43" type="curve" smooth="yes"/>
      <point x="211" y="40" type="line"/>
      <point x="211" y="544" type="line" smooth="yes"/>
      <point x="211" y="615"/>
      <point x="205" y="664"/>
      <point x="280" y="667" type="curve"/>
      <point x="280" y="700" type="line"/>
      <point x="55" y="700" type="line"/>
      <point x="55" y="656" type="line"/>
      <point x="79" y="657"/>
      <point x="103" y="659"/>
      <point x="127" y="660" type="curve"/>
      <point x="125" y="643"/>
      <point x="124" y="617"/>
      <point x="124" y="581" type="curve" smooth="yes"/>
      <point x="124" y="156" type="line" smooth="yes"/>
      <point x="124" y="85"/>
      <point x="130" y="36"/>
      <point x="55" y="33" type="curve"/>
      <point x="55" y="0" type="line"/>
      <point x="595" y="0" type="line" smooth="yes"/>
      <point x="661" y="0"/>
      <point x="675" y="-78"/>
    </contour>
  </outline>
</glyph>
<glyph name="Sha-cy" format="2">
  <advance width="1005"/>
  <unicode hex="0428"/>
  <outline>
    <contour>
      <point x="55" y="0" type="line"/>
      <point x="950" y="0" type="line"/>
      <point x="950" y="44" type="line"/>
      <point x="926" y="43"/>
      <point x="901" y="41"/>
      <point x="877" y="40" type="curve"/>
      <point x="880" y="60"/>
      <point x="881" y="85"/>
      <point x="881" y="112" type="curve" smooth="yes"/>
      <point x="881" y="544" type="line" smooth="yes"/>
      <point x="881" y="615"/>
      <point x="875" y="664"/>
      <point x="950" y="667" type="curve"/>
      <point x="950" y="700" type="line"/>
      <point x="734" y="700" type="line"/>
      <point x="734" y="656" type="line"/>
      <point x="755" y="657"/>
      <point x="776" y="659"/>
      <point x="797" y="660" type="curve"/>
      <point x="794" y="643"/>
      <point x="793" y="617"/>
      <point x="793" y="581" type="curve" smooth="yes"/>
      <point x="793" y="124" type="line" smooth="yes"/>
      <point x="792" y="77"/>
      <point x="783" y="46"/>
      <point x="728" y="43" type="curve"/>
      <point x="543" y="42" type="line"/>
      <point x="545" y="65"/>
      <point x="546" y="87"/>
      <point x="546" y="112" type="curve" smooth="yes"/>
      <point x="546" y="544" type="line" smooth="yes"/>
      <point x="546" y="615"/>
      <point x="540" y="664"/>
      <point x="615" y="667" type="curve"/>
      <point x="615" y="700" type="line"/>
      <point x="399" y="700" type="line"/>
      <point x="399" y="656" type="line"/>
      <point x="420" y="657"/>
      <point x="441" y="659"/>
      <point x="462" y="660" type="curve"/>
      <point x="459" y="643"/>
      <point x="458" y="617"/>
      <point x="458" y="581" type="curve" smooth="yes"/>
      <point x="458" y="122" type="line" smooth="yes"/>
      <point x="457" y="75"/>
      <point x="448" y="44"/>
      <point x="393" y="41" type="curve"/>
      <point x="211" y="40" type="line"/>
      <point x="211" y="544" type="line" smooth="yes"/>
      <point x="211" y="615"/>
      <point x="205" y="664"/>
      <point x="280" y="667" type="curve"/>
      <point x="280" y="700" type="line"/>
      <point x="55" y="700" type="line"/>
      <point x="55" y="656" type="line"/>
      <point x="79" y="657"/>
      <point x="103" y="659"/>
      <point x="127" y="660" type="curve"/>
      <point x="125" y="643"/>
      <point x="124" y="617"/>
      <point x="124" y="581" type="curve" smooth="yes"/>
      <point x="124" y="156" type="line" smooth="yes"/>
      <point x="124" y="85"/>
      <point x="130" y="36"/>
      <point x="55" y="33" type="curve"/>
    </contour>
  </outline>
</glyph>
<glyph name="Shcha-cy" format="2">
  <advance width="1001"/>
  <unicode hex="0429"/>
  <outline>
    <contour>
      <point x="926" y="-178" type="curve"/>
      <point x="967" y="-178" type="line"/>
      <point x="967" y="45" type="line"/>
      <point x="875" y="40" type="line"/>
      <point x="878" y="60"/>
      <point x="879" y="85"/>
      <point x="879" y="112" type="curve" smooth="yes"/>
      <point x="879" y="544" type="line" smooth="yes"/>
      <point x="879" y="615"/>
      <point x="873" y="664"/>
      <point x="948" y="667" type="curve"/>
      <point x="948" y="700" type="line"/>
      <point x="733" y="700" type="line"/>
      <point x="733" y="656" type="line"/>
      <point x="754" y="657"/>
      <point x="775" y="659"/>
      <point x="796" y="660" type="curve"/>
      <point x="793" y="643"/>
      <point x="792" y="617"/>
      <point x="792" y="581" type="curve" smooth="yes"/>
      <point x="792" y="124" type="line" smooth="yes"/>
      <point x="791" y="77"/>
      <point x="782" y="46"/>
      <point x="727" y="43" type="curve"/>
      <point x="542" y="42" type="line"/>
      <point x="544" y="65"/>
      <point x="545" y="87"/>
      <point x="545" y="112" type="curve" smooth="yes"/>
      <point x="545" y="544" type="line" smooth="yes"/>
      <point x="545" y="615"/>
      <point x="539" y="664"/>
      <point x="614" y="667" type="curve"/>
      <point x="614" y="700" type="line"/>
      <point x="399" y="700" type="line"/>
      <point x="399" y="656" type="line"/>
      <point x="420" y="657"/>
      <point x="441" y="659"/>
      <point x="462" y="660" type="curve"/>
      <point x="459" y="643"/>
      <point x="458" y="617"/>
      <point x="458" y="581" type="curve" smooth="yes"/>
      <point x="458" y="122" type="line" smooth="yes"/>
      <point x="457" y="75"/>
      <point x="448" y="44"/>
      <point x="393" y="41" type="curve"/>
      <point x="211" y="40" type="line"/>
      <point x="211" y="544" type="line" smooth="yes"/>
      <point x="211" y="615"/>
      <point x="205" y="664"/>
      <point x="280" y="667" type="curve"/>
      <point x="280" y="700" type="line"/>
      <point x="55" y="700" type="line"/>
      <point x="55" y="656" type="line"/>
      <point x="79" y="657"/>
      <point x="103" y="659"/>
      <point x="127" y="660" type="curve"/>
      <point x="125" y="643"/>
      <point x="124" y="617"/>
      <point x="124" y="581" type="curve" smooth="yes"/>
      <point x="124" y="156" type="line" smooth="yes"/>
      <point x="124" y="85"/>
      <point x="130" y="36"/>
      <point x="55" y="33" type="curve"/>
      <point x="55" y="0" type="line"/>
      <point x="846" y="0" type="line" smooth="yes"/>
      <point x="912" y="0"/>
      <point x="926" y="-78"/>
    </contour>
  </outline>
</glyph>
<glyph name="Yeru-cy" format="2">
  <advance width="899"/>
  <unicode hex="042B"/>
  <anchor x="449" y="700" name="top"/>
  <outline>
    <contour>
      <point x="55" y="0" type="line"/>
      <point x="347" y="0" type="line" smooth="yes"/>
      <point x="468" y="0"/>
      <point x="568" y="73"/>
      <point x="568" y="213" type="curve" smooth="yes"/>
      <point x="568" y="331"/>
      <point x="497" y="416"/>
      <point x="292" y="410" type="curve" smooth="yes"/>
      <point x="211" y="407" type="line"/>
      <point x="211" y="544" type="line" smooth="yes"/>
      <point x="211" y="615"/>
      <point x="205" y="664"/>
      <point x="280" y="667" type="curve"/>
      <point x="280" y="700" type="line"/>
      <point x="55" y="700" type="line"/>
      <point x="55" y="656" type="line"/>
      <point x="79" y="657"/>
      <point x="103" y="659"/>
      <point x="127" y="660" type="curve"/>
      <point x="125" y="640"/>
      <point x="124" y="615"/>
      <point x="124" y="588" type="curve" smooth="yes"/>
      <point x="124" y="156" type="line" smooth="yes"/>
      <point x="124" y="84"/>
      <point x="129" y="35"/>
      <point x="55" y="33" type="curve"/>
    </contour>
    <contour>
      <point x="208" y="40" type="curve"/>
      <point x="211" y="67"/>
      <point x="211" y="110"/>
      <point x="211" y="369" type="curve"/>
      <point x="243" y="371"/>
      <point x="274" y="372"/>
      <point x="314" y="372" type="curve" smooth="yes"/>
      <point x="391" y="372"/>
      <point x="472" y="336"/>
      <point x="472" y="209" type="curve" smooth="yes"/>
      <point x="472" y="90"/>
      <point x="402" y="38"/>
      <point x="314" y="38" type="curve" smooth="yes"/>
      <point x="301" y="38"/>
      <point x="239" y="37"/>
    </contour>
    <contour>
      <point x="619" y="0" type="line"/>
      <point x="844" y="0" type="line"/>
      <point x="844" y="44" type="line"/>
      <point x="820" y="43"/>
      <point x="795" y="41"/>
      <point x="771" y="40" type="curve"/>
      <point x="774" y="57"/>
      <point x="775" y="83"/>
      <point x="775" y="119" type="curve" smooth="yes"/>
      <point x="775" y="544" type="line" smooth="yes"/>
      <point x="775" y="615"/>
      <point x="769" y="664"/>
      <point x="844" y="667" type="curve"/>
      <point x="844" y="700" type="line"/>
      <point x="619" y="700" type="line"/>
      <point x="619" y="656" type="line"/>
      <point x="643" y="657"/>
      <point x="667" y="659"/>
      <point x="691" y="660" type="curve"/>
      <point x="688" y="640"/>
      <point x="688" y="615"/>
      <point x="688" y="588" type="curve" smooth="yes"/>
      <point x="688" y="156" type="line" smooth="yes"/>
      <point x="688" y="85"/>
      <point x="694" y="36"/>
      <point x="619" y="33" type="curve"/>
    </contour>
  </outline>
</glyph>
<glyph name="Ereversed-cy" format="2">
  <advance width="697"/>
  <unicode hex="042D"/>
  <anchor x="330" y="700" name="top"/>
  <outline>
    <contour>
      <point x="305" y="-16" type="curve" smooth="yes"/>
      <point x="512" y="-16"/>
      <point x="653" y="158"/>
      <point x="653" y="369" type="curve" smooth="yes"/>
      <point x="653" y="541"/>
      <point x="546" y="716"/>
      <point x="320" y="716" type="curve" smooth="yes"/>
      <point x="250" y="716"/>
      <point x="190" y="702"/>
      <point x="123" y="655" type="curve"/>
      <point x="128" y="709" type="line"/>
      <point x="74" y="709" type="line"/>
      <point x="74" y="487" type="line"/>
      <point x="110" y="487" type="line"/>
      <point x="124" y="612"/>
      <point x="184" y="675"/>
      <point x="299" y="675" type="curve" smooth="yes"/>
      <point x="452" y="675"/>
      <point x="555" y="548"/>
      <point x="555" y="354" type="curve" smooth="yes"/>
      <point x="555" y="163"/>
      <point x="452" y="36"/>
      <point x="279" y="36" type="curve" smooth="yes"/>
      <point x="192" y="36"/>
      <point x="108" y="76"/>
      <point x="56" y="151" type="curve"/>
      <point x="30" y="130" type="line"/>
      <point x="113" y="11"/>
      <point x="223" y="-16"/>
    </contour>
    <contour>
      <point x="191" y="256" type="line"/>
      <point x="224" y="256" type="line"/>
      <point x="224" y="344"/>
      <point x="258" y="340"/>
      <point x="343" y="341" type="curve" smooth="yes"/>
      <point x="586" y="344" type="line"/>
      <point x="586" y="384" type="line"/>
      <point x="228" y="383" type="line"/>
      <point x="231" y="412"/>
      <point x="233" y="440"/>
      <point x="236" y="469" type="curve"/>
      <point x="191" y="469" type="line"/>
    </contour>
  </outline>
</glyph>
<glyph name="Iu-cy" format="2">
  <advance width="1075"/>
  <unicode hex="042E"/>
  <outline>
    <contour>
      <point x="683" y="-16" type="curve" smooth="yes"/>
      <point x="919" y="-16"/>
      <point x="1031" y="184"/>
      <point x="1031" y="350" type="curve" smooth="yes"/>
      <point x="1031" y="517"/>
      <point x="919" y="716"/>
      <point x="675" y="716" type="curve" smooth="yes"/>
      <point x="476" y="716"/>
      <point x="368" y="539"/>
      <point x="357" y="378" type="curve"/>
      <point x="211" y="378" type="line"/>
      <point x="211" y="544" type="line" smooth="yes"/>
      <point x="211" y="615"/>
      <point x="205" y="664"/>
      <point x="280" y="667" type="curve"/>
      <point x="280" y="700" type="line"/>
      <point x="55" y="700" type="line"/>
      <point x="55" y="656" type="line"/>
      <point x="79" y="657"/>
      <point x="103" y="659"/>
      <point x="127" y="660" type="curve"/>
      <point x="125" y="640"/>
      <point x="124" y="615"/>
      <point x="124" y="588" type="curve" smooth="yes"/>
      <point x="124" y="156" type="line" smooth="yes"/>
      <point x="124" y="85"/>
      <point x="130" y="36"/>
      <point x="55" y="33" type="curve"/>
      <point x="55" y="0" type="line"/>
      <point x="280" y="0" type="line"/>
      <point x="280" y="44" type="line"/>
      <point x="256" y="43"/>
      <point x="232" y="41"/>
      <point x="208" y="40" type="curve"/>
      <point x="210" y="57"/>
      <point x="211" y="83"/>
      <point x="211" y="119" type="curve" smooth="yes"/>
      <point x="211" y="334" type="line"/>
      <point x="356" y="337" type="line"/>
      <point x="361" y="167"/>
      <point x="460" y="-16"/>
    </contour>
    <contour>
      <point x="685" y="25" type="curve" smooth="yes"/>
      <point x="531" y="25"/>
      <point x="455" y="220"/>
      <point x="455" y="368" type="curve" smooth="yes"/>
      <point x="455" y="516"/>
      <point x="531" y="676"/>
      <point x="672" y="676" type="curve" smooth="yes"/>
      <point x="838" y="676"/>
      <point x="931" y="495"/>
      <point x="931" y="331" type="curve" smooth="yes"/>
      <point x="931" y="184"/>
      <point x="849" y="25"/>
    </contour>
  </outline>
</glyph>
<glyph name="Ia-cy" format="2">
  <advance width="673"/>
  <unicode hex="042F"/>
  <outline>
    <contour>
      <point x="22" y="0" type="line"/>
      <point x="140" y="0" type="line"/>
      <point x="169" y="15"/>
      <point x="204" y="67"/>
      <point x="232" y="111" type="curve" smooth="yes"/>
      <point x="307" y="226" type="line" smooth="yes"/>
      <point x="321" y="249"/>
      <point x="343" y="275"/>
      <point x="373" y="292" type="curve"/>
      <point x="462" y="293" type="line"/>
      <point x="462" y="156" type="line" smooth="yes"/>
      <point x="462" y="85"/>
      <point x="468" y="36"/>
      <point x="393" y="33" type="curve"/>
      <point x="393" y="0" type="line"/>
      <point x="618" y="0" type="line"/>
      <point x="618" y="44" type="line"/>
      <point x="546" y="40" type="line"/>
      <point x="548" y="60"/>
      <point x="549" y="85"/>
      <point x="549" y="112" type="curve" smooth="yes"/>
      <point x="549" y="544" type="line" smooth="yes"/>
      <point x="549" y="617"/>
      <point x="545" y="665"/>
      <point x="618" y="667" type="curve"/>
      <point x="618" y="700" type="line"/>
      <point x="351" y="700" type="line" smooth="yes"/>
      <point x="201" y="700"/>
      <point x="127" y="629"/>
      <point x="127" y="511" type="curve" smooth="yes"/>
      <point x="127" y="398"/>
      <point x="199" y="331"/>
      <point x="295" y="308" type="curve"/>
      <point x="263" y="299"/>
      <point x="243" y="280"/>
      <point x="218" y="244" type="curve" smooth="yes"/>
      <point x="141" y="128" type="line" smooth="yes"/>
      <point x="99" y="65"/>
      <point x="78" y="33"/>
      <point x="22" y="33" type="curve"/>
    </contour>
    <contour>
      <point x="384" y="329" type="curve" smooth="yes"/>
      <point x="294" y="329"/>
      <point x="221" y="400"/>
      <point x="221" y="501" type="curve" smooth="yes"/>
      <point x="221" y="610"/>
      <point x="291" y="662"/>
      <point x="384" y="662" type="curve" smooth="yes"/>
      <point x="406" y="662"/>
      <point x="434" y="662"/>
      <point x="465" y="660" type="curve"/>
      <point x="463" y="643"/>
      <point x="462" y="618"/>
      <point x="462" y="582" type="curve" smooth="yes"/>
      <point x="462" y="332" type="line"/>
      <point x="455" y="330"/>
      <point x="423" y="329"/>
    </contour>
  </outline>
</glyph>
<glyph name="zhe-cy" format="2">
  <advance width="775"/>
  <unicode hex="0436"/>
  <anchor x="388" y="500" name="top"/>
  <outline>
    <contour>
      <point x="7" y="0" type="line"/>
      <point x="95" y="0" type="line" smooth="yes"/>
      <point x="127" y="0"/>
      <point x="159" y="40"/>
      <point x="201" y="95" type="curve" smooth="yes"/>
      <point x="233" y="139"/>
      <point x="273" y="200"/>
      <point x="311" y="245" type="curve"/>
      <point x="344" y="244" type="line"/>
      <point x="344" y="152" type="line" smooth="yes"/>
      <point x="343" y="80"/>
      <point x="345" y="30"/>
      <point x="284" y="30" type="curve"/>
      <point x="284" y="0" type="line"/>
      <point x="488" y="0" type="line"/>
      <point x="488" y="41" type="line"/>
      <point x="425" y="38" type="line"/>
      <point x="429" y="61"/>
      <point x="429" y="79"/>
      <point x="429" y="106" type="curve" smooth="yes"/>
      <point x="430" y="244" type="line"/>
      <point x="464" y="245" type="line"/>
      <point x="502" y="200"/>
      <point x="542" y="139"/>
      <point x="575" y="95" type="curve" smooth="yes"/>
      <point x="616" y="40"/>
      <point x="648" y="0"/>
      <point x="680" y="0" type="curve" smooth="yes"/>
      <point x="768" y="0" type="line"/>
      <point x="768" y="30" type="line"/>
      <point x="733" y="30"/>
      <point x="698" y="65"/>
      <point x="654" y="126" type="curve" smooth="yes"/>
      <point x="633" y="156"/>
      <point x="607" y="191"/>
      <point x="582" y="221" type="curve" smooth="yes"/>
      <point x="563" y="245"/>
      <point x="543" y="265"/>
      <point x="526" y="278" type="curve"/>
      <point x="597" y="365" type="line"/>
      <point x="632" y="403"/>
      <point x="689" y="463"/>
      <point x="757" y="470" type="curve"/>
      <point x="757" y="500" type="line"/>
      <point x="575" y="500" type="line"/>
      <point x="575" y="460" type="line"/>
      <point x="643" y="463" type="line"/>
      <point x="624" y="451"/>
      <point x="606" y="433"/>
      <point x="584" y="410" type="curve"/>
      <point x="477" y="282" type="line"/>
      <point x="430" y="282" type="line"/>
      <point x="431" y="348" type="line" smooth="yes"/>
      <point x="431" y="420"/>
      <point x="429" y="470"/>
      <point x="490" y="470" type="curve"/>
      <point x="490" y="500" type="line"/>
      <point x="286" y="500" type="line"/>
      <point x="286" y="459" type="line"/>
      <point x="349" y="462" type="line"/>
      <point x="345" y="439"/>
      <point x="345" y="421"/>
      <point x="345" y="394" type="curve" smooth="yes"/>
      <point x="345" y="282" type="line"/>
      <point x="299" y="282" type="line"/>
      <point x="191" y="410" type="line"/>
      <point x="169" y="433"/>
      <point x="151" y="451"/>
      <point x="132" y="463" type="curve"/>
      <point x="201" y="460" type="line"/>
      <point x="201" y="500" type="line"/>
      <point x="19" y="500" type="line"/>
      <point x="19" y="470" type="line"/>
      <point x="86" y="463"/>
      <point x="144" y="403"/>
      <point x="179" y="365" type="curve"/>
      <point x="250" y="278" type="line"/>
      <point x="211" y="249"/>
      <point x="160" y="180"/>
      <point x="121" y="126" type="curve" smooth="yes"/>
      <point x="77" y="65"/>
      <point x="42" y="30"/>
      <point x="7" y="30" type="curve"/>
    </contour>
  </outline>
</glyph>
<glyph name="ii-cy" format="2">
  <advance width="627"/>
  <unicode hex="0438"/>
  <anchor x="517" y="0" name="bottomright"/>
  <anchor x="314" y="500" name="top"/>
  <outline>
    <contour>
      <point x="250" y="470" type="curve"/>
      <point x="250" y="500" type="line"/>
      <point x="45" y="500" type="line"/>
      <point x="45" y="459" type="line"/>
      <point x="66" y="460"/>
      <point x="87" y="461"/>
      <point x="108" y="462" type="curve"/>
      <point x="104" y="439"/>
      <point x="104" y="421"/>
      <point x="104" y="394" type="curve" smooth="yes"/>
      <point x="104" y="152" type="line" smooth="yes"/>
      <point x="103" y="80"/>
      <point x="105" y="30"/>
      <point x="44" y="30" type="curve"/>
      <point x="44" y="0" type="line"/>
      <point x="248" y="0" type="line"/>
      <point x="248" y="41" type="line"/>
      <point x="227" y="40"/>
      <point x="206" y="39"/>
      <point x="185" y="38" type="curve"/>
      <point x="189" y="61"/>
      <point x="189" y="79"/>
      <point x="189" y="106" type="curve" smooth="yes"/>
      <point x="190" y="348" type="line" smooth="yes"/>
      <point x="191" y="420"/>
      <point x="188" y="470"/>
    </contour>
    <contour>
      <point x="446" y="452" type="line"/>
      <point x="137" y="71" type="line"/>
      <point x="171" y="43" type="line"/>
      <point x="478" y="428" type="line"/>
    </contour>
    <contour>
      <point x="583" y="470" type="curve"/>
      <point x="583" y="500" type="line"/>
      <point x="379" y="500" type="line"/>
      <point x="379" y="459" type="line"/>
      <point x="400" y="460"/>
      <point x="421" y="461"/>
      <point x="442" y="462" type="curve"/>
      <point x="438" y="439"/>
      <point x="438" y="421"/>
      <point x="438" y="394" type="curve" smooth="yes"/>
      <point x="437" y="152" type="line" smooth="yes"/>
      <point x="437" y="80"/>
      <point x="438" y="30"/>
      <point x="377" y="30" type="curve"/>
      <point x="377" y="0" type="line"/>
      <point x="582" y="0" type="line"/>
      <point x="582" y="41" type="line"/>
      <point x="561" y="40"/>
      <point x="540" y="39"/>
      <point x="519" y="38" type="curve"/>
      <point x="522" y="61"/>
      <point x="522" y="79"/>
      <point x="522" y="106" type="curve" smooth="yes"/>
      <point x="524" y="348" type="line" smooth="yes"/>
      <point x="524" y="420"/>
      <point x="522" y="470"/>
    </contour>
  </outline>
</glyph>
<glyph name="el-cy" format="2">
  <advance width="592"/>
  <unicode hex="043B"/>
  <anchor x="481" y="0" name="bottomright"/>
  <outline>
    <contour>
      <point x="82" y="-11" type="curve" smooth="yes"/>
      <point x="209" y="-11"/>
      <point x="250" y="193"/>
      <point x="260" y="383" type="curve"/>
      <point x="260" y="431"/>
      <point x="273" y="462"/>
      <point x="319" y="462" type="curve" smooth="yes"/>
      <point x="407" y="462" type="line"/>
      <point x="403" y="439"/>
      <point x="403" y="421"/>
      <point x="403" y="394" type="curve" smooth="yes"/>
      <point x="403" y="152" type="line" smooth="yes"/>
      <point x="401" y="80"/>
      <point x="403" y="30"/>
      <point x="342" y="30" type="curve"/>
      <point x="342" y="0" type="line"/>
      <point x="546" y="0" type="line"/>
      <point x="546" y="41" type="line"/>
      <point x="483" y="38" type="line"/>
      <point x="487" y="61"/>
      <point x="487" y="79"/>
      <point x="489" y="106" type="curve"/>
      <point x="489" y="348" type="line" smooth="yes"/>
      <point x="489" y="420"/>
      <point x="487" y="470"/>
      <point x="548" y="470" type="curve"/>
      <point x="548" y="500" type="line"/>
      <point x="117" y="500" type="line"/>
      <point x="117" y="457" type="line"/>
      <point x="211" y="461" type="line"/>
      <point x="196" y="148"/>
      <point x="143" y="40"/>
      <point x="103" y="40" type="curve" smooth="yes"/>
      <point x="100" y="40"/>
      <point x="97" y="41"/>
      <point x="94" y="42" type="curve"/>
      <point x="95" y="46"/>
      <point x="96" y="53"/>
      <point x="96" y="57" type="curve" smooth="yes"/>
      <point x="96" y="73"/>
      <point x="83" y="93"/>
      <point x="51" y="93" type="curve" smooth="yes"/>
      <point x="22" y="92"/>
      <point x="7" y="71"/>
      <point x="7" y="42" type="curve" smooth="yes"/>
      <point x="7" y="10"/>
      <point x="34" y="-11"/>
    </contour>
  </outline>
</glyph>
<glyph name="te-cy" format="2">
  <advance width="495"/>
  <unicode hex="0442"/>
  <anchor x="290" y="0" name="bottomright"/>
  <outline>
    <contour>
      <point x="144" y="0" type="line"/>
      <point x="349" y="0" type="line"/>
      <point x="349" y="41" type="line"/>
      <point x="286" y="38" type="line"/>
      <point x="290" y="61"/>
      <point x="290" y="79"/>
      <point x="290" y="106" type="curve" smooth="yes"/>
      <point x="290" y="458" type="line"/>
      <point x="352" y="458" type="line"/>
      <point x="415" y="458"/>
      <point x="433" y="433"/>
      <point x="435" y="349" type="curve"/>
      <point x="473" y="349" type="line"/>
      <point x="468" y="500" type="line"/>
      <point x="26" y="500" type="line"/>
      <point x="22" y="349" type="line"/>
      <point x="60" y="349" type="line"/>
      <point x="60" y="433"/>
      <point x="83" y="458"/>
      <point x="137" y="458" type="curve" smooth="yes"/>
      <point x="208" y="458" type="line"/>
      <point x="204" y="435"/>
      <point x="204" y="421"/>
      <point x="204" y="394" type="curve" smooth="yes"/>
      <point x="204" y="152" type="line" smooth="yes"/>
      <point x="203" y="80"/>
      <point x="205" y="30"/>
      <point x="144" y="30" type="curve"/>
    </contour>
  </outline>
</glyph>
<glyph name="hardsign-cy" format="2">
  <advance width="583"/>
  <unicode hex="044A"/>
  <outline>
    <contour>
      <point x="335" y="470" type="curve"/>
      <point x="335" y="500" type="line"/>
      <point x="26" y="500" type="line"/>
      <point x="22" y="349" type="line"/>
      <point x="60" y="349" type="line"/>
      <point x="60" y="433"/>
      <point x="83" y="457"/>
      <point x="137" y="458" type="curve" smooth="yes"/>
      <point x="194" y="458" type="line"/>
      <point x="190" y="436"/>
      <point x="190" y="421"/>
      <point x="190" y="394" type="curve" smooth="yes"/>
      <point x="190" y="115" type="line" smooth="yes"/>
      <point x="190" y="63"/>
      <point x="179" y="31"/>
      <point x="130" y="30" type="curve"/>
      <point x="130" y="0" type="line"/>
      <point x="388" y="0" type="line" smooth="yes"/>
      <point x="475" y="0"/>
      <point x="551" y="52"/>
      <point x="551" y="148" type="curve" smooth="yes"/>
      <point x="551" y="228"/>
      <point x="500" y="295"/>
      <point x="338" y="292" type="curve" smooth="yes"/>
      <point x="276" y="290" type="line"/>
      <point x="276" y="382" type="line" smooth="yes"/>
      <point x="276" y="420"/>
      <point x="274" y="470"/>
    </contour>
    <contour>
      <point x="276" y="97" type="curve" smooth="yes"/>
      <point x="276" y="252" type="line"/>
      <point x="298" y="253"/>
      <point x="323" y="254"/>
      <point x="352" y="254" type="curve" smooth="yes"/>
      <point x="421" y="254"/>
      <point x="463" y="214"/>
      <point x="463" y="146" type="curve" smooth="yes"/>
      <point x="463" y="69"/>
      <point x="413" y="40"/>
      <point x="352" y="40" type="curve" smooth="yes"/>
      <point x="342" y="40"/>
      <point x="296" y="39"/>
      <point x="273" y="41" type="curve"/>
      <point x="275" y="53"/>
      <point x="276" y="71"/>
    </contour>
  </outline>
</glyph>
<glyph name="softsign-cy" format="2">
  <advance width="507"/>
  <unicode hex="044C"/>
  <outline>
    <contour>
      <point x="44" y="0" type="line"/>
      <point x="302" y="0" type="line" smooth="yes"/>
      <point x="389" y="0"/>
      <point x="465" y="52"/>
      <point x="465" y="148" type="curve" smooth="yes"/>
      <point x="465" y="228"/>
      <point x="414" y="295"/>
      <point x="252" y="292" type="curve" smooth="yes"/>
      <point x="190" y="290" type="line"/>
      <point x="190" y="382" type="line" smooth="yes"/>
      <point x="190" y="420"/>
      <point x="188" y="470"/>
      <point x="249" y="470" type="curve"/>
      <point x="249" y="500" type="line"/>
      <point x="45" y="500" type="line"/>
      <point x="45" y="459" type="line"/>
      <point x="66" y="460"/>
      <point x="87" y="461"/>
      <point x="108" y="462" type="curve"/>
      <point x="104" y="439"/>
      <point x="104" y="421"/>
      <point x="104" y="394" type="curve" smooth="yes"/>
      <point x="104" y="115" type="line" smooth="yes"/>
      <point x="104" y="63"/>
      <point x="93" y="31"/>
      <point x="44" y="30" type="curve"/>
    </contour>
    <contour>
      <point x="188" y="41" type="curve"/>
      <point x="189" y="53"/>
      <point x="190" y="71"/>
      <point x="190" y="97" type="curve" smooth="yes"/>
      <point x="190" y="252" type="line"/>
      <point x="212" y="253"/>
      <point x="237" y="254"/>
      <point x="266" y="254" type="curve" smooth="yes"/>
      <point x="335" y="254"/>
      <point x="377" y="214"/>
      <point x="377" y="146" type="curve" smooth="yes"/>
      <point x="377" y="69"/>
      <point x="327" y="40"/>
      <point x="266" y="40" type="curve" smooth="yes"/>
      <point x="256" y="40"/>
      <point x="210" y="39"/>
    </contour>
  </outline>
</glyph>
<glyph name="iu-cy" format="2">
  <advance width="814"/>
  <unicode hex="044E"/>
  <outline>
    <contour>
      <point x="521" y="-16" type="curve" smooth="yes"/>
      <point x="663" y="-16"/>
      <point x="773" y="107"/>
      <point x="773" y="262" type="curve" smooth="yes"/>
      <point x="773" y="407"/>
      <point x="661" y="516"/>
      <point x="521" y="516" type="curve" smooth="yes"/>
      <point x="402" y="516"/>
      <point x="300" y="415"/>
      <point x="284" y="276" type="curve"/>
      <point x="190" y="276" type="line"/>
      <point x="190" y="348" type="line" smooth="yes"/>
      <point x="191" y="420"/>
      <point x="188" y="470"/>
      <point x="250" y="470" type="curve"/>
      <point x="250" y="500" type="line"/>
      <point x="45" y="500" type="line"/>
      <point x="45" y="459" type="line"/>
      <point x="108" y="462" type="line"/>
      <point x="104" y="439"/>
      <point x="104" y="421"/>
      <point x="104" y="394" type="curve" smooth="yes"/>
      <point x="104" y="152" type="line" smooth="yes"/>
      <point x="103" y="80"/>
      <point x="105" y="30"/>
      <point x="44" y="30" type="curve"/>
      <point x="44" y="0" type="line"/>
      <point x="248" y="0" type="line"/>
      <point x="248" y="41" type="line"/>
      <point x="185" y="38" type="line"/>
      <point x="189" y="61"/>
      <point x="189" y="79"/>
      <point x="189" y="106" type="curve" smooth="yes"/>
      <point x="190" y="234" type="line"/>
      <point x="282" y="236" type="line"/>
      <point x="283" y="89"/>
      <point x="394" y="-16"/>
    </contour>
    <contour>
      <point x="529" y="24" type="curve" smooth="yes"/>
      <point x="435" y="24"/>
      <point x="384" y="143"/>
      <point x="384" y="267" type="curve" smooth="yes"/>
      <point x="384" y="376"/>
      <point x="428" y="478"/>
      <point x="521" y="478" type="curve" smooth="yes"/>
      <point x="628" y="478"/>
      <point x="671" y="353"/>
      <point x="671" y="233" type="curve" smooth="yes"/>
      <point x="671" y="127"/>
      <point x="634" y="24"/>
    </contour>
  </outline>
</glyph>
<glyph name="e-cy" format="2">
  <advance width="532"/>
  <unicode hex="0454"/>
  <outline>
    <contour>
      <point x="131" y="233" type="line"/>
      <point x="375" y="237" type="line"/>
      <point x="375" y="276" type="line"/>
      <point x="131" y="276" type="line"/>
    </contour>
    <component base="c"/>
  </outline>
</glyph>
<glyph name="lje-cy" format="2">
  <advance width="752"/>
  <unicode hex="0459"/>
  <outline>
    <contour>
      <point x="87" y="-16" type="curve" smooth="yes"/>
      <point x="200" y="-16"/>
      <point x="250" y="188"/>
      <point x="260" y="377" type="curve" smooth="yes"/>
      <point x="261" y="435"/>
      <point x="274" y="462"/>
      <point x="319" y="462" type="curve" smooth="yes"/>
      <point x="382" y="462" type="line"/>
      <point x="378" y="439"/>
      <point x="378" y="421"/>
      <point x="378" y="394" type="curve" smooth="yes"/>
      <point x="378" y="115" type="line" smooth="yes"/>
      <point x="378" y="63"/>
      <point x="367" y="31"/>
      <point x="318" y="30" type="curve"/>
      <point x="318" y="0" type="line"/>
      <point x="557" y="0" type="line" smooth="yes"/>
      <point x="644" y="0"/>
      <point x="720" y="52"/>
      <point x="720" y="148" type="curve" smooth="yes"/>
      <point x="720" y="228"/>
      <point x="668" y="297"/>
      <point x="507" y="292" type="curve" smooth="yes"/>
      <point x="464" y="290" type="line"/>
      <point x="464" y="348" type="line" smooth="yes"/>
      <point x="465" y="420"/>
      <point x="462" y="470"/>
      <point x="523" y="470" type="curve"/>
      <point x="523" y="500" type="line"/>
      <point x="118" y="500" type="line"/>
      <point x="118" y="457" type="line"/>
      <point x="206" y="461" type="line"/>
      <point x="207" y="421" type="line"/>
      <point x="199" y="173"/>
      <point x="145" y="39"/>
      <point x="106" y="39" type="curve" smooth="yes"/>
      <point x="101" y="39"/>
      <point x="98" y="40"/>
      <point x="95" y="43" type="curve"/>
      <point x="96" y="48"/>
      <point x="96" y="53"/>
      <point x="96" y="57" type="curve" smooth="yes"/>
      <point x="96" y="73"/>
      <point x="83" y="93"/>
      <point x="51" y="93" type="curve" smooth="yes"/>
      <point x="22" y="92"/>
      <point x="7" y="71"/>
      <point x="7" y="42" type="curve" smooth="yes"/>
      <point x="7" y="3"/>
      <point x="39" y="-16"/>
    </contour>
    <contour>
      <point x="462" y="41" type="curve"/>
      <point x="463" y="53"/>
      <point x="464" y="71"/>
      <point x="464" y="97" type="curve" smooth="yes"/>
      <point x="464" y="252" type="line"/>
      <point x="487" y="253"/>
      <point x="492" y="254"/>
      <point x="520" y="254" type="curve" smooth="yes"/>
      <point x="598" y="254"/>
      <point x="632" y="214"/>
      <point x="632" y="146" type="curve" smooth="yes"/>
      <point x="632" y="69"/>
      <point x="582" y="40"/>
      <point x="520" y="40" type="curve" smooth="yes"/>
      <point x="511" y="40"/>
      <point x="484" y="39"/>
    </contour>
  </outline>
</glyph>
<glyph name="nje-cy" format="2">
  <advance width="803"/>
  <unicode hex="045A"/>
  <outline>
    <contour>
      <point x="574" y="470" type="curve"/>
      <point x="574" y="500" type="line"/>
      <point x="370" y="500" type="line"/>
      <point x="370" y="459" type="line"/>
      <point x="433" y="462" type="line"/>
      <point x="429" y="439"/>
      <point x="429" y="421"/>
      <point x="429" y="394" type="curve" smooth="yes"/>
      <point x="429" y="115" type="line" smooth="yes"/>
      <point x="429" y="63"/>
      <point x="418" y="31"/>
      <point x="369" y="30" type="curve"/>
      <point x="369" y="0" type="line"/>
      <point x="608" y="0" type="line" smooth="yes"/>
      <point x="695" y="0"/>
      <point x="771" y="52"/>
      <point x="771" y="148" type="curve" smooth="yes"/>
      <point x="771" y="228"/>
      <point x="719" y="297"/>
      <point x="558" y="292" type="curve" smooth="yes"/>
      <point x="515" y="290" type="line"/>
      <point x="515" y="348" type="line" smooth="yes"/>
      <point x="516" y="420"/>
      <point x="513" y="470"/>
    </contour>
    <contour>
      <point x="261" y="470" type="curve"/>
      <point x="261" y="500" type="line"/>
      <point x="56" y="500" type="line"/>
      <point x="56" y="459" type="line"/>
      <point x="119" y="462" type="line"/>
      <point x="115" y="439"/>
      <point x="115" y="421"/>
      <point x="115" y="394" type="curve" smooth="yes"/>
      <point x="115" y="152" type="line" smooth="yes"/>
      <point x="114" y="80"/>
      <point x="116" y="30"/>
      <point x="55" y="30" type="curve"/>
      <point x="55" y="0" type="line"/>
      <point x="259" y="0" type="line"/>
      <point x="259" y="41" type="line"/>
      <point x="196" y="38" type="line"/>
      <point x="200" y="61"/>
      <point x="200" y="79"/>
      <point x="200" y="106" type="curve" smooth="yes"/>
      <point x="201" y="348" type="line" smooth="yes"/>
      <point x="202" y="420"/>
      <point x="199" y="470"/>
    </contour>
    <contour>
      <point x="515" y="97" type="curve" smooth="yes"/>
      <point x="515" y="252" type="line"/>
      <point x="538" y="254"/>
      <point x="543" y="254"/>
      <point x="572" y="254" type="curve" smooth="yes"/>
      <point x="649" y="254"/>
      <point x="683" y="214"/>
      <point x="683" y="146" type="curve" smooth="yes"/>
      <point x="683" y="69"/>
      <point x="633" y="40"/>
      <point x="572" y="40" type="curve" smooth="yes"/>
      <point x="562" y="40"/>
      <point x="535" y="39"/>
      <point x="513" y="41" type="curve"/>
      <point x="514" y="53"/>
      <point x="515" y="71"/>
    </contour>
    <contour>
      <point x="165" y="290" type="line"/>
      <point x="165" y="247" type="line"/>
      <point x="465" y="251" type="line"/>
      <point x="465" y="290" type="line"/>
    </contour>
  </outline>
</glyph>
<glyph name="Yusbig-cy" format="2">
  <advance width="933"/>
  <unicode hex="046A"/>
  <outline>
    <contour>
      <point x="-10" y="0" type="line"/>
      <point x="97" y="0" type="line" smooth="yes"/>
      <point x="117" y="0"/>
      <point x="162" y="34"/>
      <point x="200" y="98" type="curve" smooth="yes"/>
      <point x="298" y="260" type="line" smooth="yes"/>
      <point x="317" y="291"/>
      <point x="333" y="317"/>
      <point x="363" y="341" type="curve"/>
      <point x="423" y="340" type="line"/>
      <point x="423" y="156" type="line" smooth="yes"/>
      <point x="423" y="85"/>
      <point x="429" y="36"/>
      <point x="354" y="33" type="curve"/>
      <point x="354" y="0" type="line"/>
      <point x="579" y="0" type="line"/>
      <point x="579" y="44" type="line"/>
      <point x="555" y="43"/>
      <point x="530" y="41"/>
      <point x="506" y="40" type="curve"/>
      <point x="509" y="57"/>
      <point x="510" y="83"/>
      <point x="510" y="119" type="curve" smooth="yes"/>
      <point x="510" y="340" type="line"/>
      <point x="569" y="341" type="line"/>
      <point x="600" y="317"/>
      <point x="615" y="291"/>
      <point x="634" y="260" type="curve" smooth="yes"/>
      <point x="734" y="98" type="line" smooth="yes"/>
      <point x="774" y="35"/>
      <point x="820" y="0"/>
      <point x="840" y="0" type="curve" smooth="yes"/>
      <point x="943" y="0" type="line"/>
      <point x="943" y="33" type="line"/>
      <point x="900" y="33"/>
      <point x="865" y="52"/>
      <point x="805" y="149" type="curve" smooth="yes"/>
      <point x="718" y="291" type="line" smooth="yes"/>
      <point x="672" y="364"/>
      <point x="635" y="376"/>
      <point x="585" y="380" type="curve"/>
      <point x="545" y="380" type="line"/>
      <point x="646" y="538" type="line"/>
      <point x="702" y="623"/>
      <point x="738" y="643"/>
      <point x="777" y="647" type="curve"/>
      <point x="796" y="647" type="line"/>
      <point x="796" y="700" type="line"/>
      <point x="137" y="700" type="line"/>
      <point x="137" y="636" type="line"/>
      <point x="205" y="637" type="line"/>
      <point x="214" y="612"/>
      <point x="236" y="579"/>
      <point x="262" y="545" type="curve" smooth="yes"/>
      <point x="391" y="380" type="line"/>
      <point x="377" y="380"/>
      <point x="362" y="380"/>
      <point x="348" y="380" type="curve" smooth="yes"/>
      <point x="293" y="380"/>
      <point x="261" y="366"/>
      <point x="214" y="291" type="curve" smooth="yes"/>
      <point x="128" y="149" type="line" smooth="yes"/>
      <point x="68" y="52"/>
      <point x="33" y="33"/>
      <point x="-10" y="33" type="curve"/>
    </contour>
    <contour>
      <point x="494" y="372" type="line"/>
      <point x="350" y="558" type="line"/>
      <point x="306" y="617"/>
      <point x="316" y="637"/>
      <point x="352" y="640" type="curve"/>
      <point x="667" y="645" type="line"/>
      <point x="647" y="625"/>
      <point x="636" y="606"/>
      <point x="621" y="581" type="curve"/>
    </contour>
  </outline>
</glyph>
<glyph name="Fita-cy" format="2">
  <advance width="794"/>
  <unicode hex="0472"/>
  <outline>
    <contour>
      <point x="514" y="285" type="curve" smooth="yes"/>
      <point x="584" y="285"/>
      <point x="654" y="335"/>
      <point x="679" y="408" type="curve"/>
      <point x="658" y="414" type="line"/>
      <point x="640" y="384"/>
      <point x="586" y="355"/>
      <point x="524" y="355" type="curve" smooth="yes"/>
      <point x="454" y="355"/>
      <point x="374" y="435"/>
      <point x="285" y="433" type="curve" smooth="yes"/>
      <point x="225" y="432"/>
      <point x="132" y="369"/>
      <point x="113" y="317" type="curve"/>
      <point x="142" y="309" type="line"/>
      <point x="163" y="327"/>
      <point x="222" y="361"/>
      <point x="278" y="361" type="curve" smooth="yes"/>
      <point x="349" y="361"/>
      <point x="436" y="285"/>
    </contour>
    <component base="O"/>
  </outline>
</glyph>
<glyph name="fita-cy" format="2">
  <advance width="585"/>
  <unicode hex="0473"/>
  <outline>
    <contour>
      <point x="366" y="204" type="curve" smooth="yes"/>
      <point x="411" y="204"/>
      <point x="443" y="226"/>
      <point x="465" y="290" type="curve"/>
      <point x="459" y="294" type="line"/>
      <point x="443" y="268"/>
      <point x="404" y="259"/>
      <point x="375" y="259" type="curve" smooth="yes"/>
      <point x="348" y="259"/>
      <point x="328" y="270"/>
      <point x="307" y="281" type="curve" smooth="yes"/>
      <point x="286" y="292"/>
      <point x="263" y="303"/>
      <point x="232" y="302" type="curve" smooth="yes"/>
      <point x="187" y="301"/>
      <point x="145" y="265"/>
      <point x="128" y="220" type="curve"/>
      <point x="144" y="214" type="line"/>
      <point x="163" y="229"/>
      <point x="193" y="244"/>
      <point x="226" y="244" type="curve" smooth="yes"/>
      <point x="251" y="244"/>
      <point x="269" y="236"/>
      <point x="288" y="227" type="curve" smooth="yes"/>
      <point x="310" y="216"/>
      <point x="332" y="204"/>
    </contour>
    <contour>
      <point x="292" y="-16" type="curve" smooth="yes"/>
      <point x="434" y="-16"/>
      <point x="544" y="107"/>
      <point x="544" y="262" type="curve" smooth="yes"/>
      <point x="544" y="407"/>
      <point x="432" y="516"/>
      <point x="292" y="516" type="curve" smooth="yes"/>
      <point x="150" y="516"/>
      <point x="41" y="396"/>
      <point x="41" y="238" type="curve" smooth="yes"/>
      <point x="41" y="90"/>
      <point x="152" y="-16"/>
    </contour>
    <contour>
      <point x="300" y="24" type="curve" smooth="yes"/>
      <point x="194" y="24"/>
      <point x="143" y="143"/>
      <point x="143" y="267" type="curve" smooth="yes"/>
      <point x="143" y="376"/>
      <point x="187" y="478"/>
      <point x="292" y="478" type="curve" smooth="yes"/>
      <point x="399" y="478"/>
      <point x="442" y="353"/>
      <point x="442" y="233" type="curve" smooth="yes"/>
      <point x="442" y="127"/>
      <point x="405" y="24"/>
    </contour>
  </outline>
</glyph>
<glyph name="izhitsa-cy" format="2">
  <advance width="539"/>
  <unicode hex="0475"/>
  <outline>
    <contour>
      <point x="237" y="-3" type="line"/>
      <point x="277" y="-3" type="line"/>
      <point x="379" y="298" type="line" smooth="yes"/>
      <point x="421" y="423"/>
      <point x="445" y="465"/>
      <point x="463" y="465" type="curve" smooth="yes"/>
      <point x="467" y="465"/>
      <point x="470" y="464"/>
      <point x="472" y="463" type="curve"/>
      <point x="471" y="459"/>
      <point x="470" y="452"/>
      <point x="470" y="448" type="curve" smooth="yes"/>
      <point x="470" y="432"/>
      <point x="483" y="412"/>
      <point x="515" y="412" type="curve" smooth="yes"/>
      <point x="544" y="413"/>
      <point x="559" y="434"/>
      <point x="559" y="463" type="curve" smooth="yes"/>
      <point x="559" y="493"/>
      <point x="534" y="516"/>
      <point x="486" y="516" type="curve" smooth="yes"/>
      <point x="404" y="516"/>
      <point x="372" y="416"/>
      <point x="349" y="344" type="curve" smooth="yes"/>
      <point x="329" y="281"/>
      <point x="318" y="246"/>
      <point x="296" y="174" type="curve" smooth="yes"/>
      <point x="290" y="153"/>
      <point x="283" y="127"/>
      <point x="276" y="108" type="curve"/>
      <point x="266" y="134"/>
      <point x="254" y="160"/>
      <point x="244" y="183" type="curve" smooth="yes"/>
      <point x="167" y="359" type="line" smooth="yes"/>
      <point x="142" y="417"/>
      <point x="129" y="470"/>
      <point x="190" y="470" type="curve"/>
      <point x="190" y="500" type="line"/>
      <point x="6" y="500" type="line"/>
      <point x="6" y="459" type="line"/>
      <point x="49" y="462" type="line"/>
      <point x="50" y="439"/>
      <point x="57" y="399"/>
      <point x="91" y="323" type="curve" smooth="yes"/>
    </contour>
  </outline>
</glyph>
<glyph name="semisoftsign-cy" format="2">
  <advance width="600"/>
  <unicode hex="048D"/>
  <outline>
    <contour>
      <point x="104" y="0" type="line"/>
      <point x="362" y="0" type="line" smooth="yes"/>
      <point x="449" y="0"/>
      <point x="525" y="52"/>
      <point x="525" y="148" type="curve" smooth="yes"/>
      <point x="525" y="228"/>
      <point x="474" y="295"/>
      <point x="312" y="292" type="curve" smooth="yes"/>
      <point x="250" y="290" type="line"/>
      <point x="250" y="459" type="line"/>
      <point x="422" y="461" type="line"/>
      <point x="422" y="500" type="line"/>
      <point x="250" y="500" type="line"/>
      <point x="250" y="755" type="line"/>
      <point x="221" y="755" type="line"/>
      <point x="206" y="741"/>
      <point x="184" y="728"/>
      <point x="96" y="728" type="curve"/>
      <point x="96" y="686" type="line"/>
      <point x="120" y="687"/>
      <point x="143" y="689"/>
      <point x="167" y="690" type="curve"/>
      <point x="164" y="663"/>
      <point x="164" y="646"/>
      <point x="164" y="625" type="curve" smooth="yes"/>
      <point x="164" y="500" type="line"/>
      <point x="59" y="500" type="line"/>
      <point x="59" y="457" type="line"/>
      <point x="164" y="458" type="line"/>
      <point x="164" y="115" type="line" smooth="yes"/>
      <point x="164" y="63"/>
      <point x="153" y="31"/>
      <point x="104" y="30" type="curve"/>
    </contour>
    <contour>
      <point x="248" y="41" type="curve"/>
      <point x="249" y="53"/>
      <point x="250" y="71"/>
      <point x="250" y="97" type="curve" smooth="yes"/>
      <point x="250" y="252" type="line"/>
      <point x="272" y="253"/>
      <point x="297" y="254"/>
      <point x="326" y="254" type="curve" smooth="yes"/>
      <point x="395" y="254"/>
      <point x="437" y="214"/>
      <point x="437" y="146" type="curve" smooth="yes"/>
      <point x="437" y="69"/>
      <point x="387" y="40"/>
      <point x="326" y="40" type="curve" smooth="yes"/>
      <point x="316" y="40"/>
      <point x="270" y="39"/>
    </contour>
  </outline>
</glyph>
<glyph name="Ghestroke-cy" format="2">
  <advance width="548"/>
  <unicode hex="0492"/>
  <outline>
    <contour>
      <point x="26" y="327" type="line"/>
      <point x="354" y="331" type="line"/>
      <point x="354" y="371" type="line"/>
      <point x="26" y="371" type="line"/>
    </contour>
    <component base="Ge-cy"/>
  </outline>
</glyph>
<glyph name="Kastroke-cy" format="2">
  <advance width="723"/>
  <unicode hex="049E"/>
  <outline>
    <contour>
      <point x="55" y="558" type="line"/>
      <point x="360" y="562" type="line"/>
      <point x="360" y="601" type="line"/>
      <point x="55" y="601" type="line"/>
    </contour>
    <component base="K" xOffset="40"/>
  </outline>
</glyph>
<glyph name="Kabashkir-cy" format="2">
  <advance width="800"/>
  <unicode hex="04A0"/>
  <outline>
    <contour>
      <point x="172" y="0" type="line"/>
      <point x="397" y="0" type="line"/>
      <point x="397" y="44" type="line"/>
      <point x="373" y="43"/>
      <point x="349" y="41"/>
      <point x="325" y="40" type="curve"/>
      <point x="327" y="57"/>
      <point x="328" y="83"/>
      <point x="328" y="119" type="curve" smooth="yes"/>
      <point x="328" y="340" type="line"/>
      <point x="377" y="341" type="line"/>
      <point x="401" y="326"/>
      <point x="427" y="293"/>
      <point x="452" y="260" type="curve" smooth="yes"/>
      <point x="572" y="98" type="line" smooth="yes"/>
      <point x="611" y="47"/>
      <point x="653" y="0"/>
      <point x="673" y="0" type="curve" smooth="yes"/>
      <point x="795" y="0" type="line"/>
      <point x="795" y="33" type="line"/>
      <point x="752" y="33"/>
      <point x="724" y="41"/>
      <point x="648" y="142" type="curve" smooth="yes"/>
      <point x="536" y="291" type="line" smooth="yes"/>
      <point x="512" y="322"/>
      <point x="491" y="353"/>
      <point x="453" y="376" type="curve"/>
      <point x="551" y="532" type="line" smooth="yes"/>
      <point x="619" y="641"/>
      <point x="669" y="660"/>
      <point x="753" y="667" type="curve"/>
      <point x="753" y="700" type="line"/>
      <point x="538" y="700" type="line"/>
      <point x="538" y="659" type="line"/>
      <point x="558" y="660"/>
      <point x="579" y="660"/>
      <point x="599" y="661" type="curve"/>
      <point x="572" y="639"/>
      <point x="545" y="603"/>
      <point x="528" y="577" type="curve" smooth="yes"/>
      <point x="403" y="380" type="line"/>
      <point x="328" y="380" type="line"/>
      <point x="328" y="544" type="line" smooth="yes"/>
      <point x="328" y="615"/>
      <point x="322" y="664"/>
      <point x="397" y="667" type="curve"/>
      <point x="397" y="700" type="line"/>
      <point x="28" y="700" type="line"/>
      <point x="22" y="489" type="line"/>
      <point x="59" y="489" type="line"/>
      <point x="59" y="607"/>
      <point x="90" y="659"/>
      <point x="174" y="659" type="curve" smooth="yes"/>
      <point x="244" y="660" type="line"/>
      <point x="242" y="640"/>
      <point x="241" y="615"/>
      <point x="241" y="588" type="curve" smooth="yes"/>
      <point x="241" y="156" type="line" smooth="yes"/>
      <point x="241" y="85"/>
      <point x="247" y="36"/>
      <point x="172" y="33" type="curve"/>
    </contour>
  </outline>
</glyph>
<glyph name="Endescender-cy" format="2">
  <advance width="780"/>
  <unicode hex="04A2"/>
  <outline>
    <contour>
      <point x="706" y="-178" type="curve"/>
      <point x="747" y="-178" type="line"/>
      <point x="747" y="49" type="line"/>
      <point x="653" y="43" type="line"/>
      <point x="655" y="60"/>
      <point x="656" y="85"/>
      <point x="656" y="119" type="curve" smooth="yes"/>
      <point x="656" y="544" type="line" smooth="yes"/>
      <point x="656" y="615"/>
      <point x="650" y="664"/>
      <point x="725" y="667" type="curve"/>
      <point x="725" y="700" type="line"/>
      <point x="500" y="700" type="line"/>
      <point x="500" y="656" type="line"/>
      <point x="524" y="657"/>
      <point x="548" y="659"/>
      <point x="572" y="660" type="curve"/>
      <point x="570" y="640"/>
      <point x="569" y="615"/>
      <point x="569" y="588" type="curve" smooth="yes"/>
      <point x="569" y="378" type="line"/>
      <point x="211" y="378" type="line"/>
      <point x="211" y="544" type="line" smooth="yes"/>
      <point x="211" y="615"/>
      <point x="205" y="664"/>
      <point x="280" y="667" type="curve"/>
      <point x="280" y="700" type="line"/>
      <point x="55" y="700" type="line"/>
      <point x="55" y="656" type="line"/>
      <point x="79" y="657"/>
      <point x="103" y="659"/>
      <point x="127" y="660" type="curve"/>
      <point x="125" y="640"/>
      <point x="124" y="615"/>
      <point x="124" y="588" type="curve" smooth="yes"/>
      <point x="124" y="156" type="line" smooth="yes"/>
      <point x="124" y="85"/>
      <point x="130" y="36"/>
      <point x="55" y="33" type="curve"/>
      <point x="55" y="0" type="line"/>
      <point x="280" y="0" type="line"/>
      <point x="280" y="44" type="line"/>
      <point x="256" y="43"/>
      <point x="232" y="41"/>
      <point x="208" y="40" type="curve"/>
      <point x="210" y="57"/>
      <point x="211" y="83"/>
      <point x="211" y="119" type="curve" smooth="yes"/>
      <point x="211" y="334" type="line"/>
      <point x="569" y="338" type="line"/>
      <point x="569" y="156" type="line" smooth="yes"/>
      <point x="569" y="85"/>
      <point x="575" y="36"/>
      <point x="500" y="33" type="curve"/>
      <point x="500" y="0" type="line"/>
      <point x="626" y="0" type="line" smooth="yes"/>
      <point x="692" y="0"/>
      <point x="706" y="-78"/>
    </contour>
  </outline>
</glyph>
<glyph name="Enghe-cy" format="2">
  <advance width="982"/>
  <unicode hex="04A4"/>
  <outline>
    <contour>
      <point x="55" y="0" type="line"/>
      <point x="280" y="0" type="line"/>
      <point x="280" y="44" type="line"/>
      <point x="256" y="43"/>
      <point x="232" y="41"/>
      <point x="208" y="40" type="curve"/>
      <point x="210" y="57"/>
      <point x="211" y="83"/>
      <point x="211" y="119" type="curve" smooth="yes"/>
      <point x="211" y="334" type="line"/>
      <point x="570" y="338" type="line"/>
      <point x="570" y="378" type="line"/>
      <point x="211" y="378" type="line"/>
      <point x="211" y="544" type="line" smooth="yes"/>
      <point x="211" y="615"/>
      <point x="205" y="664"/>
      <point x="280" y="667" type="curve"/>
      <point x="280" y="700" type="line"/>
      <point x="55" y="700" type="line"/>
      <point x="55" y="656" type="line"/>
      <point x="79" y="657"/>
      <point x="103" y="659"/>
      <point x="127" y="660" type="curve"/>
      <point x="125" y="640"/>
      <point x="124" y="615"/>
      <point x="124" y="588" type="curve" smooth="yes"/>
      <point x="124" y="156" type="line" smooth="yes"/>
      <point x="124" y="85"/>
      <point x="130" y="36"/>
      <point x="55" y="33" type="curve"/>
    </contour>
    <contour>
      <point x="500" y="0" type="line"/>
      <point x="755" y="0" type="line"/>
      <point x="755" y="44" type="line"/>
      <point x="721" y="43"/>
      <point x="687" y="41"/>
      <point x="653" y="40" type="curve"/>
      <point x="655" y="57"/>
      <point x="656" y="83"/>
      <point x="656" y="119" type="curve" smooth="yes"/>
      <point x="656" y="540" type="line" smooth="yes"/>
      <point x="656" y="609"/>
      <point x="651" y="661"/>
      <point x="725" y="663" type="curve" smooth="yes"/>
      <point x="798" y="665" type="line" smooth="yes"/>
      <point x="873" y="667"/>
      <point x="932" y="643"/>
      <point x="932" y="525" type="curve"/>
      <point x="969" y="525" type="line"/>
      <point x="964" y="700" type="line"/>
      <point x="500" y="700" type="line"/>
      <point x="500" y="656" type="line"/>
      <point x="524" y="657"/>
      <point x="548" y="659"/>
      <point x="572" y="660" type="curve"/>
      <point x="570" y="640"/>
      <point x="569" y="615"/>
      <point x="569" y="588" type="curve" smooth="yes"/>
      <point x="569" y="156" type="line" smooth="yes"/>
      <point x="569" y="85"/>
      <point x="575" y="36"/>
      <point x="500" y="33" type="curve"/>
    </contour>
  </outline>
</glyph>
<glyph name="pemiddlehook-cy" format="2">
  <advance width="810"/>
  <unicode hex="04A7"/>
  <outline>
    <contour>
      <point x="612" y="-229" type="curve" smooth="yes"/>
      <point x="713" y="-229"/>
      <point x="810" y="-95"/>
      <point x="810" y="62" type="curve" smooth="yes"/>
      <point x="810" y="188"/>
      <point x="744" y="283"/>
      <point x="610" y="283" type="curve" smooth="yes"/>
      <point x="570" y="283"/>
      <point x="533" y="273"/>
      <point x="501" y="261" type="curve"/>
      <point x="501" y="226" type="line"/>
      <point x="527" y="235"/>
      <point x="548" y="239"/>
      <point x="587" y="239" type="curve" smooth="yes"/>
      <point x="695" y="239"/>
      <point x="714" y="162"/>
      <point x="713" y="60" type="curve" smooth="yes"/>
      <point x="711" y="-108"/>
      <point x="677" y="-194"/>
      <point x="602" y="-194" type="curve" smooth="yes"/>
      <point x="593" y="-194"/>
      <point x="584" y="-193"/>
      <point x="573" y="-191" type="curve"/>
      <point x="564" y="-222" type="line"/>
      <point x="581" y="-227"/>
      <point x="596" y="-229"/>
    </contour>
    <component base="pe-cy"/>
  </outline>
</glyph>
<glyph name="Esdescender-cy" format="2">
  <advance width="699"/>
  <unicode hex="04AA"/>
  <outline>
    <contour>
      <point x="350" y="-186" type="line" smooth="yes"/>
      <point x="414" y="-186" type="line"/>
      <point x="403" y="0" type="line"/>
      <point x="350" y="-1" type="line"/>
    </contour>
    <component base="Es-cy"/>
  </outline>
</glyph>
<glyph name="Ustraightstroke-cy" format="2">
  <advance width="634"/>
  <unicode hex="04B0"/>
  <outline>
    <contour>
      <point x="134" y="270" type="line"/>
      <point x="517" y="274" type="line"/>
      <point x="517" y="313" type="line"/>
      <point x="134" y="313" type="line"/>
    </contour>
    <component base="Y"/>
  </outline>
</glyph>
<glyph name="Hadescender-cy" format="2">
  <advance width="651"/>
  <unicode hex="04B2"/>
  <outline>
    <contour>
      <point x="650" y="-178" type="curve"/>
      <point x="691" y="-178" type="line"/>
      <point x="691" y="45" type="line"/>
      <point x="599" y="40" type="line"/>
      <point x="576" y="72"/>
      <point x="552" y="103"/>
      <point x="529" y="135" type="curve"/>
      <point x="353" y="368" type="line"/>
      <point x="466" y="528" type="line" smooth="yes"/>
      <point x="508" y="588"/>
      <point x="559" y="658"/>
      <point x="623" y="667" type="curve"/>
      <point x="623" y="700" type="line"/>
      <point x="426" y="700" type="line"/>
      <point x="426" y="656" type="line"/>
      <point x="454" y="657"/>
      <point x="482" y="659"/>
      <point x="510" y="660" type="curve"/>
      <point x="489" y="641"/>
      <point x="455" y="592"/>
      <point x="421" y="544" type="curve" smooth="yes"/>
      <point x="325" y="405" type="line"/>
      <point x="201" y="584" type="line"/>
      <point x="178" y="621"/>
      <point x="151" y="662"/>
      <point x="224" y="665" type="curve" smooth="yes"/>
      <point x="268" y="667" type="line"/>
      <point x="268" y="700" type="line"/>
      <point x="9" y="700" type="line"/>
      <point x="9" y="656" type="line"/>
      <point x="27" y="657"/>
      <point x="46" y="657"/>
      <point x="64" y="658" type="curve"/>
      <point x="76" y="628"/>
      <point x="87" y="609"/>
      <point x="123" y="557" type="curve"/>
      <point x="279" y="339" type="line"/>
      <point x="149" y="153" type="line" smooth="yes"/>
      <point x="104" y="87"/>
      <point x="76" y="46"/>
      <point x="12" y="33" type="curve"/>
      <point x="12" y="0" type="line"/>
      <point x="208" y="0" type="line"/>
      <point x="208" y="44" type="line"/>
      <point x="180" y="42"/>
      <point x="153" y="41"/>
      <point x="125" y="39" type="curve"/>
      <point x="158" y="77"/>
      <point x="183" y="117"/>
      <point x="207" y="153" type="curve"/>
      <point x="306" y="300" type="line"/>
      <point x="453" y="106" type="line"/>
      <point x="477" y="73"/>
      <point x="488" y="30"/>
      <point x="411" y="33" type="curve"/>
      <point x="411" y="0" type="line"/>
      <point x="570" y="0" type="line" smooth="yes"/>
      <point x="636" y="0"/>
      <point x="650" y="-78"/>
    </contour>
  </outline>
</glyph>
<glyph name="hadescender-cy" format="2">
  <advance width="535"/>
  <unicode hex="04B3"/>
  <outline>
    <contour>
      <point x="502" y="-178" type="curve"/>
      <point x="540" y="-178" type="line"/>
      <point x="540" y="42" type="line"/>
      <point x="474" y="38" type="line"/>
      <point x="459" y="63"/>
      <point x="445" y="80"/>
      <point x="430" y="100" type="curve"/>
      <point x="292" y="271" type="line"/>
      <point x="369" y="363" type="line" smooth="yes"/>
      <point x="423" y="428"/>
      <point x="443" y="454"/>
      <point x="498" y="470" type="curve"/>
      <point x="498" y="500" type="line"/>
      <point x="334" y="500" type="line"/>
      <point x="334" y="459" type="line"/>
      <point x="403" y="463" type="line"/>
      <point x="389" y="449"/>
      <point x="378" y="434"/>
      <point x="358" y="410" type="curve" smooth="yes"/>
      <point x="267" y="300" type="line"/>
      <point x="209" y="379" type="line" smooth="yes"/>
      <point x="159" y="447"/>
      <point x="168" y="468"/>
      <point x="228" y="470" type="curve"/>
      <point x="228" y="500" type="line"/>
      <point x="22" y="500" type="line"/>
      <point x="22" y="459" type="line"/>
      <point x="69" y="461" type="line"/>
      <point x="76" y="443"/>
      <point x="88" y="416"/>
      <point x="120" y="374" type="curve" smooth="yes"/>
      <point x="139" y="349"/>
      <point x="190" y="279"/>
      <point x="219" y="241" type="curve"/>
      <point x="119" y="111" type="line" smooth="yes"/>
      <point x="82" y="63"/>
      <point x="65" y="40"/>
      <point x="24" y="30" type="curve"/>
      <point x="24" y="0" type="line"/>
      <point x="192" y="0" type="line"/>
      <point x="192" y="41" type="line"/>
      <point x="115" y="38" type="line"/>
      <point x="135" y="59"/>
      <point x="141" y="67"/>
      <point x="161" y="94" type="curve" smooth="yes"/>
      <point x="245" y="209" type="line"/>
      <point x="350" y="79" type="line" smooth="yes"/>
      <point x="378" y="44"/>
      <point x="358" y="30"/>
      <point x="326" y="30" type="curve"/>
      <point x="326" y="0" type="line"/>
      <point x="419" y="0" type="line" smooth="yes"/>
      <point x="485" y="0"/>
      <point x="502" y="-78"/>
    </contour>
  </outline>
</glyph>
<glyph name="tetse-cy" format="2">
  <advance width="773"/>
  <unicode hex="04B5"/>
  <outline>
    <contour>
      <point x="708" y="-178" type="curve"/>
      <point x="746" y="-178" type="line"/>
      <point x="746" y="42" type="line"/>
      <point x="657" y="38" type="line"/>
      <point x="660" y="61"/>
      <point x="660" y="79"/>
      <point x="660" y="106" type="curve" smooth="yes"/>
      <point x="661" y="348" type="line" smooth="yes"/>
      <point x="662" y="420"/>
      <point x="660" y="470"/>
      <point x="721" y="470" type="curve"/>
      <point x="721" y="500" type="line"/>
      <point x="517" y="500" type="line"/>
      <point x="517" y="459" type="line"/>
      <point x="580" y="462" type="line"/>
      <point x="576" y="439"/>
      <point x="576" y="421"/>
      <point x="576" y="394" type="curve" smooth="yes"/>
      <point x="575" y="152" type="line" smooth="yes"/>
      <point x="574" y="82"/>
      <point x="577" y="43"/>
      <point x="521" y="40" type="curve"/>
      <point x="285" y="38" type="line"/>
      <point x="289" y="61"/>
      <point x="289" y="79"/>
      <point x="289" y="106" type="curve" smooth="yes"/>
      <point x="290" y="458" type="line"/>
      <point x="344" y="458" type="line" smooth="yes"/>
      <point x="406" y="457"/>
      <point x="423" y="432"/>
      <point x="425" y="349" type="curve"/>
      <point x="463" y="349" type="line"/>
      <point x="458" y="500" type="line"/>
      <point x="26" y="500" type="line"/>
      <point x="22" y="349" type="line"/>
      <point x="60" y="349" type="line"/>
      <point x="60" y="433"/>
      <point x="83" y="458"/>
      <point x="137" y="458" type="curve" smooth="yes"/>
      <point x="208" y="458" type="line"/>
      <point x="204" y="435"/>
      <point x="204" y="421"/>
      <point x="204" y="394" type="curve" smooth="yes"/>
      <point x="203" y="152" type="line" smooth="yes"/>
      <point x="203" y="80"/>
      <point x="205" y="30"/>
      <point x="144" y="30" type="curve"/>
      <point x="144" y="0" type="line"/>
      <point x="625" y="0" type="line" smooth="yes"/>
      <point x="691" y="0"/>
      <point x="708" y="-78"/>
    </contour>
  </outline>
</glyph>
<glyph name="Chedescender-cy" format="2">
  <advance width="702"/>
  <unicode hex="04B6"/>
  <outline>
    <contour>
      <point x="621" y="-178" type="curve"/>
      <point x="662" y="-178" type="line"/>
      <point x="662" y="49" type="line"/>
      <point x="575" y="44" type="line"/>
      <point x="577" y="61"/>
      <point x="578" y="85"/>
      <point x="578" y="119" type="curve" smooth="yes"/>
      <point x="578" y="544" type="line" smooth="yes"/>
      <point x="578" y="615"/>
      <point x="572" y="664"/>
      <point x="647" y="667" type="curve"/>
      <point x="647" y="700" type="line"/>
      <point x="422" y="700" type="line"/>
      <point x="422" y="656" type="line"/>
      <point x="446" y="657"/>
      <point x="470" y="659"/>
      <point x="494" y="660" type="curve"/>
      <point x="492" y="640"/>
      <point x="491" y="615"/>
      <point x="491" y="588" type="curve" smooth="yes"/>
      <point x="491" y="360" type="line"/>
      <point x="456" y="339"/>
      <point x="403" y="325"/>
      <point x="344" y="324" type="curve" smooth="yes"/>
      <point x="234" y="323"/>
      <point x="189" y="383"/>
      <point x="188" y="451" type="curve"/>
      <point x="189" y="610"/>
      <point x="178" y="664"/>
      <point x="257" y="667" type="curve"/>
      <point x="257" y="700" type="line"/>
      <point x="32" y="700" type="line"/>
      <point x="32" y="656" type="line"/>
      <point x="56" y="657"/>
      <point x="80" y="659"/>
      <point x="104" y="660" type="curve"/>
      <point x="101" y="638"/>
      <point x="101" y="610"/>
      <point x="101" y="473" type="curve" smooth="yes"/>
      <point x="101" y="345"/>
      <point x="163" y="273"/>
      <point x="308" y="273" type="curve" smooth="yes"/>
      <point x="378" y="273"/>
      <point x="444" y="288"/>
      <point x="491" y="311" type="curve"/>
      <point x="491" y="156" type="line" smooth="yes"/>
      <point x="491" y="85"/>
      <point x="497" y="36"/>
      <point x="422" y="33" type="curve"/>
      <point x="422" y="0" type="line"/>
      <point x="541" y="0" type="line" smooth="yes"/>
      <point x="607" y="0"/>
      <point x="621" y="-78"/>
    </contour>
  </outline>
</glyph>
<glyph name="cheabkhasian-cy" format="2">
  <advance width="619"/>
  <unicode hex="04BD"/>
  <outline>
    <contour>
      <point x="175" y="289" type="curve" smooth="yes"/>
      <point x="574" y="295" type="line"/>
      <point x="574" y="444"/>
      <point x="482" y="516"/>
      <point x="371" y="516" type="curve" smooth="yes"/>
      <point x="220" y="516"/>
      <point x="120" y="389"/>
      <point x="119" y="249" type="curve" smooth="yes"/>
      <point x="118" y="87"/>
      <point x="225" y="-16"/>
      <point x="363" y="-16" type="curve" smooth="yes"/>
      <point x="431" y="-16"/>
      <point x="525" y="15"/>
      <point x="580" y="98" type="curve"/>
      <point x="556" y="118" type="line"/>
      <point x="522" y="71"/>
      <point x="449" y="35"/>
      <point x="387" y="35" type="curve" smooth="yes"/>
      <point x="270" y="35"/>
      <point x="222" y="136"/>
      <point x="222" y="289" type="curve" smooth="yes"/>
      <point x="222" y="410"/>
      <point x="284" y="481"/>
      <point x="372" y="481" type="curve" smooth="yes"/>
      <point x="450" y="481"/>
      <point x="480" y="399"/>
      <point x="480" y="328" type="curve"/>
      <point x="173" y="328" type="line" smooth="yes"/>
      <point x="77" y="328"/>
      <point x="43" y="351"/>
      <point x="43" y="381" type="curve" smooth="yes"/>
      <point x="43" y="387"/>
      <point x="44" y="391"/>
      <point x="48" y="397" type="curve"/>
      <point x="55" y="390"/>
      <point x="66" y="388"/>
      <point x="70" y="388" type="curve" smooth="yes"/>
      <point x="89" y="388"/>
      <point x="115" y="402"/>
      <point x="115" y="433" type="curve" smooth="yes"/>
      <point x="115" y="459"/>
      <point x="98" y="480"/>
      <point x="64" y="480" type="curve" smooth="yes"/>
      <point x="25" y="480"/>
      <point x="-7" y="438"/>
      <point x="-5" y="393" type="curve" smooth="yes"/>
      <point x="-2" y="322"/>
      <point x="58" y="287"/>
    </contour>
  </outline>
</glyph>
<glyph name="Chedescenderabkhasian-cy" format="2">
  <advance width="834"/>
  <unicode hex="04BE"/>
  <outline>
    <contour>
      <point x="457" y="-186" type="line" smooth="yes"/>
      <point x="521" y="-186" type="line"/>
      <point x="510" y="0" type="line"/>
      <point x="457" y="-1" type="line"/>
    </contour>
    <component base="Cheabkhasian-cy"/>
  </outline>
</glyph>
<glyph name="Kahook-cy" format="2">
  <advance width="641"/>
  <unicode hex="04C3"/>
  <outline>
    <contour>
      <point x="469" y="-238" type="line"/>
      <point x="585" y="-201"/>
      <point x="631" y="-133"/>
      <point x="631" y="-56" type="curve" smooth="yes"/>
      <point x="631" y="35"/>
      <point x="597" y="112"/>
      <point x="531" y="206" type="curve" smooth="yes"/>
      <point x="468" y="296"/>
      <point x="389" y="352"/>
      <point x="336" y="376" type="curve"/>
      <point x="434" y="532" type="line" smooth="yes"/>
      <point x="502" y="641"/>
      <point x="552" y="660"/>
      <point x="636" y="667" type="curve"/>
      <point x="636" y="700" type="line"/>
      <point x="421" y="700" type="line"/>
      <point x="421" y="659" type="line"/>
      <point x="441" y="660"/>
      <point x="462" y="660"/>
      <point x="482" y="661" type="curve"/>
      <point x="455" y="639"/>
      <point x="428" y="603"/>
      <point x="411" y="577" type="curve" smooth="yes"/>
      <point x="286" y="380" type="line"/>
      <point x="211" y="380" type="line"/>
      <point x="211" y="544" type="line" smooth="yes"/>
      <point x="211" y="615"/>
      <point x="205" y="664"/>
      <point x="280" y="667" type="curve"/>
      <point x="280" y="700" type="line"/>
      <point x="55" y="700" type="line"/>
      <point x="55" y="656" type="line"/>
      <point x="79" y="657"/>
      <point x="103" y="659"/>
      <point x="127" y="660" type="curve"/>
      <point x="125" y="640"/>
      <point x="124" y="615"/>
      <point x="124" y="588" type="curve" smooth="yes"/>
      <point x="124" y="156" type="line" smooth="yes"/>
      <point x="124" y="85"/>
      <point x="130" y="36"/>
      <point x="55" y="33" type="curve"/>
      <point x="55" y="0" type="line"/>
      <point x="280" y="0" type="line"/>
      <point x="280" y="44" type="line"/>
      <point x="256" y="43"/>
      <point x="232" y="41"/>
      <point x="208" y="40" type="curve"/>
      <point x="210" y="57"/>
      <point x="211" y="83"/>
      <point x="211" y="119" type="curve" smooth="yes"/>
      <point x="211" y="340" type="line"/>
      <point x="260" y="341" type="line"/>
      <point x="292" y="325"/>
      <point x="374" y="274"/>
      <point x="447" y="173" type="curve" smooth="yes"/>
      <point x="518" y="74"/>
      <point x="559" y="-8"/>
      <point x="559" y="-83" type="curve" smooth="yes"/>
      <point x="559" y="-142"/>
      <point x="528" y="-185"/>
      <point x="460" y="-207" type="curve"/>
    </contour>
  </outline>
</glyph>
<glyph name="kahook-cy" format="2">
  <advance width="547"/>
  <unicode hex="04C4"/>
  <outline>
    <contour>
      <point x="402" y="-239" type="line"/>
      <point x="471" y="-210"/>
      <point x="537" y="-149"/>
      <point x="537" y="-62" type="curve" smooth="yes"/>
      <point x="537" y="7"/>
      <point x="504" y="87"/>
      <point x="435" y="166" type="curve" smooth="yes"/>
      <point x="373" y="237"/>
      <point x="331" y="264"/>
      <point x="286" y="283" type="curve"/>
      <point x="364" y="365" type="line" smooth="yes"/>
      <point x="400" y="402"/>
      <point x="456" y="463"/>
      <point x="524" y="470" type="curve"/>
      <point x="524" y="500" type="line"/>
      <point x="342" y="500" type="line"/>
      <point x="342" y="460" type="line"/>
      <point x="410" y="463" type="line" smooth="yes"/>
      <point x="391" y="451"/>
      <point x="373" y="433"/>
      <point x="351" y="410" type="curve" smooth="yes"/>
      <point x="229" y="282" type="line"/>
      <point x="190" y="282" type="line"/>
      <point x="191" y="348" type="line" smooth="yes"/>
      <point x="191" y="420"/>
      <point x="189" y="470"/>
      <point x="250" y="470" type="curve"/>
      <point x="250" y="500" type="line"/>
      <point x="46" y="500" type="line"/>
      <point x="46" y="459" type="line"/>
      <point x="67" y="460"/>
      <point x="88" y="461"/>
      <point x="109" y="462" type="curve"/>
      <point x="105" y="439"/>
      <point x="105" y="421"/>
      <point x="105" y="394" type="curve" smooth="yes"/>
      <point x="104" y="152" type="line" smooth="yes"/>
      <point x="103" y="80"/>
      <point x="105" y="30"/>
      <point x="44" y="30" type="curve"/>
      <point x="44" y="0" type="line"/>
      <point x="248" y="0" type="line"/>
      <point x="248" y="41" type="line"/>
      <point x="227" y="40"/>
      <point x="206" y="39"/>
      <point x="185" y="38" type="curve"/>
      <point x="189" y="61"/>
      <point x="189" y="79"/>
      <point x="189" y="106" type="curve" smooth="yes"/>
      <point x="190" y="243" type="line"/>
      <point x="230" y="245" type="line"/>
      <point x="276" y="219"/>
      <point x="332" y="165"/>
      <point x="382" y="99" type="curve" smooth="yes"/>
      <point x="450" y="10"/>
      <point x="469" y="-49"/>
      <point x="469" y="-98" type="curve" smooth="yes"/>
      <point x="469" y="-150"/>
      <point x="437" y="-186"/>
      <point x="388" y="-209" type="curve"/>
    </contour>
  </outline>
</glyph>
<glyph name="Eltail-cy" format="2">
  <advance width="702"/>
  <unicode hex="04C5"/>
  <outline>
    <contour>
      <point x="573" y="42" type="line"/>
      <point x="575" y="59"/>
      <point x="576" y="84"/>
      <point x="576" y="119" type="curve" smooth="yes"/>
      <point x="576" y="544" type="line" smooth="yes"/>
      <point x="576" y="615"/>
      <point x="570" y="664"/>
      <point x="645" y="667" type="curve"/>
      <point x="645" y="700" type="line"/>
      <point x="150" y="700" type="line"/>
      <point x="150" y="656" type="line"/>
      <point x="223" y="660" type="line"/>
      <point x="244" y="660" type="line"/>
      <point x="244" y="511" type="line" smooth="yes"/>
      <point x="244" y="178"/>
      <point x="157" y="25"/>
      <point x="112" y="25" type="curve" smooth="yes"/>
      <point x="105" y="25"/>
      <point x="101" y="27"/>
      <point x="95" y="33" type="curve"/>
      <point x="103" y="41"/>
      <point x="105" y="47"/>
      <point x="105" y="60" type="curve" smooth="yes"/>
      <point x="105" y="80"/>
      <point x="89" y="106"/>
      <point x="56" y="104" type="curve" smooth="yes"/>
      <point x="27" y="103"/>
      <point x="7" y="81"/>
      <point x="7" y="52" type="curve" smooth="yes"/>
      <point x="7" y="10"/>
      <point x="51" y="-16"/>
      <point x="99" y="-16" type="curve" smooth="yes"/>
      <point x="249" y="-16"/>
      <point x="292" y="290"/>
      <point x="292" y="582" type="curve"/>
      <point x="294" y="634"/>
      <point x="300" y="660"/>
      <point x="348" y="660" type="curve" smooth="yes"/>
      <point x="489" y="661" type="line"/>
      <point x="489" y="156" type="line" smooth="yes"/>
      <point x="489" y="85"/>
      <point x="495" y="36"/>
      <point x="419" y="33" type="curve"/>
      <point x="419" y="0" type="line"/>
      <point x="547" y="0" type="line" smooth="yes"/>
      <point x="587" y="0"/>
      <point x="582" y="-19"/>
      <point x="547" y="-178" type="curve"/>
      <point x="588" y="-178" type="line"/>
      <point x="668" y="48" type="line"/>
    </contour>
  </outline>
</glyph>
<glyph name="entail-cy" format="2">
  <advance width="628"/>
  <unicode hex="04CA"/>
  <outline>
    <contour>
      <point x="500" y="-178" type="curve"/>
      <point x="538" y="-178" type="line"/>
      <point x="608" y="45" type="line"/>
      <point x="515" y="41" type="line"/>
      <point x="518" y="63"/>
      <point x="518" y="80"/>
      <point x="518" y="106" type="curve" smooth="yes"/>
      <point x="519" y="348" type="line" smooth="yes"/>
      <point x="520" y="420"/>
      <point x="517" y="470"/>
      <point x="578" y="470" type="curve"/>
      <point x="578" y="500" type="line"/>
      <point x="374" y="500" type="line"/>
      <point x="374" y="459" type="line"/>
      <point x="437" y="462" type="line"/>
      <point x="433" y="439"/>
      <point x="433" y="421"/>
      <point x="433" y="394" type="curve" smooth="yes"/>
      <point x="433" y="276" type="line"/>
      <point x="190" y="276" type="line"/>
      <point x="190" y="348" type="line" smooth="yes"/>
      <point x="191" y="420"/>
      <point x="188" y="470"/>
      <point x="250" y="470" type="curve"/>
      <point x="250" y="500" type="line"/>
      <point x="45" y="500" type="line"/>
      <point x="45" y="459" type="line"/>
      <point x="108" y="462" type="line"/>
      <point x="104" y="439"/>
      <point x="104" y="421"/>
      <point x="104" y="394" type="curve" smooth="yes"/>
      <point x="104" y="152" type="line" smooth="yes"/>
      <point x="103" y="80"/>
      <point x="105" y="30"/>
      <point x="44" y="30" type="curve"/>
      <point x="44" y="0" type="line"/>
      <point x="248" y="0" type="line"/>
      <point x="248" y="41" type="line"/>
      <point x="185" y="38" type="line"/>
      <point x="189" y="61"/>
      <point x="189" y="79"/>
      <point x="189" y="106" type="curve" smooth="yes"/>
      <point x="190" y="233" type="line"/>
      <point x="432" y="237" type="line"/>
      <point x="432" y="152" type="line" smooth="yes"/>
      <point x="432" y="80"/>
      <point x="434" y="30"/>
      <point x="373" y="30" type="curve"/>
      <point x="373" y="0" type="line"/>
      <point x="487" y="0" type="line" smooth="yes"/>
      <point x="520" y="0"/>
      <point x="536" y="-24"/>
    </contour>
  </outline>
</glyph>
<glyph name="chekhakassian-cy" format="2">
  <advance width="558"/>
  <unicode hex="04CC"/>
  <outline>
    <contour>
      <point x="248" y="-178" type="line"/>
      <point x="286" y="-178" type="line"/>
      <point x="286" y="-78"/>
      <point x="303" y="0"/>
      <point x="369" y="0" type="curve" smooth="yes"/>
      <point x="513" y="0" type="line"/>
      <point x="513" y="41" type="line"/>
      <point x="450" y="38" type="line"/>
      <point x="454" y="61"/>
      <point x="454" y="79"/>
      <point x="454" y="106" type="curve" smooth="yes"/>
      <point x="455" y="348" type="line" smooth="yes"/>
      <point x="456" y="420"/>
      <point x="453" y="470"/>
      <point x="514" y="470" type="curve"/>
      <point x="514" y="500" type="line"/>
      <point x="310" y="500" type="line"/>
      <point x="310" y="459" type="line"/>
      <point x="373" y="462" type="line"/>
      <point x="369" y="439"/>
      <point x="369" y="421"/>
      <point x="369" y="394" type="curve" smooth="yes"/>
      <point x="368.438" y="257.926" type="line"/>
      <point x="336.482" y="249.894"/>
      <point x="300.458" y="246"/>
      <point x="273" y="246" type="curve" smooth="yes"/>
      <point x="198.31" y="246"/>
      <point x="162.299" y="291.62"/>
      <point x="162.002" y="359.158" type="curve" smooth="yes"/>
      <point x="163.015" y="444.032"/>
      <point x="175.029" y="470"/>
      <point x="221" y="470" type="curve"/>
      <point x="221" y="500" type="line"/>
      <point x="17" y="500" type="line"/>
      <point x="17" y="459" type="line"/>
      <point x="80" y="462" type="line"/>
      <point x="77" y="445"/>
      <point x="76" y="415"/>
      <point x="76" y="365" type="curve" smooth="yes"/>
      <point x="76" y="258"/>
      <point x="140" y="195"/>
      <point x="255" y="195" type="curve" smooth="yes"/>
      <point x="284.42" y="195"/>
      <point x="329.042" y="199.471"/>
      <point x="368.237" y="209.309" type="curve"/>
      <point x="368" y="152" type="line" smooth="yes"/>
      <point x="368" y="80"/>
      <point x="370" y="33"/>
      <point x="309" y="30" type="curve" smooth="yes"/>
      <point x="248" y="27" type="line"/>
    </contour>
  </outline>
</glyph>
<glyph name="Emtail-cy" format="2">
  <advance width="918"/>
  <unicode hex="04CD"/>
  <outline>
    <contour>
      <point x="811" y="42" type="line"/>
      <point x="811" y="59"/>
      <point x="811" y="81"/>
      <point x="809" y="103" type="curve" smooth="yes"/>
      <point x="783" y="558" type="line" smooth="yes"/>
      <point x="778" y="640"/>
      <point x="802" y="668"/>
      <point x="852" y="667" type="curve"/>
      <point x="852" y="700" type="line"/>
      <point x="704" y="700" type="line"/>
      <point x="519" y="251" type="line" smooth="yes"/>
      <point x="504" y="215"/>
      <point x="483" y="158"/>
      <point x="468" y="122" type="curve"/>
      <point x="466" y="122" type="line"/>
      <point x="439" y="184"/>
      <point x="413" y="243"/>
      <point x="388" y="303" type="curve" smooth="yes"/>
      <point x="216" y="700" type="line"/>
      <point x="63" y="700" type="line"/>
      <point x="63" y="657" type="line"/>
      <point x="135" y="660" type="line"/>
      <point x="134" y="634"/>
      <point x="133" y="607"/>
      <point x="132" y="581" type="curve"/>
      <point x="113" y="125" type="line" smooth="yes"/>
      <point x="111" y="76"/>
      <point x="106" y="34"/>
      <point x="44" y="33" type="curve"/>
      <point x="44" y="0" type="line"/>
      <point x="235" y="0" type="line"/>
      <point x="235" y="44" type="line"/>
      <point x="160" y="40" type="line"/>
      <point x="163" y="65"/>
      <point x="163" y="95"/>
      <point x="164" y="125" type="curve" smooth="yes"/>
      <point x="166" y="246"/>
      <point x="171" y="409"/>
      <point x="174" y="510" type="curve" smooth="yes"/>
      <point x="174" y="517"/>
      <point x="176" y="570"/>
      <point x="176" y="587" type="curve"/>
      <point x="201" y="520"/>
      <point x="227" y="455"/>
      <point x="255" y="391" type="curve"/>
      <point x="432" y="-10" type="line"/>
      <point x="462" y="-10" type="line"/>
      <point x="700" y="578" type="line"/>
      <point x="726" y="152" type="line" smooth="yes"/>
      <point x="730" y="76"/>
      <point x="722" y="35"/>
      <point x="660" y="33" type="curve"/>
      <point x="660" y="0" type="line"/>
      <point x="781" y="0" type="line" smooth="yes"/>
      <point x="821" y="0"/>
      <point x="816" y="-19"/>
      <point x="781" y="-178" type="curve"/>
      <point x="822" y="-178" type="line"/>
      <point x="902" y="48" type="line"/>
    </contour>
  </outline>
</glyph>
<glyph name="emtail-cy" format="2">
  <advance width="738"/>
  <unicode hex="04CE"/>
  <outline>
    <contour>
      <point x="624" y="-178" type="curve"/>
      <point x="662" y="-178" type="line"/>
      <point x="732" y="45" type="line"/>
      <point x="642" y="41" type="line"/>
      <point x="644" y="56"/>
      <point x="644" y="78"/>
      <point x="642" y="94" type="curve" smooth="yes"/>
      <point x="596" y="398" type="line" smooth="yes"/>
      <point x="588" y="451"/>
      <point x="609" y="470"/>
      <point x="646" y="470" type="curve"/>
      <point x="646" y="500" type="line"/>
      <point x="528" y="500" type="line"/>
      <point x="370" y="115" type="line"/>
      <point x="359" y="140"/>
      <point x="349" y="166"/>
      <point x="338" y="191" type="curve" smooth="yes"/>
      <point x="206" y="500" type="line"/>
      <point x="73" y="500" type="line"/>
      <point x="73" y="459" type="line"/>
      <point x="134" y="462" type="line"/>
      <point x="90" y="97" type="line" smooth="yes"/>
      <point x="85" y="55"/>
      <point x="74" y="29"/>
      <point x="32" y="30" type="curve"/>
      <point x="32" y="0" type="line"/>
      <point x="186" y="0" type="line"/>
      <point x="186" y="41" type="line"/>
      <point x="123" y="39" type="line"/>
      <point x="128" y="55"/>
      <point x="133" y="80"/>
      <point x="135" y="97" type="curve" smooth="yes"/>
      <point x="159" y="290" type="line"/>
      <point x="163" y="321"/>
      <point x="166" y="351"/>
      <point x="170" y="382" type="curve"/>
      <point x="326" y="0" type="line"/>
      <point x="366" y="0" type="line"/>
      <point x="519" y="372" type="line"/>
      <point x="558" y="115" type="line" smooth="yes"/>
      <point x="567" y="55"/>
      <point x="546" y="28"/>
      <point x="505" y="30" type="curve"/>
      <point x="505" y="0" type="line"/>
      <point x="611" y="0" type="line" smooth="yes"/>
      <point x="644" y="0"/>
      <point x="660" y="-24"/>
    </contour>
  </outline>
</glyph>
<glyph name="schwa-cy" format="2">
  <advance width="541"/>
  <unicode hex="04D9"/>
  <anchor x="251" y="500" name="top"/>
  <outline>
    <contour>
      <point x="248" y="-16" type="curve" smooth="yes"/>
      <point x="399" y="-16"/>
      <point x="500" y="114"/>
      <point x="500" y="254" type="curve" smooth="yes"/>
      <point x="500" y="416"/>
      <point x="387" y="516"/>
      <point x="251" y="516" type="curve" smooth="yes"/>
      <point x="196" y="516"/>
      <point x="156" y="500"/>
      <point x="105" y="470" type="curve"/>
      <point x="107" y="511" type="line"/>
      <point x="65" y="511" type="line"/>
      <point x="65" y="336" type="line"/>
      <point x="97" y="336" type="line"/>
      <point x="102" y="410"/>
      <point x="154" y="478"/>
      <point x="240" y="478" type="curve" smooth="yes"/>
      <point x="343" y="478"/>
      <point x="401" y="388"/>
      <point x="396" y="211" type="curve"/>
      <point x="45" y="205" type="line"/>
      <point x="45" y="49"/>
      <point x="142" y="-16"/>
    </contour>
    <contour>
      <point x="252" y="23" type="curve" smooth="yes"/>
      <point x="167" y="23"/>
      <point x="139" y="99"/>
      <point x="139" y="169" type="curve"/>
      <point x="389" y="169" type="line"/>
      <point x="368" y="66"/>
      <point x="317" y="23"/>
    </contour>
  </outline>
</glyph>
<glyph name="obarred-cy" format="2">
  <advance width="585"/>
  <unicode hex="04E9"/>
  <anchor x="293" y="500" name="top"/>
  <outline>
    <contour>
      <point x="135" y="276" type="line"/>
      <point x="135" y="233" type="line"/>
      <point x="449" y="237" type="line"/>
      <point x="449" y="276" type="line"/>
    </contour>
    <component base="o"/>
  </outline>
</glyph>
<glyph name="Gedescender-cy" format="2">
  <advance width="548"/>
  <unicode hex="04F6"/>
  <outline>
    <contour>
      <point x="519" y="700" type="line"/>
      <point x="55" y="700" type="line"/>
      <point x="55" y="656" type="line"/>
      <point x="79" y="657"/>
      <point x="103" y="659"/>
      <point x="127" y="660" type="curve"/>
      <point x="125" y="640"/>
      <point x="124" y="615"/>
      <point x="124" y="588" type="curve" smooth="yes"/>
      <point x="124" y="156" type="line" smooth="yes"/>
      <point x="124" y="85"/>
      <point x="130" y="36"/>
      <point x="55" y="33" type="curve"/>
      <point x="55" y="0" type="line"/>
      <point x="194" y="0" type="line" smooth="yes"/>
      <point x="260" y="0"/>
      <point x="274" y="-78"/>
      <point x="274" y="-178" type="curve"/>
      <point x="315" y="-178" type="line"/>
      <point x="315" y="49" type="line"/>
      <point x="208" y="42" type="line"/>
      <point x="210" y="59"/>
      <point x="211" y="85"/>
      <point x="211" y="119" type="curve" smooth="yes"/>
      <point x="211" y="540" type="line" smooth="yes"/>
      <point x="211" y="609"/>
      <point x="206" y="661"/>
      <point x="280" y="663" type="curve" smooth="yes"/>
      <point x="353" y="665" type="line" smooth="yes"/>
      <point x="428" y="667"/>
      <point x="487" y="643"/>
      <point x="487" y="525" type="curve"/>
      <point x="524" y="525" type="line"/>
    </contour>
  </outline>
</glyph>
<glyph name="Gestrokehook-cy" format="2">
  <advance width="548"/>
  <unicode hex="04FA"/>
  <outline>
    <contour>
      <point x="141" y="-229" type="curve" smooth="yes"/>
      <point x="261" y="-229"/>
      <point x="307" y="-138"/>
      <point x="310" y="0" type="curve"/>
      <point x="223" y="0" type="line"/>
      <point x="222" y="-111"/>
      <point x="194" y="-192"/>
      <point x="109" y="-192" type="curve" smooth="yes"/>
      <point x="92" y="-192"/>
      <point x="74" y="-189"/>
      <point x="53" y="-183" type="curve"/>
      <point x="43" y="-213" type="line"/>
      <point x="80" y="-224"/>
      <point x="113" y="-229"/>
    </contour>
    <component base="Ghestroke-cy"/>
  </outline>
</glyph>
<glyph name="Hastroke-cy" format="2">
  <advance width="649"/>
  <unicode hex="04FE"/>
  <outline>
    <contour>
      <point x="85" y="327" type="line"/>
      <point x="533" y="331" type="line"/>
      <point x="533" y="371" type="line"/>
      <point x="85" y="371" type="line"/>
    </contour>
    <component base="X"/>
  </outline>
</glyph>
<glyph name="Reversedze-cy" format="2">
  <advance width="626"/>
  <unicode hex="0510"/>
  <outline>
    <contour>
      <point x="324" y="-16" type="curve" smooth="yes"/>
      <point x="431" y="-16"/>
      <point x="524" y="30"/>
      <point x="587" y="122" type="curve"/>
      <point x="560" y="142" type="line"/>
      <point x="513" y="73"/>
      <point x="427" y="32"/>
      <point x="341" y="32" type="curve" smooth="yes"/>
      <point x="242" y="32"/>
      <point x="145" y="72"/>
      <point x="143" y="185" type="curve" smooth="yes"/>
      <point x="141" y="284"/>
      <point x="215" y="344"/>
      <point x="338" y="345" type="curve" smooth="yes"/>
      <point x="406" y="345" type="line"/>
      <point x="406" y="386" type="line"/>
      <point x="321" y="385" type="line"/>
      <point x="216" y="388"/>
      <point x="160" y="456"/>
      <point x="160" y="528" type="curve" smooth="yes"/>
      <point x="160" y="626"/>
      <point x="218" y="676"/>
      <point x="287" y="676" type="curve" smooth="yes"/>
      <point x="392" y="676"/>
      <point x="465" y="610"/>
      <point x="481" y="502" type="curve"/>
      <point x="517" y="502" type="line"/>
      <point x="517" y="709" type="line"/>
      <point x="463" y="709" type="line"/>
      <point x="468" y="655" type="line"/>
      <point x="410" y="697"/>
      <point x="351" y="716"/>
      <point x="284" y="716" type="curve" smooth="yes"/>
      <point x="155" y="716"/>
      <point x="66" y="628"/>
      <point x="68" y="527" type="curve" smooth="yes"/>
      <point x="69" y="453"/>
      <point x="111" y="369"/>
      <point x="247" y="369" type="curve"/>
      <point x="126" y="356"/>
      <point x="40" y="269"/>
      <point x="43" y="171" type="curve" smooth="yes"/>
      <point x="48" y="27"/>
      <point x="197" y="-16"/>
    </contour>
  </outline>
</glyph>
<glyph name="reversedze-cy" format="2">
  <advance width="457"/>
  <unicode hex="0511"/>
  <outline>
    <contour>
      <point x="237" y="-16" type="curve" smooth="yes"/>
      <point x="291" y="-16"/>
      <point x="375" y="10"/>
      <point x="428" y="86" type="curve"/>
      <point x="400" y="110" type="line"/>
      <point x="356" y="57"/>
      <point x="304" y="34"/>
      <point x="249" y="34" type="curve" smooth="yes"/>
      <point x="170" y="34"/>
      <point x="125" y="68"/>
      <point x="125" y="131" type="curve" smooth="yes"/>
      <point x="125" y="205"/>
      <point x="183" y="237"/>
      <point x="249" y="237" type="curve" smooth="yes"/>
      <point x="294" y="237" type="line"/>
      <point x="294" y="274" type="line"/>
      <point x="253" y="274" type="line" smooth="yes"/>
      <point x="178" y="274"/>
      <point x="134" y="312"/>
      <point x="134" y="375" type="curve" smooth="yes"/>
      <point x="134" y="435"/>
      <point x="172" y="479"/>
      <point x="238" y="479" type="curve" smooth="yes"/>
      <point x="266" y="479"/>
      <point x="306" y="468"/>
      <point x="323" y="441" type="curve"/>
      <point x="311" y="429"/>
      <point x="308" y="414"/>
      <point x="308" y="401" type="curve" smooth="yes"/>
      <point x="308" y="384"/>
      <point x="320" y="355"/>
      <point x="354" y="356" type="curve" smooth="yes"/>
      <point x="384" y="356"/>
      <point x="401" y="380"/>
      <point x="401" y="409" type="curve" smooth="yes"/>
      <point x="401" y="474"/>
      <point x="335" y="516"/>
      <point x="224" y="516" type="curve" smooth="yes"/>
      <point x="128" y="516"/>
      <point x="42" y="459"/>
      <point x="42" y="373" type="curve" smooth="yes"/>
      <point x="42" y="304"/>
      <point x="93" y="261"/>
      <point x="175" y="253" type="curve"/>
      <point x="87" y="251"/>
      <point x="29" y="197"/>
      <point x="29" y="122" type="curve" smooth="yes"/>
      <point x="29" y="30"/>
      <point x="114" y="-16"/>
    </contour>
  </outline>
</glyph>
<glyph name="Pedescender-cy" format="2">
  <advance width="756"/>
  <unicode hex="0524"/>
  <outline>
    <contour>
      <point x="681" y="-176" type="curve"/>
      <point x="722" y="-176" type="line"/>
      <point x="722" y="51" type="line"/>
      <point x="635" y="46" type="line"/>
      <point x="636" y="62"/>
      <point x="637" y="87"/>
      <point x="637" y="119" type="curve" smooth="yes"/>
      <point x="637" y="544" type="line" smooth="yes"/>
      <point x="637" y="615"/>
      <point x="631" y="664"/>
      <point x="706" y="667" type="curve"/>
      <point x="706" y="700" type="line"/>
      <point x="55" y="700" type="line"/>
      <point x="55" y="656" type="line"/>
      <point x="79" y="657"/>
      <point x="103" y="659"/>
      <point x="127" y="660" type="curve"/>
      <point x="125" y="640"/>
      <point x="124" y="615"/>
      <point x="124" y="588" type="curve" smooth="yes"/>
      <point x="124" y="156" type="line" smooth="yes"/>
      <point x="124" y="85"/>
      <point x="130" y="36"/>
      <point x="55" y="33" type="curve"/>
      <point x="55" y="0" type="line"/>
      <point x="280" y="0" type="line"/>
      <point x="280" y="44" type="line"/>
      <point x="256" y="43"/>
      <point x="232" y="41"/>
      <point x="208" y="40" type="curve"/>
      <point x="210" y="57"/>
      <point x="211" y="83"/>
      <point x="211" y="119" type="curve" smooth="yes"/>
      <point x="211" y="575" type="line" smooth="yes"/>
      <point x="212" y="623"/>
      <point x="221" y="655"/>
      <point x="280" y="657" type="curve" smooth="yes"/>
      <point x="550" y="661" type="line"/>
      <point x="550" y="156" type="line" smooth="yes"/>
      <point x="550" y="85"/>
      <point x="556" y="36"/>
      <point x="480" y="33" type="curve"/>
      <point x="480" y="0" type="line"/>
      <point x="618" y="0" type="line"/>
      <point x="669" y="-13"/>
      <point x="681" y="-85"/>
    </contour>
  </outline>
</glyph>
<glyph name="pedescender-cy" format="2">
  <advance width="622"/>
  <unicode hex="0525"/>
  <outline>
    <contour>
      <point x="554" y="-178" type="curve"/>
      <point x="595" y="-178" type="line"/>
      <point x="595" y="45" type="line"/>
      <point x="507" y="44" type="line"/>
      <point x="510" y="64"/>
      <point x="510" y="82"/>
      <point x="510" y="106" type="curve" smooth="yes"/>
      <point x="512" y="348" type="line" smooth="yes"/>
      <point x="512" y="420"/>
      <point x="510" y="470"/>
      <point x="571" y="470" type="curve"/>
      <point x="571" y="500" type="line"/>
      <point x="45" y="500" type="line"/>
      <point x="45" y="459" type="line"/>
      <point x="108" y="462" type="line"/>
      <point x="104" y="439"/>
      <point x="104" y="421"/>
      <point x="104" y="394" type="curve" smooth="yes"/>
      <point x="104" y="152" type="line" smooth="yes"/>
      <point x="103" y="80"/>
      <point x="105" y="30"/>
      <point x="44" y="30" type="curve"/>
      <point x="44" y="0" type="line"/>
      <point x="249" y="0" type="line"/>
      <point x="249" y="41" type="line"/>
      <point x="186" y="38" type="line"/>
      <point x="190" y="61"/>
      <point x="190" y="79"/>
      <point x="190" y="106" type="curve" smooth="yes"/>
      <point x="191" y="348" type="line" smooth="yes"/>
      <point x="192" y="420"/>
      <point x="189" y="460"/>
      <point x="251" y="460" type="curve" smooth="yes"/>
      <point x="429" y="462" type="line"/>
      <point x="425" y="439"/>
      <point x="425" y="421"/>
      <point x="425" y="394" type="curve" smooth="yes"/>
      <point x="424" y="152" type="line" smooth="yes"/>
      <point x="423" y="80"/>
      <point x="425" y="30"/>
      <point x="364" y="30" type="curve"/>
      <point x="364" y="0" type="line"/>
      <point x="474" y="0" type="line" smooth="yes"/>
      <point x="540" y="0"/>
      <point x="554" y="-78"/>
    </contour>
  </outline>
</glyph>
<glyph name="EnLeftHook-cy" format="2">
  <advance width="776"/>
  <unicode hex="0528"/>
  <outline>
    <contour>
      <point x="38" y="-229" type="curve" smooth="yes"/>
      <point x="161" y="-229"/>
      <point x="207" y="-131"/>
      <point x="207" y="14" type="curve" smooth="yes"/>
      <point x="207" y="334" type="line"/>
      <point x="565" y="338" type="line"/>
      <point x="565" y="156" type="line" smooth="yes"/>
      <point x="565" y="85"/>
      <point x="571" y="36"/>
      <point x="496" y="33" type="curve"/>
      <point x="496" y="0" type="line"/>
      <point x="721" y="0" type="line"/>
      <point x="721" y="44" type="line"/>
      <point x="697" y="43"/>
      <point x="673" y="41"/>
      <point x="649" y="40" type="curve"/>
      <point x="651" y="57"/>
      <point x="652" y="83"/>
      <point x="652" y="119" type="curve" smooth="yes"/>
      <point x="652" y="544" type="line" smooth="yes"/>
      <point x="652" y="615"/>
      <point x="646" y="664"/>
      <point x="721" y="667" type="curve"/>
      <point x="721" y="700" type="line"/>
      <point x="496" y="700" type="line"/>
      <point x="496" y="656" type="line"/>
      <point x="520" y="657"/>
      <point x="544" y="659"/>
      <point x="568" y="660" type="curve"/>
      <point x="566" y="640"/>
      <point x="565" y="615"/>
      <point x="565" y="588" type="curve" smooth="yes"/>
      <point x="565" y="378" type="line"/>
      <point x="207" y="378" type="line"/>
      <point x="207" y="544" type="line" smooth="yes"/>
      <point x="207" y="615"/>
      <point x="201" y="664"/>
      <point x="276" y="667" type="curve"/>
      <point x="276" y="700" type="line"/>
      <point x="51" y="700" type="line"/>
      <point x="51" y="656" type="line"/>
      <point x="75" y="657"/>
      <point x="99" y="659"/>
      <point x="123" y="660" type="curve"/>
      <point x="121" y="640"/>
      <point x="120" y="615"/>
      <point x="120" y="588" type="curve" smooth="yes"/>
      <point x="120" y="6" type="line" smooth="yes"/>
      <point x="120" y="-108"/>
      <point x="93" y="-192"/>
      <point x="6" y="-192" type="curve" smooth="yes"/>
      <point x="-11" y="-192"/>
      <point x="-29" y="-189"/>
      <point x="-50" y="-183" type="curve"/>
      <point x="-60" y="-213" type="line"/>
      <point x="-23" y="-224"/>
      <point x="10" y="-229"/>
    </contour>
  </outline>
</glyph>
<glyph name="enlefthook-cy" format="2">
  <advance width="622"/>
  <unicode hex="0529"/>
  <outline>
    <contour>
      <point x="11" y="-229" type="curve" smooth="yes"/>
      <point x="155" y="-229"/>
      <point x="189" y="-128"/>
      <point x="189" y="42" type="curve" smooth="yes"/>
      <point x="189" y="233" type="line"/>
      <point x="432" y="237" type="line"/>
      <point x="432" y="152" type="line" smooth="yes"/>
      <point x="432" y="80"/>
      <point x="434" y="30"/>
      <point x="373" y="30" type="curve"/>
      <point x="373" y="0" type="line"/>
      <point x="577" y="0" type="line"/>
      <point x="577" y="41" type="line"/>
      <point x="514" y="38" type="line"/>
      <point x="518" y="61"/>
      <point x="518" y="79"/>
      <point x="518" y="106" type="curve" smooth="yes"/>
      <point x="519" y="348" type="line" smooth="yes"/>
      <point x="519" y="420"/>
      <point x="517" y="470"/>
      <point x="578" y="470" type="curve"/>
      <point x="578" y="500" type="line"/>
      <point x="374" y="500" type="line"/>
      <point x="374" y="459" type="line"/>
      <point x="437" y="462" type="line"/>
      <point x="433" y="439"/>
      <point x="433" y="421"/>
      <point x="433" y="394" type="curve" smooth="yes"/>
      <point x="432" y="276" type="line"/>
      <point x="190" y="276" type="line"/>
      <point x="190" y="348" type="line" smooth="yes"/>
      <point x="190" y="420"/>
      <point x="188" y="470"/>
      <point x="250" y="470" type="curve"/>
      <point x="250" y="500" type="line"/>
      <point x="45" y="500" type="line"/>
      <point x="45" y="459" type="line"/>
      <point x="108" y="462" type="line"/>
      <point x="104" y="439"/>
      <point x="104" y="421"/>
      <point x="104" y="394" type="curve" smooth="yes"/>
      <point x="103" y="40" type="line" smooth="yes"/>
      <point x="103" y="-105"/>
      <point x="89" y="-192"/>
      <point x="-7" y="-192" type="curve" smooth="yes"/>
      <point x="-23" y="-192"/>
      <point x="-56" y="-187"/>
      <point x="-75" y="-182" type="curve"/>
      <point x="-84" y="-213" type="line"/>
      <point x="-47" y="-224"/>
      <point x="-18" y="-229"/>
    </contour>
  </outline>
</glyph>
<glyph name="Eldescender-cy" format="2">
  <advance width="700"/>
  <unicode hex="052E"/>
  <outline>
    <contour>
      <point x="573" y="44" type="line"/>
      <point x="575" y="61"/>
      <point x="576" y="85"/>
      <point x="576" y="119" type="curve" smooth="yes"/>
      <point x="576" y="544" type="line" smooth="yes"/>
      <point x="576" y="615"/>
      <point x="570" y="664"/>
      <point x="645" y="667" type="curve"/>
      <point x="645" y="700" type="line"/>
      <point x="150" y="700" type="line"/>
      <point x="150" y="656" type="line"/>
      <point x="223" y="660" type="line"/>
      <point x="244" y="660" type="line"/>
      <point x="244" y="511" type="line" smooth="yes"/>
      <point x="244" y="178"/>
      <point x="157" y="25"/>
      <point x="112" y="25" type="curve" smooth="yes"/>
      <point x="105" y="25"/>
      <point x="101" y="27"/>
      <point x="95" y="33" type="curve"/>
      <point x="103" y="41"/>
      <point x="105" y="47"/>
      <point x="105" y="60" type="curve" smooth="yes"/>
      <point x="105" y="80"/>
      <point x="89" y="106"/>
      <point x="56" y="104" type="curve" smooth="yes"/>
      <point x="27" y="103"/>
      <point x="7" y="81"/>
      <point x="7" y="52" type="curve" smooth="yes"/>
      <point x="7" y="10"/>
      <point x="51" y="-16"/>
      <point x="99" y="-16" type="curve" smooth="yes"/>
      <point x="249" y="-16"/>
      <point x="292" y="290"/>
      <point x="292" y="582" type="curve"/>
      <point x="294" y="634"/>
      <point x="300" y="660"/>
      <point x="348" y="660" type="curve" smooth="yes"/>
      <point x="489" y="661" type="line"/>
      <point x="489" y="156" type="line" smooth="yes"/>
      <point x="489" y="85"/>
      <point x="495" y="36"/>
      <point x="419" y="33" type="curve"/>
      <point x="419" y="0" type="line"/>
      <point x="539" y="0" type="line" smooth="yes"/>
      <point x="605" y="0"/>
      <point x="619" y="-78"/>
      <point x="619" y="-178" type="curve"/>
      <point x="660" y="-178" type="line"/>
      <point x="660" y="49" type="line"/>
    </contour>
  </outline>
</glyph>
<glyph name="Germandbls" format="2">
  <advance width="681"/>
  <unicode hex="1E9E"/>
  <outline>
    <contour>
      <point x="407" y="-16" type="curve" smooth="yes"/>
      <point x="521" y="-16"/>
      <point x="628" y="57"/>
      <point x="628" y="200" type="curve" smooth="yes"/>
      <point x="628" y="315"/>
      <point x="553" y="404"/>
      <point x="402" y="409" type="curve"/>
      <point x="596" y="665" type="line"/>
      <point x="597" y="700" type="line"/>
      <point x="338" y="700" type="line" smooth="yes"/>
      <point x="163" y="700"/>
      <point x="107" y="579"/>
      <point x="107" y="450" type="curve" smooth="yes"/>
      <point x="108" y="152" type="line" smooth="yes"/>
      <point x="108" y="80"/>
      <point x="110" y="30"/>
      <point x="49" y="30" type="curve"/>
      <point x="49" y="0" type="line"/>
      <point x="190" y="0" type="line"/>
      <point x="194" y="63"/>
      <point x="194" y="79"/>
      <point x="194" y="106" type="curve"/>
      <point x="193" y="468" type="line" smooth="yes"/>
      <point x="193" y="587"/>
      <point x="238" y="658"/>
      <point x="338" y="660" type="curve" smooth="yes"/>
      <point x="531" y="663" type="line"/>
      <point x="492" y="639"/>
      <point x="468" y="617"/>
      <point x="443" y="583" type="curve" smooth="yes"/>
      <point x="313" y="409" type="line"/>
      <point x="313" y="367" type="line"/>
      <point x="338" y="368" type="line"/>
      <point x="468" y="362"/>
      <point x="529" y="310"/>
      <point x="529" y="202" type="curve" smooth="yes"/>
      <point x="529" y="89"/>
      <point x="464" y="32"/>
      <point x="383" y="32" type="curve" smooth="yes"/>
      <point x="345" y="32"/>
      <point x="302" y="45"/>
      <point x="275" y="67" type="curve"/>
      <point x="249" y="46" type="line"/>
      <point x="291" y="4"/>
      <point x="347" y="-16"/>
    </contour>
  </outline>
</glyph>
<glyph name="endash" format="2">
  <advance width="590"/>
  <unicode hex="2013"/>
  <outline>
    <contour>
      <point x="66" y="285" type="line"/>
      <point x="521" y="289" type="line"/>
      <point x="521" y="355" type="line"/>
      <point x="66" y="355" type="line"/>
    </contour>
  </outline>
</glyph>
<glyph name="fraction" format="2">
  <advance width="476"/>
  <unicode hex="2044"/>
  <outline>
    <contour>
      <point x="20" y="-16" type="line"/>
      <point x="493" y="685" type="line"/>
      <point x="449" y="716" type="line"/>
      <point x="-18" y="10" type="line"/>
    </contour>
  </outline>
</glyph>
<glyph name="foursuperior" format="2">
  <advance width="403"/>
  <unicode hex="2074"/>
  <outline>
    <contour>
      <point x="161" y="305" type="line"/>
      <point x="308" y="305" type="line"/>
      <point x="308" y="339" type="line"/>
      <point x="294" y="338"/>
      <point x="281" y="338"/>
      <point x="267" y="337" type="curve"/>
      <point x="267" y="361"/>
      <point x="267" y="386"/>
      <point x="267" y="410" type="curve"/>
      <point x="323" y="410" type="line"/>
      <point x="323" y="446" type="line"/>
      <point x="267" y="447" type="line"/>
      <point x="266" y="716" type="line"/>
      <point x="240" y="716" type="line"/>
      <point x="41" y="440" type="line"/>
      <point x="41" y="410" type="line"/>
      <point x="210" y="410" type="line"/>
      <point x="210" y="400" type="line" smooth="yes"/>
      <point x="210" y="362"/>
      <point x="202" y="335"/>
      <point x="161" y="334" type="curve"/>
    </contour>
    <contour>
      <point x="210" y="448" type="line"/>
      <point x="88" y="450" type="line"/>
      <point x="210" y="619" type="line"/>
    </contour>
  </outline>
</glyph>
<glyph name="hryvnia" format="2">
  <advance width="602"/>
  <unicode hex="20B4"/>
  <outline>
    <contour>
      <point x="292" y="-16" type="curve" smooth="yes"/>
      <point x="417" y="-16"/>
      <point x="477" y="38"/>
      <point x="532" y="178" type="curve"/>
      <point x="495" y="179" type="line"/>
      <point x="456" y="79"/>
      <point x="408" y="26"/>
      <point x="310" y="26" type="curve" smooth="yes"/>
      <point x="224" y="26"/>
      <point x="170" y="68"/>
      <point x="170" y="149" type="curve" smooth="yes"/>
      <point x="170" y="219"/>
      <point x="210" y="259"/>
      <point x="312" y="324" type="curve" smooth="yes"/>
      <point x="381" y="368"/>
      <point x="404" y="384"/>
      <point x="439" y="410" type="curve"/>
      <point x="439" y="413" type="line"/>
      <point x="485" y="450"/>
      <point x="522" y="501"/>
      <point x="522" y="560" type="curve" smooth="yes"/>
      <point x="522" y="647"/>
      <point x="440" y="714"/>
      <point x="317" y="714" type="curve" smooth="yes"/>
      <point x="236" y="714"/>
      <point x="165" y="684"/>
      <point x="127" y="631" type="curve"/>
      <point x="130" y="707" type="line"/>
      <point x="72" y="707" type="line"/>
      <point x="72" y="465" type="line"/>
      <point x="116" y="465" type="line"/>
      <point x="123" y="578"/>
      <point x="178" y="676"/>
      <point x="309" y="676" type="curve" smooth="yes"/>
      <point x="381" y="676"/>
      <point x="429" y="647"/>
      <point x="429" y="568" type="curve" smooth="yes"/>
      <point x="429" y="514"/>
      <point x="407" y="465"/>
      <point x="300" y="396" type="curve" smooth="yes"/>
      <point x="236" y="357"/>
      <point x="189" y="320"/>
      <point x="135" y="268" type="curve"/>
      <point x="135" y="264" type="line"/>
      <point x="89" y="227"/>
      <point x="65" y="183"/>
      <point x="65" y="135" type="curve" smooth="yes"/>
      <point x="65" y="30"/>
      <point x="178" y="-16"/>
    </contour>
    <contour>
      <point x="35" y="267" type="line"/>
      <point x="540" y="269" type="line"/>
      <point x="540" y="303" type="line"/>
      <point x="35" y="305" type="line"/>
    </contour>
    <contour>
      <point x="36" y="374" type="line"/>
      <point x="541" y="376" type="line"/>
      <point x="541" y="410" type="line"/>
      <point x="36" y="412" type="line"/>
    </contour>
  </outline>
</glyph>
<glyph name="partialdiff" format="2">
  <advance width="509"/>
  <unicode hex="2202"/>
  <outline>
    <contour>
      <point x="207" y="-16" type="curve" smooth="yes"/>
      <point x="337" y="-16"/>
      <point x="454" y="78"/>
      <point x="454" y="348" type="curve" smooth="yes"/>
      <point x="454" y="584"/>
      <point x="370" y="778"/>
      <point x="126" y="758" type="curve"/>
      <point x="126" y="725" type="line"/>
      <point x="314" y="730"/>
      <point x="359" y="596"/>
      <point x="370" y="460" type="curve"/>
      <point x="343" y="488"/>
      <point x="308" y="501"/>
      <point x="271" y="503" type="curve" smooth="yes"/>
      <point x="148" y="507"/>
      <point x="37" y="387"/>
      <point x="37" y="204" type="curve" smooth="yes"/>
      <point x="37" y="59"/>
      <point x="117" y="-16"/>
    </contour>
    <contour>
      <point x="225" y="22" type="curve" smooth="yes"/>
      <point x="167" y="22"/>
      <point x="123" y="91"/>
      <point x="123" y="215" type="curve" smooth="yes"/>
      <point x="123" y="374"/>
      <point x="201" y="463"/>
      <point x="271" y="463" type="curve" smooth="yes"/>
      <point x="315" y="463"/>
      <point x="349" y="445"/>
      <point x="373" y="401" type="curve"/>
      <point x="373" y="202"/>
      <point x="336" y="22"/>
    </contour>
  </outline>
</glyph>
<glyph name="radical" format="2">
  <advance width="843"/>
  <unicode hex="221A"/>
  <outline>
    <contour>
      <point x="307" y="-3" type="line"/>
      <point x="357" y="-3" type="line"/>
      <point x="601" y="824" type="line"/>
      <point x="866" y="821" type="line"/>
      <point x="866" y="862" type="line"/>
      <point x="561" y="862" type="line"/>
      <point x="385" y="262" type="line"/>
      <point x="372" y="216"/>
      <point x="358" y="170"/>
      <point x="345" y="124" type="curve"/>
      <point x="330" y="162"/>
      <point x="315" y="201"/>
      <point x="300" y="239" type="curve"/>
      <point x="198" y="500" type="line"/>
      <point x="2" y="500" type="line"/>
      <point x="2" y="465" type="line"/>
      <point x="122" y="462" type="line"/>
      <point x="125" y="446"/>
      <point x="134" y="422"/>
      <point x="151" y="381" type="curve" smooth="yes"/>
    </contour>
  </outline>
</glyph>
<glyph name="approxequal" format="2">
  <advance width="530"/>
  <unicode hex="2248"/>
  <outline>
    <contour>
      <point x="368" y="311" type="curve" smooth="yes"/>
      <point x="421" y="311"/>
      <point x="460" y="332"/>
      <point x="487" y="360" type="curve"/>
      <point x="487" y="419" type="line"/>
      <point x="453" y="390"/>
      <point x="408" y="371"/>
      <point x="360" y="375" type="curve" smooth="yes"/>
      <point x="289" y="381"/>
      <point x="273" y="446"/>
      <point x="170" y="446" type="curve" smooth="yes"/>
      <point x="117" y="446"/>
      <point x="85" y="428"/>
      <point x="43" y="396" type="curve"/>
      <point x="43" y="337" type="line"/>
      <point x="79" y="361"/>
      <point x="111" y="382"/>
      <point x="166" y="382" type="curve" smooth="yes"/>
      <point x="246" y="382"/>
      <point x="268" y="311"/>
    </contour>
    <contour>
      <point x="368" y="151" type="curve" smooth="yes"/>
      <point x="421" y="151"/>
      <point x="460" y="172"/>
      <point x="487" y="200" type="curve"/>
      <point x="487" y="259" type="line"/>
      <point x="453" y="230"/>
      <point x="408" y="211"/>
      <point x="360" y="215" type="curve" smooth="yes"/>
      <point x="289" y="221"/>
      <point x="273" y="286"/>
      <point x="170" y="286" type="curve" smooth="yes"/>
      <point x="117" y="286"/>
      <point x="85" y="268"/>
      <point x="43" y="236" type="curve"/>
      <point x="43" y="177" type="line"/>
      <point x="79" y="201"/>
      <point x="111" y="222"/>
      <point x="166" y="222" type="curve" smooth="yes"/>
      <point x="246" y="222"/>
      <point x="268" y="151"/>
    </contour>
  </outline>
</glyph>
<glyph name="leftanglebracket-math" format="2">
  <advance width="362"/>
  <unicode hex="27E8"/>
  <outline>
    <contour>
      <point x="280" y="-65" type="line"/>
      <point x="315" y="-35" type="line"/>
      <point x="105" y="366" type="line"/>
      <point x="317" y="760" type="line"/>
      <point x="280" y="788" type="line"/>
      <point x="35" y="387" type="line"/>
      <point x="35" y="343" type="line"/>
    </contour>
  </outline>
</glyph>
